Teko_0.ufo
<glyph name="quotedbl" format="1">
  <advance width="254"/>
  <unicode hex="0022"/>
  <outline>
    <contour>
      <point x="35" y="622" type="line"/>
      <point x="35" y="410" type="line"/>
      <point x="99" y="410" type="line"/>
      <point x="99" y="622" type="line"/>
    </contour>
    <contour>
      <point x="155" y="622" type="line"/>
      <point x="155" y="410" type="line"/>
      <point x="219" y="410" type="line"/>
      <point x="219" y="622" type="line"/>
    </contour>
  </outline>
</glyph>
<glyph name="dollar" format="1">
  <advance width="327"/>
  <unicode hex="0024"/>
  <outline>
    <contour>
      <point x="196" y="612" type="line"/>
      <point x="196" y="697" type="line"/>
      <point x="131" y="697" type="line"/>
      <point x="131" y="612" type="line"/>
    </contour>
    <contour>
      <point x="196" y="-75" type="line"/>
      <point x="196" y="10" type="line"/>
      <point x="131" y="10" type="line"/>
      <point x="131" y="-75" type="line"/>
    </contour>
    <contour>
      <point x="218" y="90" type="line"/>
      <point x="218" y="64"/>
      <point x="213" y="59"/>
      <point x="187" y="59" type="curve"/>
      <point x="142" y="59" type="line" smooth="yes"/>
      <point x="116" y="59"/>
      <point x="111" y="64"/>
      <point x="111" y="90" type="curve" smooth="yes"/>
      <point x="111" y="175" type="line"/>
      <point x="42" y="175" type="line"/>
      <point x="42" y="79" type="line" smooth="yes"/>
      <point x="42" y="26"/>
      <point x="68" y="0"/>
      <point x="121" y="0" type="curve" smooth="yes"/>
      <point x="208" y="0" type="line" smooth="yes"/>
      <point x="261" y="0"/>
      <point x="287" y="26"/>
      <point x="287" y="79" type="curve" smooth="yes"/>
      <point x="287" y="271" type="line" smooth="yes"/>
      <point x="287" y="324"/>
      <point x="261" y="350"/>
      <point x="208" y="350" type="curve" smooth="yes"/>
      <point x="140" y="350" type="line" smooth="yes"/>
      <point x="114" y="350"/>
      <point x="109" y="355"/>
      <point x="109" y="381" type="curve" smooth="yes"/>
      <point x="109" y="532" type="line" smooth="yes"/>
      <point x="109" y="558"/>
      <point x="114" y="563"/>
      <point x="140" y="563" type="curve" smooth="yes"/>
      <point x="186" y="563" type="line" smooth="yes"/>
      <point x="212" y="563"/>
      <point x="217" y="558"/>
      <point x="217" y="532" type="curve" smooth="yes"/>
      <point x="217" y="447" type="line"/>
      <point x="286" y="447" type="line"/>
      <point x="286" y="543" type="line" smooth="yes"/>
      <point x="286" y="596"/>
      <point x="260" y="622"/>
      <point x="207" y="622" type="curve" smooth="yes"/>
      <point x="119" y="622" type="line" smooth="yes"/>
      <point x="66" y="622"/>
      <point x="40" y="596"/>
      <point x="40" y="543" type="curve" smooth="yes"/>
      <point x="40" y="370" type="line" smooth="yes"/>
      <point x="40" y="317"/>
      <point x="66" y="291"/>
      <point x="119" y="291" type="curve" smooth="yes"/>
      <point x="187" y="291" type="line" smooth="yes"/>
      <point x="213" y="291"/>
      <point x="218" y="286"/>
      <point x="218" y="260" type="curve" smooth="yes"/>
    </contour>
  </outline>
</glyph>
<glyph name="ampersand" format="1">
  <advance width="418"/>
  <unicode hex="0026"/>
  <outline>
    <contour>
      <point x="475" y="-35" type="line"/>
      <point x="195" y="322" type="line" smooth="yes"/>
      <point x="171" y="353"/>
      <point x="128" y="395"/>
      <point x="128" y="434" type="curve" smooth="yes"/>
      <point x="128" y="532" type="line"/>
      <point x="128" y="558"/>
      <point x="133" y="563"/>
      <point x="159" y="563" type="curve" smooth="yes"/>
      <point x="211" y="563" type="line" smooth="yes"/>
      <point x="237" y="563"/>
      <point x="242" y="558"/>
      <point x="242" y="532" type="curve" smooth="yes"/>
      <point x="242" y="444" type="line" smooth="yes"/>
      <point x="242" y="400"/>
      <point x="224" y="380"/>
      <point x="185" y="353" type="curve" smooth="yes"/>
      <point x="92" y="281" type="line" smooth="yes"/>
      <point x="53" y="254"/>
      <point x="40" y="233"/>
      <point x="40" y="195" type="curve" smooth="yes"/>
      <point x="40" y="79" type="line" smooth="yes"/>
      <point x="40" y="26"/>
      <point x="66" y="0"/>
      <point x="119" y="0" type="curve" smooth="yes"/>
      <point x="311" y="0" type="line" smooth="yes"/>
      <point x="364" y="0"/>
      <point x="390" y="26"/>
      <point x="390" y="79" type="curve" smooth="yes"/>
      <point x="390" y="224" type="line"/>
      <point x="334" y="224" type="line"/>
      <point x="334" y="90" type="line" smooth="yes"/>
      <point x="334" y="64"/>
      <point x="329" y="59"/>
      <point x="303" y="59" type="curve" smooth="yes"/>
      <point x="139" y="59" type="line" smooth="yes"/>
      <point x="113" y="59"/>
      <point x="108" y="64"/>
      <point x="108" y="90" type="curve" smooth="yes"/>
      <point x="108" y="177" type="line" smooth="yes"/>
      <point x="108" y="212"/>
      <point x="117" y="223"/>
      <point x="139" y="238" type="curve" smooth="yes"/>
      <point x="241" y="311" type="line" smooth="yes"/>
      <point x="286" y="340"/>
      <point x="310" y="374"/>
      <point x="310" y="444" type="curve" smooth="yes"/>
      <point x="310" y="543" type="line" smooth="yes"/>
      <point x="310" y="596"/>
      <point x="284" y="622"/>
      <point x="231" y="622" type="curve" smooth="yes"/>
      <point x="139" y="622" type="line"/>
      <point x="86" y="622"/>
      <point x="60" y="596"/>
      <point x="60" y="543" type="curve" smooth="yes"/>
      <point x="60" y="440" type="line" smooth="yes"/>
      <point x="60" y="384"/>
      <point x="104" y="337"/>
      <point x="142" y="287" type="curve" smooth="yes"/>
      <point x="400" y="-35" type="line"/>
    </contour>
  </outline>
</glyph>
<glyph name="parenright" format="1">
  <advance width="245"/>
  <unicode hex="0029"/>
  <outline>
    <contour>
      <point x="193" y="271" type="curve"/>
      <point x="193" y="342" type="line"/>
      <point x="193" y="627"/>
      <point x="130" y="791"/>
      <point x="-13" y="791" type="curve" smooth="yes"/>
      <point x="-29" y="791" type="line"/>
      <point x="-29" y="734" type="line"/>
      <point x="-15" y="733" type="line" smooth="yes"/>
      <point x="96" y="725"/>
      <point x="126" y="561"/>
      <point x="126" y="343" type="curve" smooth="yes"/>
      <point x="126" y="270" type="line" smooth="yes"/>
      <point x="126" y="52"/>
      <point x="96" y="-112"/>
      <point x="-15" y="-120" type="curve" smooth="yes"/>
      <point x="-29" y="-121" type="line"/>
      <point x="-29" y="-178" type="line"/>
      <point x="-13" y="-178" type="line" smooth="yes"/>
      <point x="130" y="-178"/>
      <point x="193" y="-14"/>
    </contour>
  </outline>
</glyph>
<glyph name="plus" format="1">
  <advance width="380"/>
  <unicode hex="002B"/>
  <outline>
    <contour>
      <point x="25" y="281" type="line"/>
      <point x="355" y="281" type="line"/>
      <point x="355" y="341" type="line"/>
      <point x="25" y="341" type="line"/>
    </contour>
    <contour>
      <point x="155" y="491" type="line"/>
      <point x="155" y="131" type="line"/>
      <point x="225" y="131" type="line"/>
      <point x="225" y="491" type="line"/>
    </contour>
  </outline>
</glyph>
<glyph name="comma" format="1">
  <advance width="142"/>
  <unicode hex="002C"/>
  <outline>
    <contour>
      <point x="30" y="112" type="line"/>
      <point x="30" y="-137" type="line"/>
      <point x="57" y="-137" type="line"/>
      <point x="112" y="54" type="line"/>
      <point x="112" y="112" type="line"/>
    </contour>
  </outline>
</glyph>
<glyph name="slash" format="1">
  <advance width="384"/>
  <unicode hex="002F"/>
  <outline>
    <contour>
      <point x="272" y="699" type="line"/>
      <point x="8" y="-136" type="line"/>
      <point x="76" y="-136" type="line"/>
      <point x="340" y="699" type="line"/>
    </contour>
  </outline>
</glyph>
<glyph name="zero" format="1">
  <advance width="361"/>
  <unicode hex="0030"/>
  <outline>
    <contour>
      <point x="311" y="543" type="line"/>
      <point x="311" y="596"/>
      <point x="285" y="622"/>
      <point x="232" y="622" type="curve" smooth="yes"/>
      <point x="129" y="622" type="line" smooth="yes"/>
      <point x="76" y="622"/>
      <point x="50" y="596"/>
      <point x="50" y="543" type="curve" smooth="yes"/>
      <point x="50" y="79" type="line" smooth="yes"/>
      <point x="50" y="26"/>
      <point x="76" y="0"/>
      <point x="129" y="0" type="curve"/>
      <point x="232" y="0" type="line" smooth="yes"/>
      <point x="285" y="0"/>
      <point x="311" y="26"/>
      <point x="311" y="79" type="curve" smooth="yes"/>
    </contour>
    <contour>
      <point x="242" y="90" type="line"/>
      <point x="242" y="64"/>
      <point x="237" y="59"/>
      <point x="211" y="59" type="curve" smooth="yes"/>
      <point x="150" y="59" type="line" smooth="yes"/>
      <point x="124" y="59"/>
      <point x="119" y="64"/>
      <point x="119" y="90" type="curve"/>
      <point x="119" y="532" type="line" smooth="yes"/>
      <point x="119" y="558"/>
      <point x="124" y="563"/>
      <point x="150" y="563" type="curve" smooth="yes"/>
      <point x="211" y="563" type="line" smooth="yes"/>
      <point x="237" y="563"/>
      <point x="242" y="558"/>
      <point x="242" y="532" type="curve" smooth="yes"/>
    </contour>
  </outline>
</glyph>
<glyph name="two" format="1">
  <advance width="290"/>
  <unicode hex="0032"/>
  <outline>
    <contour>
      <point x="93" y="532" type="line"/>
      <point x="93" y="558"/>
      <point x="98" y="563"/>
      <point x="124" y="563" type="curve"/>
      <point x="160" y="563" type="line" smooth="yes"/>
      <point x="186" y="563"/>
      <point x="191" y="558"/>
      <point x="191" y="532" type="curve" smooth="yes"/>
      <point x="191" y="492" type="line" smooth="yes"/>
      <point x="191" y="444"/>
      <point x="186" y="411"/>
      <point x="168" y="369" type="curve"/>
      <point x="26" y="58" type="line"/>
      <point x="26" y="0" type="line"/>
      <point x="265" y="0" type="line"/>
      <point x="265" y="59" type="line"/>
      <point x="97" y="59" type="line"/>
      <point x="234" y="358" type="line"/>
      <point x="254" y="405"/>
      <point x="260" y="439"/>
      <point x="260" y="488" type="curve" smooth="yes"/>
      <point x="260" y="543" type="line" smooth="yes"/>
      <point x="260" y="596"/>
      <point x="234" y="622"/>
      <point x="181" y="622" type="curve" smooth="yes"/>
      <point x="104" y="622" type="line" smooth="yes"/>
      <point x="51" y="622"/>
      <point x="25" y="596"/>
      <point x="25" y="543" type="curve" smooth="yes"/>
      <point x="25" y="422" type="line"/>
      <point x="93" y="422" type="line"/>
    </contour>
  </outline>
</glyph>
<glyph name="three" format="1">
  <advance width="322"/>
  <unicode hex="0033"/>
  <outline>
    <contour>
      <point x="98" y="532" type="line"/>
      <point x="98" y="558"/>
      <point x="103" y="563"/>
      <point x="129" y="563" type="curve" smooth="yes"/>
      <point x="173" y="563" type="line" smooth="yes"/>
      <point x="199" y="563"/>
      <point x="204" y="558"/>
      <point x="204" y="532" type="curve" smooth="yes"/>
      <point x="204" y="376" type="line" smooth="yes"/>
      <point x="204" y="350"/>
      <point x="199" y="345"/>
      <point x="173" y="345" type="curve" smooth="yes"/>
      <point x="100" y="345" type="line"/>
      <point x="100" y="285" type="line"/>
      <point x="173" y="285" type="line" smooth="yes"/>
      <point x="199" y="285"/>
      <point x="204" y="280"/>
      <point x="204" y="254" type="curve" smooth="yes"/>
      <point x="204" y="90" type="line" smooth="yes"/>
      <point x="204" y="64"/>
      <point x="199" y="59"/>
      <point x="173" y="59" type="curve" smooth="yes"/>
      <point x="129" y="59" type="line" smooth="yes"/>
      <point x="103" y="59"/>
      <point x="98" y="64"/>
      <point x="98" y="90" type="curve" smooth="yes"/>
      <point x="98" y="191" type="line"/>
      <point x="30" y="191" type="line"/>
      <point x="30" y="79" type="line" smooth="yes"/>
      <point x="30" y="26"/>
      <point x="56" y="0"/>
      <point x="109" y="0" type="curve" smooth="yes"/>
      <point x="193" y="0" type="line" smooth="yes"/>
      <point x="246" y="0"/>
      <point x="272" y="26"/>
      <point x="272" y="79" type="curve" smooth="yes"/>
      <point x="272" y="269" type="line" smooth="yes"/>
      <point x="272" y="298"/>
      <point x="258" y="312"/>
      <point x="235" y="316" type="curve"/>
      <point x="258" y="318"/>
      <point x="272" y="335"/>
      <point x="272" y="364" type="curve" smooth="yes"/>
      <point x="272" y="543" type="line" smooth="yes"/>
      <point x="272" y="596"/>
      <point x="246" y="622"/>
      <point x="193" y="622" type="curve"/>
      <point x="109" y="622" type="line" smooth="yes"/>
      <point x="56" y="622"/>
      <point x="30" y="596"/>
      <point x="30" y="543" type="curve" smooth="yes"/>
      <point x="30" y="430" type="line"/>
      <point x="98" y="430" type="line"/>
    </contour>
  </outline>
</glyph>
<glyph name="four" format="1">
  <advance width="325"/>
  <unicode hex="0034"/>
  <outline>
    <contour>
      <point x="38" y="127" type="line"/>
      <point x="325" y="127" type="line"/>
      <point x="325" y="186" type="line"/>
      <point x="38" y="186" type="line"/>
    </contour>
    <contour>
      <point x="5" y="127" type="line"/>
      <point x="53" y="127" type="line"/>
      <point x="236" y="622" type="line"/>
      <point x="169" y="622" type="line"/>
      <point x="5" y="180" type="line"/>
    </contour>
    <contour>
      <point x="206" y="304" type="line"/>
      <point x="206" y="0" type="line"/>
      <point x="272" y="0" type="line"/>
      <point x="272" y="304" type="line"/>
    </contour>
  </outline>
</glyph>
<glyph name="nine" format="1">
  <advance width="347"/>
  <unicode hex="0039"/>
  <outline>
    <contour>
      <point x="109" y="532" type="line"/>
      <point x="109" y="558"/>
      <point x="114" y="563"/>
      <point x="140" y="563" type="curve" smooth="yes"/>
      <point x="173" y="563" type="line"/>
      <point x="173" y="622" type="line"/>
      <point x="119" y="622" type="line" smooth="yes"/>
      <point x="66" y="622"/>
      <point x="40" y="596"/>
      <point x="40" y="543" type="curve" smooth="yes"/>
      <point x="40" y="338" type="line" smooth="yes"/>
      <point x="40" y="285"/>
      <point x="66" y="259"/>
      <point x="119" y="259" type="curve" smooth="yes"/>
      <point x="253" y="259" type="line"/>
      <point x="253" y="318" type="line"/>
      <point x="140" y="318" type="line" smooth="yes"/>
      <point x="114" y="318"/>
      <point x="109" y="323"/>
      <point x="109" y="349" type="curve" smooth="yes"/>
    </contour>
    <contour>
      <point x="228" y="90" type="line"/>
      <point x="228" y="64"/>
      <point x="223" y="59"/>
      <point x="197" y="59" type="curve" smooth="yes"/>
      <point x="165" y="59" type="line"/>
      <point x="165" y="0" type="line"/>
      <point x="218" y="0" type="line" smooth="yes"/>
      <point x="271" y="0"/>
      <point x="297" y="26"/>
      <point x="297" y="79" type="curve" smooth="yes"/>
      <point x="297" y="543" type="line" smooth="yes"/>
      <point x="297" y="596"/>
      <point x="271" y="622"/>
      <point x="218" y="622" type="curve" smooth="yes"/>
      <point x="164" y="622" type="line"/>
      <point x="164" y="563" type="line"/>
      <point x="197" y="563" type="line" smooth="yes"/>
      <point x="223" y="563"/>
      <point x="228" y="558"/>
      <point x="228" y="532" type="curve" smooth="yes"/>
    </contour>
    <contour>
      <point x="109" y="196" type="line"/>
      <point x="41" y="196" type="line"/>
      <point x="41" y="79" type="line" smooth="yes"/>
      <point x="41" y="26"/>
      <point x="67" y="0"/>
      <point x="120" y="0" type="curve" smooth="yes"/>
      <point x="176" y="0" type="line"/>
      <point x="176" y="59" type="line"/>
      <point x="140" y="59" type="line" smooth="yes"/>
      <point x="114" y="59"/>
      <point x="109" y="64"/>
      <point x="109" y="90" type="curve" smooth="yes"/>
    </contour>
  </outline>
</glyph>
<glyph name="colon" format="1">
  <advance width="142"/>
  <unicode hex="003A"/>
  <outline>
    <contour>
      <point x="30" y="0" type="line"/>
      <point x="112" y="0" type="line"/>
      <point x="112" y="112" type="line"/>
      <point x="30" y="112" type="line"/>
    </contour>
    <contour>
      <point x="30" y="373" type="line"/>
      <point x="112" y="373" type="line"/>
      <point x="112" y="485" type="line"/>
      <point x="30" y="485" type="line"/>
    </contour>
  </outline>
</glyph>
<glyph name="less" format="1">
  <advance width="390"/>
  <unicode hex="003C"/>
  <outline>
    <contour>
      <point x="360" y="399" type="line"/>
      <point x="360" y="465" type="line"/>
      <point x="30" y="350" type="line"/>
      <point x="30" y="272" type="line"/>
      <point x="360" y="157" type="line"/>
      <point x="360" y="223" type="line"/>
      <point x="93" y="311" type="line"/>
    </contour>
  </outline>
</glyph>
<glyph name="greater" format="1">
  <advance width="390"/>
  <unicode hex="003E"/>
  <outline>
    <contour>
      <point x="297" y="311" type="line"/>
      <point x="30" y="223" type="line"/>
      <point x="30" y="157" type="line"/>
      <point x="360" y="272" type="line"/>
      <point x="360" y="350" type="line"/>
      <point x="30" y="465" type="line"/>
      <point x="30" y="399" type="line"/>
    </contour>
  </outline>
</glyph>
<glyph name="at" format="1">
  <advance width="651"/>
  <unicode hex="0040"/>
  <outline>
    <contour>
      <point x="229" y="348" type="curve"/>
      <point x="229" y="160" type="line" smooth="yes"/>
      <point x="229" y="107"/>
      <point x="255" y="81"/>
      <point x="308" y="81" type="curve" smooth="yes"/>
      <point x="338" y="81" type="line" smooth="yes"/>
      <point x="369" y="81"/>
      <point x="396" y="94"/>
      <point x="400" y="130" type="curve"/>
      <point x="400" y="81" type="line"/>
      <point x="526" y="81" type="line" smooth="yes"/>
      <point x="579" y="81"/>
      <point x="605" y="107"/>
      <point x="605" y="160" type="curve" smooth="yes"/>
      <point x="605" y="485" type="line" smooth="yes"/>
      <point x="605" y="538"/>
      <point x="579" y="564"/>
      <point x="526" y="564" type="curve" smooth="yes"/>
      <point x="164" y="564" type="line" smooth="yes"/>
      <point x="111" y="564"/>
      <point x="85" y="538"/>
      <point x="85" y="485" type="curve" smooth="yes"/>
      <point x="85" y="18" type="line" smooth="yes"/>
      <point x="85" y="-35"/>
      <point x="111" y="-61"/>
      <point x="164" y="-61" type="curve" smooth="yes"/>
      <point x="462" y="-61" type="line"/>
      <point x="462" y="0" type="line"/>
      <point x="185" y="0" type="line" smooth="yes"/>
      <point x="159" y="0"/>
      <point x="154" y="5"/>
      <point x="154" y="31" type="curve" smooth="yes"/>
      <point x="154" y="471" type="line" smooth="yes"/>
      <point x="154" y="497"/>
      <point x="159" y="503"/>
      <point x="185" y="503" type="curve" smooth="yes"/>
      <point x="506" y="503" type="line" smooth="yes"/>
      <point x="532" y="503"/>
      <point x="537" y="497"/>
      <point x="537" y="471" type="curve" smooth="yes"/>
      <point x="537" y="171" type="line" smooth="yes"/>
      <point x="537" y="145"/>
      <point x="532" y="140"/>
      <point x="506" y="140" type="curve" smooth="yes"/>
      <point x="461" y="140" type="line"/>
      <point x="461" y="427" type="line"/>
      <point x="393" y="427" type="line"/>
      <point x="393" y="393" type="line"/>
      <point x="385" y="417"/>
      <point x="364" y="427"/>
      <point x="338" y="427" type="curve" smooth="yes"/>
      <point x="308" y="427" type="line" smooth="yes"/>
      <point x="255" y="427"/>
      <point x="229" y="401"/>
    </contour>
    <contour>
      <point x="298" y="337" type="line"/>
      <point x="298" y="363"/>
      <point x="303" y="368"/>
      <point x="329" y="368" type="curve" smooth="yes"/>
      <point x="359" y="368" type="line" smooth="yes"/>
      <point x="383" y="368"/>
      <point x="393" y="359"/>
      <point x="393" y="332" type="curve" smooth="yes"/>
      <point x="393" y="176" type="line" smooth="yes"/>
      <point x="393" y="149"/>
      <point x="383" y="140"/>
      <point x="359" y="140" type="curve" smooth="yes"/>
      <point x="329" y="140" type="line" smooth="yes"/>
      <point x="303" y="140"/>
      <point x="298" y="145"/>
      <point x="298" y="171" type="curve" smooth="yes"/>
    </contour>
  </outline>
</glyph>
<glyph name="A" format="1">
  <advance width="343"/>
  <unicode hex="0041"/>
  <outline>
    <contour>
      <point x="257" y="217" type="line"/>
      <point x="83" y="217" type="line"/>
      <point x="83" y="158" type="line"/>
      <point x="257" y="158" type="line"/>
    </contour>
    <contour>
      <point x="328" y="0" type="line"/>
      <point x="221" y="622" type="line"/>
      <point x="112" y="622" type="line"/>
      <point x="15" y="0" type="line"/>
      <point x="84" y="0" type="line"/>
      <point x="166" y="574" type="line"/>
      <point x="259" y="0" type="line"/>
    </contour>
  </outline>
</glyph>
<glyph name="B" format="1">
  <advance width="381"/>
  <unicode hex="0042"/>
  <outline>
    <contour>
      <point x="55" y="622" type="line"/>
      <point x="55" y="0" type="line"/>
      <point x="252" y="0" type="line" smooth="yes"/>
      <point x="305" y="0"/>
      <point x="331" y="26"/>
      <point x="331" y="79" type="curve"/>
      <point x="331" y="269" type="line" smooth="yes"/>
      <point x="331" y="298"/>
      <point x="317" y="311"/>
      <point x="294" y="315" type="curve"/>
      <point x="317" y="317"/>
      <point x="331" y="335"/>
      <point x="331" y="364" type="curve" smooth="yes"/>
      <point x="331" y="543" type="line" smooth="yes"/>
      <point x="331" y="596"/>
      <point x="305" y="622"/>
      <point x="252" y="622" type="curve" smooth="yes"/>
    </contour>
    <contour>
      <point x="262" y="90" type="line"/>
      <point x="262" y="64"/>
      <point x="257" y="59"/>
      <point x="231" y="59" type="curve" smooth="yes"/>
      <point x="124" y="59" type="line"/>
      <point x="124" y="288" type="line"/>
      <point x="231" y="288" type="line" smooth="yes"/>
      <point x="257" y="288"/>
      <point x="262" y="283"/>
      <point x="262" y="257" type="curve"/>
    </contour>
    <contour>
      <point x="262" y="378" type="line"/>
      <point x="262" y="352"/>
      <point x="257" y="347"/>
      <point x="231" y="347" type="curve" smooth="yes"/>
      <point x="124" y="347" type="line"/>
      <point x="124" y="563" type="line"/>
      <point x="231" y="563" type="line" smooth="yes"/>
      <point x="257" y="563"/>
      <point x="262" y="558"/>
      <point x="262" y="532" type="curve" smooth="yes"/>
    </contour>
  </outline>
</glyph>
<glyph name="D" format="1">
  <advance width="381"/>
  <unicode hex="0044"/>
  <outline>
    <contour>
      <point x="262" y="397" type="line"/>
      <point x="331" y="397" type="line"/>
      <point x="331" y="543" type="line" smooth="yes"/>
      <point x="331" y="596"/>
      <point x="305" y="622"/>
      <point x="252" y="622" type="curve" smooth="yes"/>
      <point x="94" y="622" type="line"/>
      <point x="94" y="563" type="line"/>
      <point x="231" y="563" type="line" smooth="yes"/>
      <point x="257" y="563"/>
      <point x="262" y="558"/>
      <point x="262" y="532" type="curve" smooth="yes"/>
    </contour>
    <contour>
      <point x="262" y="90" type="line"/>
      <point x="262" y="64"/>
      <point x="257" y="59"/>
      <point x="231" y="59" type="curve" smooth="yes"/>
      <point x="94" y="59" type="line"/>
      <point x="94" y="0" type="line"/>
      <point x="252" y="0" type="line" smooth="yes"/>
      <point x="305" y="0"/>
      <point x="331" y="26"/>
      <point x="331" y="79" type="curve" smooth="yes"/>
      <point x="331" y="422" type="line"/>
      <point x="262" y="422" type="line"/>
    </contour>
    <contour>
      <point x="55" y="622" type="line"/>
      <point x="55" y="0" type="line"/>
      <point x="124" y="0" type="line"/>
      <point x="124" y="622" type="line"/>
    </contour>
  </outline>
</glyph>
<glyph name="F" format="1">
  <advance width="303"/>
  <unicode hex="0046"/>
  <outline>
    <contour>
      <point x="55" y="622" type="line"/>
      <point x="55" y="0" type="line"/>
      <point x="124" y="0" type="line"/>
      <point x="124" y="622" type="line"/>
    </contour>
    <contour>
      <point x="258" y="343" type="line"/>
      <point x="99" y="343" type="line"/>
      <point x="99" y="284" type="line"/>
      <point x="258" y="284" type="line"/>
    </contour>
    <contour>
      <point x="298" y="622" type="line"/>
      <point x="99" y="622" type="line"/>
      <point x="99" y="563" type="line"/>
      <point x="298" y="563" type="line"/>
    </contour>
  </outline>
</glyph>
<glyph name="H" format="1">
  <advance width="382"/>
  <unicode hex="0048"/>
  <outline>
    <contour>
      <point x="288" y="340" type="line"/>
      <point x="99" y="340" type="line"/>
      <point x="99" y="281" type="line"/>
      <point x="288" y="281" type="line"/>
    </contour>
    <contour>
      <point x="55" y="622" type="line"/>
      <point x="55" y="0" type="line"/>
      <point x="124" y="0" type="line"/>
      <point x="124" y="622" type="line"/>
    </contour>
    <contour>
      <point x="258" y="622" type="line"/>
      <point x="258" y="0" type="line"/>
      <point x="327" y="0" type="line"/>
      <point x="327" y="622" type="line"/>
    </contour>
  </outline>
</glyph>
<glyph name="I" format="1">
  <advance width="198"/>
  <unicode hex="0049"/>
  <outline>
    <contour>
      <point x="65" y="622" type="line"/>
      <point x="65" y="0" type="line"/>
      <point x="133" y="0" type="line"/>
      <point x="133" y="622" type="line"/>
    </contour>
  </outline>
</glyph>
<glyph name="J" format="1">
  <advance width="301"/>
  <unicode hex="004A"/>
  <outline>
    <contour>
      <point x="15" y="192" type="line"/>
      <point x="15" y="79" type="line" smooth="yes"/>
      <point x="15" y="26"/>
      <point x="41" y="0"/>
      <point x="94" y="0" type="curve" smooth="yes"/>
      <point x="170" y="0" type="line" smooth="yes"/>
      <point x="223" y="0"/>
      <point x="249" y="26"/>
      <point x="249" y="79" type="curve" smooth="yes"/>
      <point x="249" y="622" type="line"/>
      <point x="180" y="622" type="line"/>
      <point x="180" y="90" type="line" smooth="yes"/>
      <point x="180" y="64"/>
      <point x="175" y="59"/>
      <point x="149" y="59" type="curve" smooth="yes"/>
      <point x="115" y="59" type="line" smooth="yes"/>
      <point x="89" y="59"/>
      <point x="84" y="64"/>
      <point x="84" y="90" type="curve" smooth="yes"/>
      <point x="84" y="192" type="line"/>
    </contour>
  </outline>
</glyph>
<glyph name="K" format="1">
  <advance width="345"/>
  <unicode hex="004B"/>
  <outline>
    <contour>
      <point x="130" y="308" type="line"/>
      <point x="259" y="0" type="line"/>
      <point x="333" y="0" type="line"/>
      <point x="201" y="308" type="line"/>
    </contour>
    <contour>
      <point x="201" y="308" type="line"/>
      <point x="335" y="622" type="line"/>
      <point x="261" y="622" type="line"/>
      <point x="130" y="308" type="line"/>
    </contour>
    <contour>
      <point x="55" y="622" type="line"/>
      <point x="55" y="0" type="line"/>
      <point x="123" y="0" type="line"/>
      <point x="123" y="622" type="line"/>
    </contour>
  </outline>
</glyph>
<glyph name="L" format="1">
  <advance width="271"/>
  <unicode hex="004C"/>
  <outline>
    <contour>
      <point x="55" y="622" type="line"/>
      <point x="55" y="0" type="line"/>
      <point x="123" y="0" type="line"/>
      <point x="123" y="622" type="line"/>
    </contour>
    <contour>
      <point x="96" y="0" type="line"/>
      <point x="266" y="0" type="line"/>
      <point x="266" y="59" type="line"/>
      <point x="96" y="59" type="line"/>
    </contour>
  </outline>
</glyph>
<glyph name="M" format="1">
  <advance width="475"/>
  <unicode hex="004D"/>
  <outline>
    <contour>
      <point x="274" y="135" type="line"/>
      <point x="361" y="471" type="line"/>
      <point x="361" y="0" type="line"/>
      <point x="420" y="0" type="line"/>
      <point x="420" y="622" type="line"/>
      <point x="345" y="622" type="line"/>
      <point x="237" y="222" type="line"/>
      <point x="130" y="622" type="line"/>
      <point x="55" y="622" type="line"/>
      <point x="55" y="0" type="line"/>
      <point x="114" y="0" type="line"/>
      <point x="114" y="471" type="line"/>
      <point x="201" y="135" type="line"/>
    </contour>
  </outline>
</glyph>
<glyph name="N" format="1">
  <advance width="377"/>
  <unicode hex="004E"/>
  <outline>
    <contour>
      <point x="259" y="622" type="line"/>
      <point x="259" y="157" type="line"/>
      <point x="135" y="622" type="line"/>
      <point x="55" y="622" type="line"/>
      <point x="55" y="0" type="line"/>
      <point x="118" y="0" type="line"/>
      <point x="118" y="482" type="line"/>
      <point x="247" y="0" type="line"/>
      <point x="322" y="0" type="line"/>
      <point x="322" y="622" type="line"/>
    </contour>
  </outline>
</glyph>
<glyph name="Q" format="1">
  <advance width="360"/>
  <unicode hex="0051"/>
  <outline>
    <contour>
      <point x="242" y="141" type="line"/>
      <point x="310" y="141" type="line"/>
      <point x="310" y="543" type="line" smooth="yes"/>
      <point x="310" y="596"/>
      <point x="284" y="622"/>
      <point x="231" y="622" type="curve" smooth="yes"/>
      <point x="177" y="622" type="line"/>
      <point x="177" y="563" type="line"/>
      <point x="211" y="563" type="line" smooth="yes"/>
      <point x="237" y="563"/>
      <point x="242" y="558"/>
      <point x="242" y="532" type="curve" smooth="yes"/>
    </contour>
    <contour>
      <point x="242" y="90" type="line"/>
      <point x="242" y="64"/>
      <point x="237" y="59"/>
      <point x="211" y="59" type="curve" smooth="yes"/>
      <point x="170" y="59" type="line"/>
      <point x="170" y="0" type="line"/>
      <point x="231" y="0" type="line" smooth="yes"/>
      <point x="284" y="0"/>
      <point x="310" y="26"/>
      <point x="310" y="79" type="curve" smooth="yes"/>
      <point x="310" y="191" type="line"/>
      <point x="242" y="191" type="line"/>
    </contour>
    <contour>
      <point x="118" y="532" type="line"/>
      <point x="118" y="558"/>
      <point x="123" y="563"/>
      <point x="149" y="563" type="curve" smooth="yes"/>
      <point x="183" y="563" type="line"/>
      <point x="183" y="622" type="line"/>
      <point x="129" y="622" type="line" smooth="yes"/>
      <point x="76" y="622"/>
      <point x="50" y="596"/>
      <point x="50" y="543" type="curve" smooth="yes"/>
      <point x="50" y="140" type="line"/>
      <point x="118" y="140" type="line"/>
    </contour>
    <contour>
      <point x="118" y="199" type="line"/>
      <point x="50" y="199" type="line"/>
      <point x="50" y="79" type="line" smooth="yes"/>
      <point x="50" y="26"/>
      <point x="76" y="0"/>
      <point x="129" y="0" type="curve" smooth="yes"/>
      <point x="180" y="0" type="line"/>
      <point x="180" y="59" type="line"/>
      <point x="149" y="59" type="line" smooth="yes"/>
      <point x="123" y="59"/>
      <point x="118" y="64"/>
      <point x="118" y="90" type="curve" smooth="yes"/>
    </contour>
    <contour>
      <point x="158" y="36" type="line"/>
      <point x="245" y="-97" type="line"/>
      <point x="313" y="-97" type="line"/>
      <point x="225" y="36" type="line"/>
    </contour>
  </outline>
</glyph>
<glyph name="U" format="1">
  <advance width="364"/>
  <unicode hex="0055"/>
  <outline>
    <contour>
      <point x="244" y="90" type="line"/>
      <point x="244" y="64"/>
      <point x="239" y="59"/>
      <point x="213" y="59" type="curve" smooth="yes"/>
      <point x="172" y="59" type="line"/>
      <point x="172" y="0" type="line"/>
      <point x="233" y="0" type="line" smooth="yes"/>
      <point x="286" y="0"/>
      <point x="312" y="26"/>
      <point x="312" y="79" type="curve" smooth="yes"/>
      <point x="312" y="622" type="line"/>
      <point x="244" y="622" type="line"/>
    </contour>
    <contour>
      <point x="120" y="622" type="line"/>
      <point x="52" y="622" type="line"/>
      <point x="52" y="79" type="line" smooth="yes"/>
      <point x="52" y="26"/>
      <point x="78" y="0"/>
      <point x="131" y="0" type="curve" smooth="yes"/>
      <point x="182" y="0" type="line"/>
      <point x="182" y="59" type="line"/>
      <point x="151" y="59" type="line" smooth="yes"/>
      <point x="125" y="59"/>
      <point x="120" y="64"/>
      <point x="120" y="90" type="curve" smooth="yes"/>
    </contour>
  </outline>
</glyph>
<glyph name="W" format="1">
  <advance width="549"/>
  <unicode hex="0057"/>
  <outline>
    <contour>
      <point x="470" y="622" type="line"/>
      <point x="394" y="48" type="line"/>
      <point x="315" y="622" type="line"/>
      <point x="233" y="622" type="line"/>
      <point x="154" y="48" type="line"/>
      <point x="79" y="622" type="line"/>
      <point x="10" y="622" type="line"/>
      <point x="101" y="0" type="line"/>
      <point x="205" y="0" type="line"/>
      <point x="274" y="493" type="line"/>
      <point x="344" y="0" type="line"/>
      <point x="448" y="0" type="line"/>
      <point x="539" y="622" type="line"/>
    </contour>
  </outline>
</glyph>
<glyph name="Y" format="1">
  <advance width="319"/>
  <unicode hex="0059"/>
  <outline>
    <contour>
      <point x="196" y="190" type="line"/>
      <point x="314" y="622" type="line"/>
      <point x="245" y="622" type="line"/>
      <point x="162" y="257" type="line"/>
      <point x="74" y="622" type="line"/>
      <point x="5" y="622" type="line"/>
      <point x="128" y="190" type="line"/>
    </contour>
    <contour>
      <point x="128" y="229" type="line"/>
      <point x="128" y="0" type="line"/>
      <point x="196" y="0" type="line"/>
      <point x="196" y="229" type="line"/>
    </contour>
  </outline>
</glyph>
<glyph name="bracketleft" format="1">
  <advance width="309"/>
  <unicode hex="005B"/>
  <outline>
    <contour>
      <point x="102" y="722" type="line"/>
      <point x="233" y="722" type="line"/>
      <point x="233" y="781" type="line"/>
      <point x="102" y="781" type="line"/>
    </contour>
    <contour>
      <point x="63" y="781" type="line"/>
      <point x="63" y="-167" type="line"/>
      <point x="132" y="-167" type="line"/>
      <point x="132" y="781" type="line"/>
    </contour>
    <contour>
      <point x="91" y="-167" type="line"/>
      <point x="233" y="-167" type="line"/>
      <point x="233" y="-108" type="line"/>
      <point x="91" y="-108" type="line"/>
    </contour>
  </outline>
</glyph>
<glyph name="bracketright" format="1">
  <advance width="309"/>
  <unicode hex="005D"/>
  <outline>
    <contour>
      <point x="184" y="781" type="line"/>
      <point x="53" y="781" type="line"/>
      <point x="53" y="722" type="line"/>
      <point x="184" y="722" type="line"/>
    </contour>
    <contour>
      <point x="154" y="781" type="line"/>
      <point x="154" y="-167" type="line"/>
      <point x="223" y="-167" type="line"/>
      <point x="223" y="781" type="line"/>
    </contour>
    <contour>
      <point x="195" y="-108" type="line"/>
      <point x="53" y="-108" type="line"/>
      <point x="53" y="-167" type="line"/>
      <point x="195" y="-167" type="line"/>
    </contour>
  </outline>
</glyph>
<glyph name="asciicircum" format="1">
  <advance width="443"/>
  <unicode hex="005E"/>
  <outline>
    <contour>
      <point x="180" y="671" type="line"/>
      <point x="45" y="327" type="line"/>
      <point x="117" y="327" type="line"/>
      <point x="221" y="604" type="line"/>
      <point x="326" y="327" type="line"/>
      <point x="398" y="327" type="line"/>
      <point x="263" y="671" type="line"/>
    </contour>
  </outline>
</glyph>
<glyph name="grave" format="1">
  <advance width="400"/>
  <unicode hex="0060"/>
  <outline>
    <contour>
      <point x="203" y="643" type="line"/>
      <point x="121" y="643" type="line"/>
      <point x="219" y="516" type="line"/>
      <point x="281" y="516" type="line"/>
    </contour>
  </outline>
</glyph>
<glyph name="a" format="1">
  <advance width="328"/>
  <unicode hex="0061"/>
  <outline>
    <contour>
      <point x="109" y="224" type="line"/>
      <point x="109" y="395" type="line" smooth="yes"/>
      <point x="109" y="421"/>
      <point x="114" y="426"/>
      <point x="140" y="426" type="curve" smooth="yes"/>
      <point x="180" y="426" type="line" smooth="yes"/>
      <point x="204" y="426"/>
      <point x="214" y="417"/>
      <point x="214" y="390" type="curve" smooth="yes"/>
      <point x="214" y="362" type="line"/>
      <point x="218" y="362" type="line"/>
      <point x="218" y="424" type="line" smooth="yes"/>
      <point x="218" y="469"/>
      <point x="194" y="485"/>
      <point x="159" y="485" type="curve" smooth="yes"/>
      <point x="119" y="485" type="line" smooth="yes"/>
      <point x="66" y="485"/>
      <point x="40" y="459"/>
      <point x="40" y="406" type="curve" smooth="yes"/>
      <point x="40" y="224" type="line"/>
    </contour>
    <contour>
      <point x="283" y="0" type="line"/>
      <point x="283" y="485" type="line"/>
      <point x="214" y="485" type="line"/>
      <point x="214" y="430" type="line"/>
      <point x="214" y="422" type="line"/>
      <point x="214" y="0" type="line"/>
    </contour>
    <contour>
      <point x="40" y="261" type="line"/>
      <point x="40" y="79" type="line" smooth="yes"/>
      <point x="40" y="26"/>
      <point x="66" y="0"/>
      <point x="119" y="0" type="curve" smooth="yes"/>
      <point x="159" y="0" type="line" smooth="yes"/>
      <point x="194" y="0"/>
      <point x="218" y="16"/>
      <point x="218" y="61" type="curve"/>
      <point x="218" y="121" type="line"/>
      <point x="214" y="121" type="line"/>
      <point x="214" y="95" type="line" smooth="yes"/>
      <point x="214" y="68"/>
      <point x="204" y="59"/>
      <point x="180" y="59" type="curve" smooth="yes"/>
      <point x="140" y="59" type="line" smooth="yes"/>
      <point x="114" y="59"/>
      <point x="109" y="64"/>
      <point x="109" y="90" type="curve" smooth="yes"/>
      <point x="109" y="261" type="line"/>
    </contour>
  </outline>
</glyph>
<glyph name="d" format="1">
  <advance width="328"/>
  <unicode hex="0064"/>
  <outline>
    <contour>
      <point x="109" y="225" type="line"/>
      <point x="109" y="396" type="line" smooth="yes"/>
      <point x="109" y="422"/>
      <point x="114" y="427"/>
      <point x="140" y="427" type="curve" smooth="yes"/>
      <point x="180" y="427" type="line" smooth="yes"/>
      <point x="204" y="427"/>
      <point x="214" y="418"/>
      <point x="214" y="391" type="curve" smooth="yes"/>
      <point x="214" y="357" type="line"/>
      <point x="218" y="357" type="line"/>
      <point x="218" y="425" type="line" smooth="yes"/>
      <point x="218" y="470"/>
      <point x="194" y="486"/>
      <point x="159" y="486" type="curve" smooth="yes"/>
      <point x="119" y="486" type="line" smooth="yes"/>
      <point x="66" y="486"/>
      <point x="40" y="460"/>
      <point x="40" y="407" type="curve" smooth="yes"/>
      <point x="40" y="225" type="line"/>
    </contour>
    <contour>
      <point x="214" y="669" type="line"/>
      <point x="214" y="60" type="line"/>
      <point x="214" y="53" type="line"/>
      <point x="214" y="0" type="line"/>
      <point x="283" y="0" type="line"/>
      <point x="283" y="669" type="line"/>
    </contour>
    <contour>
      <point x="40" y="262" type="line"/>
      <point x="40" y="79" type="line" smooth="yes"/>
      <point x="40" y="26"/>
      <point x="66" y="0"/>
      <point x="119" y="0" type="curve" smooth="yes"/>
      <point x="159" y="0" type="line" smooth="yes"/>
      <point x="194" y="0"/>
      <point x="218" y="16"/>
      <point x="218" y="61" type="curve" smooth="yes"/>
      <point x="218" y="117" type="line"/>
      <point x="214" y="118" type="line"/>
      <point x="214" y="95" type="line" smooth="yes"/>
      <point x="214" y="68"/>
      <point x="204" y="59"/>
      <point x="180" y="59" type="curve" smooth="yes"/>
      <point x="140" y="59" type="line" smooth="yes"/>
      <point x="114" y="59"/>
      <point x="109" y="64"/>
      <point x="109" y="90" type="curve" smooth="yes"/>
      <point x="109" y="262" type="line"/>
    </contour>
  </outline>
</glyph>
<glyph name="f" format="1">
  <advance width="197"/>
  <unicode hex="0066"/>
  <outline>
    <contour>
      <point x="122" y="574" type="line"/>
      <point x="122" y="600"/>
      <point x="127" y="605"/>
      <point x="153" y="605" type="curve" smooth="yes"/>
      <point x="192" y="605" type="line"/>
      <point x="192" y="669" type="line"/>
      <point x="132" y="669" type="line" smooth="yes"/>
      <point x="79" y="669"/>
      <point x="53" y="643"/>
      <point x="53" y="590" type="curve" smooth="yes"/>
      <point x="53" y="0" type="line"/>
      <point x="122" y="0" type="line"/>
    </contour>
    <contour>
      <point x="192" y="485" type="line"/>
      <point x="5" y="485" type="line"/>
      <point x="5" y="426" type="line"/>
      <point x="192" y="426" type="line"/>
    </contour>
  </outline>
</glyph>
<glyph name="i" format="1">
  <advance width="159"/>
  <unicode hex="0069"/>
  <outline>
    <contour>
      <point x="114" y="0" type="line"/>
      <point x="114" y="485" type="line"/>
      <point x="45" y="485" type="line"/>
      <point x="45" y="0" type="line"/>
    </contour>
    <contour>
      <point x="43" y="589" type="line"/>
      <point x="116" y="589" type="line"/>
      <point x="116" y="670" type="line"/>
      <point x="43" y="670" type="line"/>
    </contour>
  </outline>
</glyph>
<glyph name="j" format="1">
  <advance width="159"/>
  <unicode hex="006A"/>
  <outline>
    <contour>
      <point x="45" y="-51" type="line"/>
      <point x="45" y="-77"/>
      <point x="40" y="-82"/>
      <point x="14" y="-82" type="curve" smooth="yes"/>
      <point x="0" y="-82" type="line"/>
      <point x="0" y="-141" type="line"/>
      <point x="35" y="-141" type="line" smooth="yes"/>
      <point x="88" y="-141"/>
      <point x="114" y="-115"/>
      <point x="114" y="-62" type="curve" smooth="yes"/>
      <point x="114" y="485" type="line"/>
      <point x="45" y="485" type="line"/>
    </contour>
    <contour>
      <point x="43" y="589" type="line"/>
      <point x="116" y="589" type="line"/>
      <point x="116" y="670" type="line"/>
      <point x="43" y="670" type="line"/>
    </contour>
  </outline>
</glyph>
<glyph name="k" format="1">
  <advance width="325"/>
  <unicode hex="006B"/>
  <outline>
    <contour>
      <point x="114" y="0" type="line"/>
      <point x="114" y="669" type="line"/>
      <point x="45" y="669" type="line"/>
      <point x="45" y="0" type="line"/>
    </contour>
    <contour>
      <point x="136" y="256" type="line"/>
      <point x="246" y="0" type="line"/>
      <point x="320" y="0" type="line"/>
      <point x="207" y="256" type="line"/>
    </contour>
    <contour>
      <point x="207" y="256" type="line"/>
      <point x="320" y="485" type="line"/>
      <point x="246" y="485" type="line"/>
      <point x="136" y="256" type="line"/>
    </contour>
  </outline>
</glyph>
<glyph name="o" format="1">
  <advance width="340"/>
  <unicode hex="006F"/>
  <outline>
    <contour>
      <point x="232" y="141" type="line"/>
      <point x="300" y="141" type="line"/>
      <point x="300" y="406" type="line" smooth="yes"/>
      <point x="300" y="459"/>
      <point x="274" y="485"/>
      <point x="221" y="485" type="curve" smooth="yes"/>
      <point x="167" y="485" type="line"/>
      <point x="167" y="426" type="line"/>
      <point x="201" y="426" type="line" smooth="yes"/>
      <point x="227" y="426"/>
      <point x="232" y="421"/>
      <point x="232" y="395" type="curve" smooth="yes"/>
    </contour>
    <contour>
      <point x="232" y="90" type="line"/>
      <point x="232" y="64"/>
      <point x="227" y="59"/>
      <point x="201" y="59" type="curve" smooth="yes"/>
      <point x="160" y="59" type="line"/>
      <point x="160" y="0" type="line"/>
      <point x="221" y="0" type="line" smooth="yes"/>
      <point x="274" y="0"/>
      <point x="300" y="26"/>
      <point x="300" y="79" type="curve" smooth="yes"/>
      <point x="300" y="191" type="line"/>
      <point x="232" y="191" type="line"/>
    </contour>
    <contour>
      <point x="108" y="395" type="line"/>
      <point x="108" y="421"/>
      <point x="113" y="426"/>
      <point x="139" y="426" type="curve" smooth="yes"/>
      <point x="173" y="426" type="line"/>
      <point x="173" y="485" type="line"/>
      <point x="119" y="485" type="line" smooth="yes"/>
      <point x="66" y="485"/>
      <point x="40" y="459"/>
      <point x="40" y="406" type="curve" smooth="yes"/>
      <point x="40" y="140" type="line"/>
      <point x="108" y="140" type="line"/>
    </contour>
    <contour>
      <point x="108" y="199" type="line"/>
      <point x="40" y="199" type="line"/>
      <point x="40" y="79" type="line" smooth="yes"/>
      <point x="40" y="26"/>
      <point x="66" y="0"/>
      <point x="119" y="0" type="curve" smooth="yes"/>
      <point x="170" y="0" type="line"/>
      <point x="170" y="59" type="line"/>
      <point x="139" y="59" type="line" smooth="yes"/>
      <point x="113" y="59"/>
      <point x="108" y="64"/>
      <point x="108" y="90" type="curve" smooth="yes"/>
    </contour>
  </outline>
</glyph>
<glyph name="w" format="1">
  <advance width="507"/>
  <unicode hex="0077"/>
  <outline>
    <contour>
      <point x="436" y="485" type="line"/>
      <point x="363" y="48" type="line"/>
      <point x="301" y="485" type="line"/>
      <point x="206" y="485" type="line"/>
      <point x="143" y="48" type="line"/>
      <point x="71" y="485" type="line"/>
      <point x="5" y="485" type="line"/>
      <point x="91" y="0" type="line"/>
      <point x="196" y="0" type="line"/>
      <point x="253" y="389" type="line"/>
      <point x="311" y="0" type="line"/>
      <point x="416" y="0" type="line"/>
      <point x="502" y="485" type="line"/>
    </contour>
  </outline>
</glyph>
<glyph name="x" format="1">
  <advance width="314"/>
  <unicode hex="0078"/>
  <outline>
    <contour>
      <point x="188" y="248" type="line"/>
      <point x="299" y="485" type="line"/>
      <point x="225" y="485" type="line"/>
      <point x="158" y="320" type="line"/>
      <point x="89" y="485" type="line"/>
      <point x="15" y="485" type="line"/>
      <point x="126" y="248" type="line"/>
      <point x="5" y="0" type="line"/>
      <point x="79" y="0" type="line"/>
      <point x="157" y="175" type="line"/>
      <point x="235" y="0" type="line"/>
      <point x="309" y="0" type="line"/>
    </contour>
  </outline>
</glyph>
<glyph name="bar" format="1">
  <advance width="179"/>
  <unicode hex="007C"/>
  <outline>
    <contour>
      <point x="55" y="719" type="line"/>
      <point x="55" y="-98" type="line"/>
      <point x="124" y="-98" type="line"/>
      <point x="124" y="719" type="line"/>
    </contour>
  </outline>
</glyph>
<glyph name="braceright" format="1">
  <advance width="271"/>
  <unicode hex="007D"/>
  <outline>
    <contour>
      <point x="90" y="428" type="line"/>
      <point x="90" y="358"/>
      <point x="114" y="314"/>
      <point x="165" y="308" type="curve"/>
      <point x="114" y="301"/>
      <point x="90" y="257"/>
      <point x="90" y="189" type="curve" smooth="yes"/>
      <point x="90" y="-74" type="line" smooth="yes"/>
      <point x="90" y="-98"/>
      <point x="82" y="-107"/>
      <point x="56" y="-107" type="curve" smooth="yes"/>
      <point x="6" y="-107" type="line"/>
      <point x="6" y="-166" type="line"/>
      <point x="89" y="-166" type="line" smooth="yes"/>
      <point x="145" y="-166"/>
      <point x="158" y="-136"/>
      <point x="158" y="-88" type="curve" smooth="yes"/>
      <point x="158" y="163" type="line"/>
      <point x="158" y="243"/>
      <point x="185" y="279"/>
      <point x="246" y="279" type="curve" smooth="yes"/>
      <point x="265" y="279" type="line"/>
      <point x="265" y="337" type="line"/>
      <point x="246" y="337" type="line" smooth="yes"/>
      <point x="185" y="337"/>
      <point x="158" y="373"/>
      <point x="158" y="454" type="curve" smooth="yes"/>
      <point x="158" y="703" type="line" smooth="yes"/>
      <point x="158" y="750"/>
      <point x="145" y="781"/>
      <point x="89" y="781" type="curve" smooth="yes"/>
      <point x="6" y="781" type="line"/>
      <point x="6" y="722" type="line"/>
      <point x="56" y="722" type="line" smooth="yes"/>
      <point x="82" y="722"/>
      <point x="90" y="713"/>
      <point x="90" y="689" type="curve"/>
    </contour>
  </outline>
</glyph>
<glyph name="sterling" format="1">
  <advance width="355"/>
  <unicode hex="00A3"/>
  <outline>
    <contour>
      <point x="153" y="532" type="line"/>
      <point x="153" y="558"/>
      <point x="158" y="563"/>
      <point x="184" y="563" type="curve"/>
      <point x="227" y="563" type="line" smooth="yes"/>
      <point x="253" y="563"/>
      <point x="258" y="558"/>
      <point x="258" y="532" type="curve" smooth="yes"/>
      <point x="258" y="452" type="line"/>
      <point x="326" y="452" type="line"/>
      <point x="326" y="543" type="line" smooth="yes"/>
      <point x="326" y="596"/>
      <point x="300" y="622"/>
      <point x="247" y="622" type="curve" smooth="yes"/>
      <point x="163" y="622" type="line" smooth="yes"/>
      <point x="110" y="622"/>
      <point x="84" y="596"/>
      <point x="84" y="543" type="curve" smooth="yes"/>
      <point x="84" y="157" type="line" smooth="yes"/>
      <point x="84" y="89"/>
      <point x="70" y="59"/>
      <point x="35" y="59" type="curve"/>
      <point x="35" y="0" type="line"/>
      <point x="330" y="0" type="line"/>
      <point x="330" y="59" type="line"/>
      <point x="127" y="59" type="line"/>
      <point x="151" y="74"/>
      <point x="153" y="104"/>
      <point x="153" y="142" type="curve" smooth="yes"/>
    </contour>
    <contour>
      <point x="35" y="273" type="line"/>
      <point x="280" y="273" type="line"/>
      <point x="280" y="332" type="line"/>
      <point x="35" y="332" type="line"/>
    </contour>
  </outline>
</glyph>
<glyph name="currency" format="1">
  <advance width="454"/>
  <unicode hex="00A4"/>
  <outline>
    <contour>
      <point x="368" y="407" type="line"/>
      <point x="368" y="460"/>
      <point x="342" y="486"/>
      <point x="289" y="486" type="curve" smooth="yes"/>
      <point x="187" y="486" type="line" smooth="yes"/>
      <point x="134" y="486"/>
      <point x="108" y="460"/>
      <point x="108" y="407" type="curve" smooth="yes"/>
      <point x="108" y="190" type="line" smooth="yes"/>
      <point x="108" y="137"/>
      <point x="134" y="111"/>
      <point x="187" y="111" type="curve" smooth="yes"/>
      <point x="289" y="111" type="line" smooth="yes"/>
      <point x="342" y="111"/>
      <point x="368" y="137"/>
      <point x="368" y="190" type="curve" smooth="yes"/>
    </contour>
    <contour>
      <point x="207" y="170" type="line"/>
      <point x="181" y="170"/>
      <point x="176" y="175"/>
      <point x="176" y="201" type="curve" smooth="yes"/>
      <point x="176" y="396" type="line" smooth="yes"/>
      <point x="176" y="422"/>
      <point x="181" y="427"/>
      <point x="207" y="427" type="curve" smooth="yes"/>
      <point x="269" y="427" type="line" smooth="yes"/>
      <point x="295" y="427"/>
      <point x="300" y="422"/>
      <point x="300" y="396" type="curve" smooth="yes"/>
      <point x="300" y="201" type="line" smooth="yes"/>
      <point x="300" y="175"/>
      <point x="295" y="170"/>
      <point x="269" y="170" type="curve" smooth="yes"/>
    </contour>
    <contour>
      <point x="192" y="452" type="line"/>
      <point x="111" y="532" type="line"/>
      <point x="65" y="486" type="line"/>
      <point x="146" y="406" type="line"/>
    </contour>
    <contour>
      <point x="322" y="406" type="line"/>
      <point x="403" y="486" type="line"/>
      <point x="357" y="532" type="line"/>
      <point x="276" y="452" type="line"/>
    </contour>
    <contour>
      <point x="146" y="193" type="line"/>
      <point x="65" y="113" type="line"/>
      <point x="111" y="67" type="line"/>
      <point x="192" y="147" type="line"/>
    </contour>
    <contour>
      <point x="276" y="147" type="line"/>
      <point x="357" y="67" type="line"/>
      <point x="403" y="113" type="line"/>
      <point x="322" y="193" type="line"/>
    </contour>
  </outline>
</glyph>
<glyph name="yen" format="1">
  <advance width="344"/>
  <unicode hex="00A5"/>
  <outline>
    <contour>
      <point x="142" y="340" type="line"/>
      <point x="17" y="340" type="line"/>
      <point x="17" y="281" type="line"/>
      <point x="142" y="281" type="line"/>
    </contour>
    <contour>
      <point x="327" y="340" type="line"/>
      <point x="213" y="340" type="line"/>
      <point x="213" y="281" type="line"/>
      <point x="327" y="281" type="line"/>
    </contour>
    <contour>
      <point x="327" y="215" type="line"/>
      <point x="17" y="215" type="line"/>
      <point x="17" y="159" type="line"/>
      <point x="327" y="159" type="line"/>
    </contour>
    <contour>
      <point x="206" y="190" type="line"/>
      <point x="329" y="622" type="line"/>
      <point x="261" y="622" type="line"/>
      <point x="172" y="275" type="line"/>
      <point x="83" y="622" type="line"/>
      <point x="15" y="622" type="line"/>
      <point x="138" y="190" type="line"/>
    </contour>
    <contour>
      <point x="138" y="229" type="line"/>
      <point x="138" y="0" type="line"/>
      <point x="206" y="0" type="line"/>
      <point x="206" y="229" type="line"/>
    </contour>
  </outline>
</glyph>
<glyph name="brokenbar" format="1">
  <advance width="179"/>
  <unicode hex="00A6"/>
  <outline>
    <contour>
      <point x="55" y="247" type="line"/>
      <point x="55" y="-98" type="line"/>
      <point x="124" y="-98" type="line"/>
      <point x="124" y="247" type="line"/>
    </contour>
    <contour>
      <point x="124" y="374" type="line"/>
      <point x="124" y="719" type="line"/>
      <point x="55" y="719" type="line"/>
      <point x="55" y="374" type="line"/>
    </contour>
  </outline>
</glyph>
<glyph name="section" format="1">
  <advance width="387"/>
  <unicode hex="00A7"/>
  <outline>
    <contour>
      <point x="213" y="203" type="line"/>
      <point x="268" y="203" type="line" smooth="yes"/>
      <point x="321" y="203"/>
      <point x="337" y="239"/>
      <point x="337" y="292" type="curve" smooth="yes"/>
      <point x="337" y="375" type="line" smooth="yes"/>
      <point x="337" y="428"/>
      <point x="311" y="454"/>
      <point x="258" y="454" type="curve" smooth="yes"/>
      <point x="190" y="454" type="line" smooth="yes"/>
      <point x="164" y="454"/>
      <point x="159" y="459"/>
      <point x="159" y="485" type="curve" smooth="yes"/>
      <point x="159" y="578" type="line" smooth="yes"/>
      <point x="159" y="604"/>
      <point x="164" y="609"/>
      <point x="190" y="609" type="curve" smooth="yes"/>
      <point x="236" y="609" type="line" smooth="yes"/>
      <point x="262" y="609"/>
      <point x="267" y="604"/>
      <point x="267" y="578" type="curve" smooth="yes"/>
      <point x="267" y="540" type="line"/>
      <point x="336" y="540" type="line"/>
      <point x="336" y="589" type="line" smooth="yes"/>
      <point x="336" y="642"/>
      <point x="310" y="668"/>
      <point x="257" y="668" type="curve" smooth="yes"/>
      <point x="169" y="668" type="line" smooth="yes"/>
      <point x="116" y="668"/>
      <point x="90" y="642"/>
      <point x="90" y="589" type="curve" smooth="yes"/>
      <point x="90" y="474" type="line" smooth="yes"/>
      <point x="90" y="421"/>
      <point x="116" y="395"/>
      <point x="169" y="395" type="curve" smooth="yes"/>
      <point x="237" y="395" type="line" smooth="yes"/>
      <point x="263" y="395"/>
      <point x="268" y="390"/>
      <point x="268" y="364" type="curve" smooth="yes"/>
      <point x="268" y="273" type="line" smooth="yes"/>
      <point x="268" y="247"/>
      <point x="263" y="242"/>
      <point x="237" y="242" type="curve" smooth="yes"/>
      <point x="213" y="242" type="line"/>
    </contour>
    <contour>
      <point x="174" y="434" type="line"/>
      <point x="119" y="434" type="line" smooth="yes"/>
      <point x="66" y="434"/>
      <point x="50" y="398"/>
      <point x="50" y="345" type="curve" smooth="yes"/>
      <point x="50" y="262" type="line" smooth="yes"/>
      <point x="50" y="209"/>
      <point x="76" y="183"/>
      <point x="129" y="183" type="curve" smooth="yes"/>
      <point x="197" y="183" type="line" smooth="yes"/>
      <point x="223" y="183"/>
      <point x="228" y="178"/>
      <point x="228" y="152" type="curve" smooth="yes"/>
      <point x="228" y="59" type="line" smooth="yes"/>
      <point x="228" y="33"/>
      <point x="223" y="28"/>
      <point x="197" y="28" type="curve" smooth="yes"/>
      <point x="151" y="28" type="line" smooth="yes"/>
      <point x="125" y="28"/>
      <point x="120" y="33"/>
      <point x="120" y="59" type="curve" smooth="yes"/>
      <point x="120" y="97" type="line"/>
      <point x="51" y="97" type="line"/>
      <point x="51" y="48" type="line" smooth="yes"/>
      <point x="51" y="-5"/>
      <point x="77" y="-31"/>
      <point x="130" y="-31" type="curve" smooth="yes"/>
      <point x="218" y="-31" type="line" smooth="yes"/>
      <point x="271" y="-31"/>
      <point x="297" y="-5"/>
      <point x="297" y="48" type="curve" smooth="yes"/>
      <point x="297" y="163" type="line" smooth="yes"/>
      <point x="297" y="216"/>
      <point x="271" y="242"/>
      <point x="218" y="242" type="curve" smooth="yes"/>
      <point x="150" y="242" type="line" smooth="yes"/>
      <point x="124" y="242"/>
      <point x="119" y="247"/>
      <point x="119" y="273" type="curve" smooth="yes"/>
      <point x="119" y="364" type="line" smooth="yes"/>
      <point x="119" y="390"/>
      <point x="124" y="395"/>
      <point x="150" y="395" type="curve" smooth="yes"/>
      <point x="174" y="395" type="line"/>
    </contour>
  </outline>
</glyph>
<glyph name="dieresis" format="1">
  <advance width="400"/>
  <unicode hex="00A8"/>
  <outline>
    <contour>
      <point x="68" y="541" type="line"/>
      <point x="156" y="541" type="line"/>
      <point x="156" y="625" type="line"/>
      <point x="68" y="625" type="line"/>
    </contour>
    <contour>
      <point x="244" y="541" type="line"/>
      <point x="332" y="541" type="line"/>
      <point x="332" y="625" type="line"/>
      <point x="244" y="625" type="line"/>
    </contour>
  </outline>
</glyph>
<glyph name="copyright" format="1">
  <advance width="682"/>
  <unicode hex="00A9"/>
  <outline>
    <contour>
      <point x="651" y="342" type="line"/>
      <point x="651" y="527"/>
      <point x="588" y="622"/>
      <point x="445" y="622" type="curve" smooth="yes"/>
      <point x="255" y="622" type="line" smooth="yes"/>
      <point x="112" y="622"/>
      <point x="49" y="527"/>
      <point x="49" y="342" type="curve" smooth="yes"/>
      <point x="49" y="271" type="line" smooth="yes"/>
      <point x="49" y="86"/>
      <point x="112" y="0"/>
      <point x="255" y="0" type="curve" smooth="yes"/>
      <point x="445" y="0" type="line" smooth="yes"/>
      <point x="588" y="0"/>
      <point x="651" y="86"/>
      <point x="651" y="271" type="curve" smooth="yes"/>
    </contour>
    <contour>
      <point x="257" y="60" type="line"/>
      <point x="146" y="60"/>
      <point x="116" y="152"/>
      <point x="116" y="270" type="curve" smooth="yes"/>
      <point x="116" y="343" type="line" smooth="yes"/>
      <point x="116" y="461"/>
      <point x="146" y="564"/>
      <point x="257" y="564" type="curve" smooth="yes"/>
      <point x="443" y="564" type="line" smooth="yes"/>
      <point x="554" y="564"/>
      <point x="584" y="461"/>
      <point x="584" y="343" type="curve" smooth="yes"/>
      <point x="584" y="270" type="line" smooth="yes"/>
      <point x="584" y="152"/>
      <point x="554" y="60"/>
      <point x="443" y="60" type="curve" smooth="yes"/>
    </contour>
    <contour>
      <point x="406" y="240" type="line"/>
      <point x="406" y="214"/>
      <point x="401" y="209"/>
      <point x="375" y="209" type="curve" smooth="yes"/>
      <point x="325" y="209" type="line" smooth="yes"/>
      <point x="299" y="209"/>
      <point x="294" y="214"/>
      <point x="294" y="240" type="curve" smooth="yes"/>
      <point x="294" y="395" type="line" smooth="yes"/>
      <point x="294" y="421"/>
      <point x="299" y="426"/>
      <point x="325" y="426" type="curve" smooth="yes"/>
      <point x="375" y="426" type="line" smooth="yes"/>
      <point x="401" y="426"/>
      <point x="406" y="421"/>
      <point x="406" y="395" type="curve" smooth="yes"/>
      <point x="406" y="371" type="line"/>
      <point x="475" y="371" type="line"/>
      <point x="475" y="406" type="line" smooth="yes"/>
      <point x="475" y="459"/>
      <point x="449" y="485"/>
      <point x="396" y="485" type="curve" smooth="yes"/>
      <point x="304" y="485" type="line" smooth="yes"/>
      <point x="251" y="485"/>
      <point x="225" y="459"/>
      <point x="225" y="406" type="curve" smooth="yes"/>
      <point x="225" y="229" type="line" smooth="yes"/>
      <point x="225" y="176"/>
      <point x="251" y="150"/>
      <point x="304" y="150" type="curve" smooth="yes"/>
      <point x="396" y="150" type="line" smooth="yes"/>
      <point x="449" y="150"/>
      <point x="475" y="176"/>
      <point x="475" y="229" type="curve" smooth="yes"/>
      <point x="475" y="264" type="line"/>
      <point x="406" y="264" type="line"/>
    </contour>
  </outline>
</glyph>
<glyph name="ordfeminine" format="1">
  <advance width="236"/>
  <unicode hex="00AA"/>
  <outline>
    <contour>
      <point x="73" y="438" type="line"/>
      <point x="73" y="558" type="line" smooth="yes"/>
      <point x="73" y="577"/>
      <point x="77" y="580"/>
      <point x="96" y="580" type="curve" smooth="yes"/>
      <point x="133" y="580" type="line" smooth="yes"/>
      <point x="150" y="580"/>
      <point x="157" y="573"/>
      <point x="157" y="554" type="curve" smooth="yes"/>
      <point x="157" y="534" type="line"/>
      <point x="160" y="534" type="line"/>
      <point x="160" y="578" type="line" smooth="yes"/>
      <point x="160" y="610"/>
      <point x="143" y="622"/>
      <point x="118" y="622" type="curve" smooth="yes"/>
      <point x="81" y="622" type="line" smooth="yes"/>
      <point x="43" y="622"/>
      <point x="25" y="604"/>
      <point x="25" y="566" type="curve" smooth="yes"/>
      <point x="25" y="438" type="line"/>
    </contour>
    <contour>
      <point x="206" y="280" type="line"/>
      <point x="206" y="622" type="line"/>
      <point x="157" y="622" type="line"/>
      <point x="157" y="582" type="line"/>
      <point x="157" y="577" type="line"/>
      <point x="157" y="280" type="line"/>
    </contour>
    <contour>
      <point x="25" y="465" type="line"/>
      <point x="25" y="336" type="line" smooth="yes"/>
      <point x="25" y="298"/>
      <point x="43" y="280"/>
      <point x="81" y="280" type="curve" smooth="yes"/>
      <point x="118" y="280" type="line" smooth="yes"/>
      <point x="143" y="280"/>
      <point x="160" y="292"/>
      <point x="160" y="324" type="curve" smooth="yes"/>
      <point x="160" y="366" type="line"/>
      <point x="157" y="366" type="line"/>
      <point x="157" y="348" type="line" smooth="yes"/>
      <point x="157" y="329"/>
      <point x="150" y="323"/>
      <point x="133" y="323" type="curve" smooth="yes"/>
      <point x="96" y="323" type="line" smooth="yes"/>
      <point x="77" y="323"/>
      <point x="73" y="327"/>
      <point x="73" y="345" type="curve" smooth="yes"/>
      <point x="73" y="465" type="line"/>
    </contour>
  </outline>
</glyph>
<glyph name="guillemotleft" format="1">
  <advance width="487"/>
  <unicode hex="00AB"/>
  <outline>
    <contour>
      <point x="164" y="106" type="line"/>
      <point x="241" y="106" type="line"/>
      <point x="117" y="261" type="line"/>
      <point x="241" y="418" type="line"/>
      <point x="164" y="418" type="line"/>
      <point x="43" y="262" type="line"/>
    </contour>
    <contour>
      <point x="364" y="106" type="line"/>
      <point x="441" y="106" type="line"/>
      <point x="317" y="261" type="line"/>
      <point x="441" y="418" type="line"/>
      <point x="364" y="418" type="line"/>
      <point x="243" y="262" type="line"/>
    </contour>
  </outline>
</glyph>
<glyph name="logicalnot" format="1">
  <advance width="432"/>
  <unicode hex="00AC"/>
  <outline>
    <contour>
      <point x="392" y="395" type="line"/>
      <point x="30" y="395" type="line"/>
      <point x="30" y="327" type="line"/>
      <point x="392" y="327" type="line"/>
    </contour>
    <contour>
      <point x="392" y="177" type="line"/>
      <point x="392" y="395" type="line"/>
      <point x="333" y="395" type="line"/>
      <point x="333" y="177" type="line"/>
    </contour>
  </outline>
</glyph>
<glyph name="macron" format="1">
  <advance width="400"/>
  <unicode hex="00AF"/>
  <outline>
    <contour>
      <point x="82" y="550" type="line"/>
      <point x="318" y="550" type="line"/>
      <point x="318" y="608" type="line"/>
      <point x="82" y="608" type="line"/>
    </contour>
  </outline>
</glyph>
<glyph name="degree" format="1">
  <advance width="356"/>
  <unicode hex="00B0"/>
  <outline>
    <contour>
      <point x="292" y="545" type="line"/>
      <point x="292" y="597"/>
      <point x="267" y="622"/>
      <point x="215" y="622" type="curve" smooth="yes"/>
      <point x="135" y="622" type="line" smooth="yes"/>
      <point x="83" y="622"/>
      <point x="58" y="597"/>
      <point x="58" y="545" type="curve" smooth="yes"/>
      <point x="58" y="430" type="line" smooth="yes"/>
      <point x="58" y="378"/>
      <point x="83" y="353"/>
      <point x="135" y="353" type="curve" smooth="yes"/>
      <point x="215" y="353" type="line" smooth="yes"/>
      <point x="267" y="353"/>
      <point x="292" y="378"/>
      <point x="292" y="430" type="curve"/>
    </contour>
    <contour>
      <point x="228" y="439" type="line"/>
      <point x="228" y="414"/>
      <point x="223" y="409"/>
      <point x="197" y="409" type="curve" smooth="yes"/>
      <point x="153" y="409" type="line" smooth="yes"/>
      <point x="127" y="409"/>
      <point x="122" y="414"/>
      <point x="122" y="439" type="curve" smooth="yes"/>
      <point x="122" y="536" type="line" smooth="yes"/>
      <point x="122" y="561"/>
      <point x="127" y="566"/>
      <point x="153" y="566" type="curve" smooth="yes"/>
      <point x="197" y="566" type="line" smooth="yes"/>
      <point x="223" y="566"/>
      <point x="228" y="561"/>
      <point x="228" y="536" type="curve"/>
    </contour>
  </outline>
</glyph>
<glyph name="twosuperior" format="1">
  <advance width="179"/>
  <unicode hex="00B2"/>
  <outline>
    <contour>
      <point x="61" y="563" type="line"/>
      <point x="61" y="577"/>
      <point x="64" y="580"/>
      <point x="78" y="580" type="curve"/>
      <point x="98" y="580" type="line" smooth="yes"/>
      <point x="112" y="580"/>
      <point x="115" y="577"/>
      <point x="115" y="563" type="curve" smooth="yes"/>
      <point x="115" y="551" type="line" smooth="yes"/>
      <point x="115" y="524"/>
      <point x="112" y="504"/>
      <point x="100" y="482" type="curve"/>
      <point x="14" y="324" type="line"/>
      <point x="14" y="280" type="line"/>
      <point x="166" y="280" type="line"/>
      <point x="166" y="325" type="line"/>
      <point x="68" y="325" type="line"/>
      <point x="147" y="471" type="line" smooth="yes"/>
      <point x="160" y="496"/>
      <point x="163" y="521"/>
      <point x="163" y="548" type="curve" smooth="yes"/>
      <point x="163" y="579" type="line" smooth="yes"/>
      <point x="163" y="608"/>
      <point x="149" y="622"/>
      <point x="120" y="622" type="curve" smooth="yes"/>
      <point x="57" y="622" type="line" smooth="yes"/>
      <point x="28" y="622"/>
      <point x="14" y="608"/>
      <point x="14" y="579" type="curve" smooth="yes"/>
      <point x="14" y="512" type="line"/>
      <point x="61" y="512" type="line"/>
    </contour>
  </outline>
</glyph>
<glyph name="acute" format="1">
  <advance width="400"/>
  <unicode hex="00B4"/>
  <outline>
    <contour>
      <point x="118" y="516" type="line"/>
      <point x="180" y="516" type="line"/>
      <point x="278" y="643" type="line"/>
      <point x="196" y="643" type="line"/>
    </contour>
  </outline>
</glyph>
<glyph name="mu.math" format="1">
  <advance width="339"/>
  <unicode hex="00B5"/>
  <outline>
    <contour>
      <point x="40" y="485" type="line"/>
      <point x="40" y="79" type="line" smooth="yes"/>
      <point x="40" y="26"/>
      <point x="66" y="0"/>
      <point x="119" y="0" type="curve" smooth="yes"/>
      <point x="159" y="0" type="line" smooth="yes"/>
      <point x="194" y="0"/>
      <point x="218" y="16"/>
      <point x="218" y="61" type="curve" smooth="yes"/>
      <point x="218" y="129" type="line"/>
      <point x="214" y="129" type="line"/>
      <point x="214" y="95" type="line" smooth="yes"/>
      <point x="214" y="68"/>
      <point x="204" y="59"/>
      <point x="180" y="59" type="curve" smooth="yes"/>
      <point x="140" y="59" type="line" smooth="yes"/>
      <point x="114" y="59"/>
      <point x="109" y="64"/>
      <point x="109" y="90" type="curve" smooth="yes"/>
      <point x="109" y="485" type="line"/>
    </contour>
    <contour>
      <point x="214" y="485" type="line"/>
      <point x="214" y="59" type="line"/>
      <point x="214" y="52" type="line"/>
      <point x="214" y="0" type="line"/>
      <point x="283" y="0" type="line"/>
      <point x="283" y="485" type="line"/>
    </contour>
    <contour>
      <point x="40" y="435" type="line"/>
      <point x="40" y="-141" type="line"/>
      <point x="109" y="-141" type="line"/>
      <point x="109" y="435" type="line"/>
    </contour>
  </outline>
</glyph>
<glyph name="paragraph" format="1">
  <advance width="490"/>
  <unicode hex="00B6"/>
  <outline>
    <contour>
      <point x="243" y="622" type="line"/>
      <point x="134" y="622" type="line" smooth="yes"/>
      <point x="81" y="622"/>
      <point x="55" y="596"/>
      <point x="55" y="543" type="curve" smooth="yes"/>
      <point x="55" y="309" type="line" smooth="yes"/>
      <point x="55" y="256"/>
      <point x="81" y="230"/>
      <point x="134" y="230" type="curve" smooth="yes"/>
      <point x="243" y="230" type="line"/>
    </contour>
    <contour>
      <point x="207" y="622" type="line"/>
      <point x="207" y="-141" type="line"/>
      <point x="275" y="-141" type="line"/>
      <point x="275" y="622" type="line"/>
    </contour>
    <contour>
      <point x="357" y="622" type="line"/>
      <point x="357" y="-141" type="line"/>
      <point x="425" y="-141" type="line"/>
      <point x="425" y="622" type="line"/>
    </contour>
  </outline>
</glyph>
<glyph name="periodcentered" format="1">
  <advance width="202"/>
  <unicode hex="00B7"/>
  <outline>
    <contour>
      <point x="30" y="259" type="line"/>
      <point x="112" y="259" type="line"/>
      <point x="112" y="371" type="line"/>
      <point x="30" y="371" type="line"/>
    </contour>
  </outline>
</glyph>
<glyph name="cedilla" format="1">
  <advance width="400"/>
  <unicode hex="00B8"/>
  <outline>
    <contour>
      <point x="208" y="-73" type="line"/>
      <point x="208" y="-99"/>
      <point x="199" y="-110"/>
      <point x="173" y="-110" type="curve" smooth="yes"/>
      <point x="136" y="-110" type="line"/>
      <point x="136" y="-168" type="line"/>
      <point x="184" y="-168" type="line" smooth="yes"/>
      <point x="238" y="-168"/>
      <point x="273" y="-140"/>
      <point x="273" y="-79" type="curve" smooth="yes"/>
      <point x="273" y="-51" type="line"/>
      <point x="208" y="-51" type="line"/>
    </contour>
  </outline>
</glyph>
<glyph name="ordmasculine" format="1">
  <advance width="226"/>
  <unicode hex="00BA"/>
  <outline>
    <contour>
      <point x="152" y="379" type="line"/>
      <point x="200" y="379" type="line"/>
      <point x="200" y="566" type="line" smooth="yes"/>
      <point x="200" y="604"/>
      <point x="181" y="622"/>
      <point x="144" y="622" type="curve" smooth="yes"/>
      <point x="115" y="622" type="line"/>
      <point x="115" y="580" type="line"/>
      <point x="129" y="580" type="line" smooth="yes"/>
      <point x="148" y="580"/>
      <point x="152" y="577"/>
      <point x="152" y="558" type="curve" smooth="yes"/>
    </contour>
    <contour>
      <point x="152" y="344" type="line"/>
      <point x="152" y="326"/>
      <point x="148" y="322"/>
      <point x="129" y="322" type="curve" smooth="yes"/>
      <point x="110" y="322" type="line"/>
      <point x="110" y="280" type="line"/>
      <point x="144" y="280" type="line" smooth="yes"/>
      <point x="181" y="280"/>
      <point x="200" y="298"/>
      <point x="200" y="336" type="curve" smooth="yes"/>
      <point x="200" y="415" type="line"/>
      <point x="152" y="415" type="line"/>
    </contour>
    <contour>
      <point x="74" y="558" type="line"/>
      <point x="74" y="577"/>
      <point x="77" y="580"/>
      <point x="96" y="580" type="curve" smooth="yes"/>
      <point x="129" y="580" type="line"/>
      <point x="129" y="622" type="line"/>
      <point x="82" y="622" type="line" smooth="yes"/>
      <point x="44" y="622"/>
      <point x="26" y="604"/>
      <point x="26" y="566" type="curve" smooth="yes"/>
      <point x="26" y="379" type="line"/>
      <point x="74" y="379" type="line"/>
    </contour>
    <contour>
      <point x="74" y="420" type="line"/>
      <point x="26" y="420" type="line"/>
      <point x="26" y="336" type="line" smooth="yes"/>
      <point x="26" y="298"/>
      <point x="44" y="280"/>
      <point x="82" y="280" type="curve" smooth="yes"/>
      <point x="127" y="280" type="line"/>
      <point x="127" y="322" type="line"/>
      <point x="96" y="322" type="line" smooth="yes"/>
      <point x="77" y="322"/>
      <point x="74" y="326"/>
      <point x="74" y="344" type="curve" smooth="yes"/>
    </contour>
  </outline>
</glyph>
<glyph name="AE" format="1">
  <advance width="528"/>
  <unicode hex="00C6"/>
  <outline>
    <contour>
      <point x="304" y="622" type="line"/>
      <point x="240" y="622" type="line"/>
      <point x="14" y="0" type="line"/>
      <point x="83" y="0" type="line"/>
    </contour>
    <contour>
      <point x="279" y="217" type="line"/>
      <point x="105" y="217" type="line"/>
      <point x="105" y="158" type="line"/>
      <point x="279" y="158" type="line"/>
    </contour>
    <contour>
      <point x="264" y="622" type="line"/>
      <point x="264" y="0" type="line"/>
      <point x="333" y="0" type="line"/>
      <point x="333" y="622" type="line"/>
    </contour>
    <contour>
      <point x="504" y="59" type="line"/>
      <point x="308" y="59" type="line"/>
      <point x="308" y="0" type="line"/>
      <point x="504" y="0" type="line"/>
    </contour>
    <contour>
      <point x="467" y="353" type="line"/>
      <point x="308" y="353" type="line"/>
      <point x="308" y="294" type="line"/>
      <point x="467" y="294" type="line"/>
    </contour>
    <contour>
      <point x="497" y="622" type="line"/>
      <point x="308" y="622" type="line"/>
      <point x="308" y="563" type="line"/>
      <point x="497" y="563" type="line"/>
    </contour>
  </outline>
</glyph>
<glyph name="multiply" format="1">
  <advance width="350"/>
  <unicode hex="00D7"/>
  <outline>
    <contour>
      <point x="325" y="206" type="line"/>
      <point x="70" y="461" type="line"/>
      <point x="25" y="416" type="line"/>
      <point x="280" y="161" type="line"/>
    </contour>
    <contour>
      <point x="280" y="461" type="line"/>
      <point x="25" y="206" type="line"/>
      <point x="70" y="161" type="line"/>
      <point x="325" y="416" type="line"/>
    </contour>
  </outline>
</glyph>
<glyph name="Oslash" format="1">
  <advance width="370"/>
  <unicode hex="00D8"/>
  <outline>
    <contour>
      <point x="315" y="543" type="line"/>
      <point x="315" y="596"/>
      <point x="289" y="622"/>
      <point x="236" y="622" type="curve" smooth="yes"/>
      <point x="134" y="622" type="line" smooth="yes"/>
      <point x="81" y="622"/>
      <point x="55" y="596"/>
      <point x="55" y="543" type="curve" smooth="yes"/>
      <point x="55" y="79" type="line" smooth="yes"/>
      <point x="55" y="26"/>
      <point x="81" y="0"/>
      <point x="134" y="0" type="curve" smooth="yes"/>
      <point x="236" y="0" type="line" smooth="yes"/>
      <point x="289" y="0"/>
      <point x="315" y="26"/>
      <point x="315" y="79" type="curve" smooth="yes"/>
    </contour>
    <contour>
      <point x="248" y="87" type="line"/>
      <point x="248" y="61"/>
      <point x="243" y="56"/>
      <point x="216" y="56" type="curve" smooth="yes"/>
      <point x="153" y="56" type="line" smooth="yes"/>
      <point x="127" y="56"/>
      <point x="122" y="61"/>
      <point x="122" y="87" type="curve" smooth="yes"/>
      <point x="122" y="535" type="line" smooth="yes"/>
      <point x="122" y="561"/>
      <point x="127" y="566"/>
      <point x="153" y="566" type="curve" smooth="yes"/>
      <point x="216" y="566" type="line"/>
      <point x="243" y="566"/>
      <point x="248" y="561"/>
      <point x="248" y="535" type="curve" smooth="yes"/>
    </contour>
    <contour>
      <point x="267" y="642" type="line"/>
      <point x="55" y="-20" type="line"/>
      <point x="103" y="-20" type="line"/>
      <point x="315" y="642" type="line"/>
    </contour>
  </outline>
</glyph>
<glyph name="Thorn" format="1">
  <advance width="345"/>
  <unicode hex="00DE"/>
  <outline>
    <contour>
      <point x="247" y="215" type="line"/>
      <point x="247" y="189"/>
      <point x="242" y="184"/>
      <point x="216" y="184" type="curve" smooth="yes"/>
      <point x="96" y="184" type="line"/>
      <point x="96" y="125" type="line"/>
      <point x="236" y="125" type="line" smooth="yes"/>
      <point x="289" y="125"/>
      <point x="315" y="151"/>
      <point x="315" y="204" type="curve" smooth="yes"/>
      <point x="315" y="418" type="line" smooth="yes"/>
      <point x="315" y="471"/>
      <point x="289" y="497"/>
      <point x="236" y="497" type="curve" smooth="yes"/>
      <point x="85" y="497" type="line"/>
      <point x="85" y="438" type="line"/>
      <point x="216" y="438" type="line" smooth="yes"/>
      <point x="242" y="438"/>
      <point x="247" y="433"/>
      <point x="247" y="407" type="curve" smooth="yes"/>
    </contour>
    <contour>
      <point x="55" y="622" type="line"/>
      <point x="55" y="0" type="line"/>
      <point x="123" y="0" type="line"/>
      <point x="123" y="622" type="line"/>
    </contour>
  </outline>
</glyph>
<glyph name="germandbls" format="1">
  <advance width="424"/>
  <unicode hex="00DF"/>
  <outline>
    <contour>
      <point x="184" y="148" type="line"/>
      <point x="184" y="79" type="line" smooth="yes"/>
      <point x="184" y="26"/>
      <point x="210" y="0"/>
      <point x="263" y="0" type="curve" smooth="yes"/>
      <point x="310" y="0" type="line" smooth="yes"/>
      <point x="363" y="0"/>
      <point x="389" y="26"/>
      <point x="389" y="79" type="curve" smooth="yes"/>
      <point x="389" y="191" type="line" smooth="yes"/>
      <point x="389" y="244"/>
      <point x="363" y="270"/>
      <point x="310" y="270" type="curve" smooth="yes"/>
      <point x="280" y="270" type="line" smooth="yes"/>
      <point x="254" y="270"/>
      <point x="248" y="275"/>
      <point x="248" y="301" type="curve" smooth="yes"/>
      <point x="248" y="346" type="line" smooth="yes"/>
      <point x="248" y="372"/>
      <point x="254" y="377"/>
      <point x="280" y="377" type="curve" smooth="yes"/>
      <point x="295" y="377" type="line"/>
      <point x="338" y="377"/>
      <point x="363" y="400"/>
      <point x="363" y="442" type="curve" smooth="yes"/>
      <point x="363" y="510" type="line" smooth="yes"/>
      <point x="363" y="563"/>
      <point x="337" y="589"/>
      <point x="284" y="589" type="curve" smooth="yes"/>
      <point x="124" y="589" type="line" smooth="yes"/>
      <point x="71" y="589"/>
      <point x="45" y="563"/>
      <point x="45" y="510" type="curve" smooth="yes"/>
      <point x="45" y="0" type="line"/>
      <point x="113" y="0" type="line"/>
      <point x="113" y="495" type="line" smooth="yes"/>
      <point x="113" y="521"/>
      <point x="119" y="527"/>
      <point x="145" y="527" type="curve" smooth="yes"/>
      <point x="266" y="527" type="line" smooth="yes"/>
      <point x="292" y="527"/>
      <point x="297" y="521"/>
      <point x="297" y="495" type="curve" smooth="yes"/>
      <point x="297" y="460" type="line" smooth="yes"/>
      <point x="297" y="438"/>
      <point x="291" y="435"/>
      <point x="257" y="435" type="curve" smooth="yes"/>
      <point x="211" y="435"/>
      <point x="182" y="411"/>
      <point x="182" y="356" type="curve"/>
      <point x="182" y="291" type="line" smooth="yes"/>
      <point x="182" y="238"/>
      <point x="208" y="212"/>
      <point x="261" y="212" type="curve" smooth="yes"/>
      <point x="291" y="212" type="line" smooth="yes"/>
      <point x="317" y="212"/>
      <point x="322" y="207"/>
      <point x="322" y="181" type="curve" smooth="yes"/>
      <point x="322" y="89" type="line" smooth="yes"/>
      <point x="322" y="63"/>
      <point x="317" y="58"/>
      <point x="291" y="58" type="curve" smooth="yes"/>
      <point x="282" y="58" type="line" smooth="yes"/>
      <point x="256" y="58"/>
      <point x="251" y="63"/>
      <point x="251" y="89" type="curve" smooth="yes"/>
      <point x="251" y="148" type="line"/>
    </contour>
  </outline>
</glyph>
<glyph name="iacute" format="1">
  <advance width="159"/>
  <unicode hex="00ED"/>
  <outline>
    <contour>
      <point x="114" y="0" type="line"/>
      <point x="114" y="485" type="line"/>
      <point x="45" y="485" type="line"/>
      <point x="45" y="0" type="line"/>
    </contour>
    <component base="acute" xOffset="-73"/>
  </outline>
</glyph>
<glyph name="idieresis" format="1">
  <advance width="159"/>
  <unicode hex="00EF"/>
  <outline>
    <contour>
      <point x="114" y="0" type="line"/>
      <point x="114" y="485" type="line"/>
      <point x="45" y="485" type="line"/>
      <point x="45" y="0" type="line"/>
    </contour>
    <component base="dieresis" xOffset="-120"/>
  </outline>
</glyph>
<glyph name="eth" format="1">
  <advance width="347"/>
  <unicode hex="00F0"/>
  <outline>
    <contour>
      <point x="109" y="90" type="curve"/>
      <point x="109" y="323" type="line" smooth="yes"/>
      <point x="109" y="349"/>
      <point x="114" y="354"/>
      <point x="140" y="354" type="curve" smooth="yes"/>
      <point x="253" y="354" type="line"/>
      <point x="253" y="413" type="line"/>
      <point x="119" y="413" type="line" smooth="yes"/>
      <point x="66" y="413"/>
      <point x="40" y="387"/>
      <point x="40" y="334" type="curve" smooth="yes"/>
      <point x="40" y="79" type="line" smooth="yes"/>
      <point x="40" y="26"/>
      <point x="66" y="0"/>
      <point x="119" y="0" type="curve" smooth="yes"/>
      <point x="173" y="0" type="line"/>
      <point x="173" y="59" type="line"/>
      <point x="140" y="59" type="line" smooth="yes"/>
      <point x="114" y="59"/>
      <point x="109" y="64"/>
    </contour>
    <contour>
      <point x="228" y="298" type="curve" smooth="yes"/>
      <point x="228" y="90" type="line" smooth="yes"/>
      <point x="228" y="64"/>
      <point x="223" y="59"/>
      <point x="197" y="59" type="curve" smooth="yes"/>
      <point x="164" y="59" type="line"/>
      <point x="164" y="0" type="line"/>
      <point x="218" y="0" type="line" smooth="yes"/>
      <point x="271" y="0"/>
      <point x="297" y="26"/>
      <point x="297" y="79" type="curve" smooth="yes"/>
      <point x="297" y="309" type="line" smooth="yes"/>
      <point x="297" y="445"/>
      <point x="235" y="553"/>
      <point x="166" y="622" type="curve"/>
      <point x="71" y="622" type="line"/>
      <point x="160" y="549"/>
      <point x="228" y="436"/>
    </contour>
    <contour>
      <point x="69" y="486" type="line"/>
      <point x="289" y="570" type="line"/>
      <point x="289" y="618" type="line"/>
      <point x="69" y="534" type="line"/>
    </contour>
  </outline>
</glyph>
<glyph name="divide" format="1">
  <advance width="380"/>
  <unicode hex="00F7"/>
  <outline>
    <contour>
      <point x="25" y="281" type="line"/>
      <point x="355" y="281" type="line"/>
      <point x="355" y="341" type="line"/>
      <point x="25" y="341" type="line"/>
    </contour>
    <contour>
      <point x="155" y="491" type="line"/>
      <point x="155" y="411" type="line"/>
      <point x="225" y="411" type="line"/>
      <point x="225" y="491" type="line"/>
    </contour>
    <contour>
      <point x="155" y="211" type="line"/>
      <point x="155" y="131" type="line"/>
      <point x="225" y="131" type="line"/>
      <point x="225" y="211" type="line"/>
    </contour>
  </outline>
</glyph>
<glyph name="oslash" format="1">
  <advance width="350"/>
  <unicode hex="00F8"/>
  <outline>
    <contour>
      <point x="305" y="406" type="line"/>
      <point x="305" y="459"/>
      <point x="279" y="485"/>
      <point x="226" y="485" type="curve" smooth="yes"/>
      <point x="124" y="485" type="line" smooth="yes"/>
      <point x="71" y="485"/>
      <point x="45" y="459"/>
      <point x="45" y="406" type="curve" smooth="yes"/>
      <point x="45" y="79" type="line" smooth="yes"/>
      <point x="45" y="26"/>
      <point x="71" y="0"/>
      <point x="124" y="0" type="curve" smooth="yes"/>
      <point x="226" y="0" type="line" smooth="yes"/>
      <point x="279" y="0"/>
      <point x="305" y="26"/>
      <point x="305" y="79" type="curve" smooth="yes"/>
    </contour>
    <contour>
      <point x="239" y="85" type="line"/>
      <point x="239" y="58"/>
      <point x="234" y="53"/>
      <point x="207" y="53" type="curve" smooth="yes"/>
      <point x="143" y="53" type="line" smooth="yes"/>
      <point x="116" y="53"/>
      <point x="111" y="58"/>
      <point x="111" y="85" type="curve" smooth="yes"/>
      <point x="111" y="400" type="line" smooth="yes"/>
      <point x="111" y="427"/>
      <point x="116" y="432"/>
      <point x="143" y="432" type="curve" smooth="yes"/>
      <point x="207" y="432" type="line"/>
      <point x="234" y="432"/>
      <point x="239" y="427"/>
      <point x="239" y="400" type="curve" smooth="yes"/>
    </contour>
    <contour>
      <point x="257" y="505" type="line"/>
      <point x="45" y="-20" type="line"/>
      <point x="93" y="-20" type="line"/>
      <point x="305" y="505" type="line"/>
    </contour>
  </outline>
</glyph>
<glyph name="dcaron" format="1">
  <advance width="354"/>
  <unicode hex="010F"/>
  <outline>
    <contour>
      <point x="328" y="669" type="line"/>
      <point x="328" y="509" type="line"/>
      <point x="355" y="509" type="line"/>
      <point x="390" y="630" type="line"/>
      <point x="390" y="669" type="line"/>
    </contour>
    <component base="d"/>
  </outline>
</glyph>
<glyph name="Gcommaaccent" format="1">
  <advance width="350"/>
  <unicode hex="0122"/>
  <outline>
    <contour>
      <point x="119" y="532" type="line"/>
      <point x="119" y="558"/>
      <point x="124" y="563"/>
      <point x="150" y="563" type="curve" smooth="yes"/>
      <point x="186" y="563" type="line"/>
      <point x="186" y="622" type="line"/>
      <point x="129" y="622" type="line" smooth="yes"/>
      <point x="76" y="622"/>
      <point x="50" y="596"/>
      <point x="50" y="543" type="curve" smooth="yes"/>
      <point x="50" y="78" type="line" smooth="yes"/>
      <point x="50" y="25"/>
      <point x="76" y="-1"/>
      <point x="129" y="-1" type="curve"/>
      <point x="179" y="-1" type="line"/>
      <point x="179" y="58" type="line"/>
      <point x="150" y="58" type="line" smooth="yes"/>
      <point x="124" y="58"/>
      <point x="119" y="63"/>
      <point x="119" y="89" type="curve" smooth="yes"/>
    </contour>
    <contour>
      <point x="305" y="313" type="line"/>
      <point x="186" y="313" type="line"/>
      <point x="186" y="254" type="line"/>
      <point x="305" y="254" type="line"/>
    </contour>
    <contour>
      <point x="236" y="448" type="line"/>
      <point x="305" y="448" type="line"/>
      <point x="305" y="543" type="line" smooth="yes"/>
      <point x="305" y="596"/>
      <point x="279" y="622"/>
      <point x="226" y="622" type="curve" smooth="yes"/>
      <point x="171" y="622" type="line"/>
      <point x="171" y="563" type="line"/>
      <point x="205" y="563" type="line" smooth="yes"/>
      <point x="231" y="563"/>
      <point x="236" y="558"/>
      <point x="236" y="532" type="curve" smooth="yes"/>
    </contour>
    <contour>
      <point x="236" y="89" type="line"/>
      <point x="236" y="63"/>
      <point x="231" y="58"/>
      <point x="205" y="58" type="curve" smooth="yes"/>
      <point x="171" y="58" type="line"/>
      <point x="171" y="-1" type="line"/>
      <point x="226" y="-1" type="line" smooth="yes"/>
      <point x="279" y="-1"/>
      <point x="305" y="25"/>
      <point x="305" y="78" type="curve" smooth="yes"/>
      <point x="305" y="273" type="line"/>
      <point x="236" y="273" type="line"/>
    </contour>
    <contour>
      <point x="140" y="-51" type="line"/>
      <point x="140" y="-211" type="line"/>
      <point x="167" y="-211" type="line"/>
      <point x="220" y="-90" type="line"/>
      <point x="220" y="-51" type="line"/>
    </contour>
  </outline>
</glyph>
<glyph name="imacron" format="1">
  <advance width="159"/>
  <unicode hex="012B"/>
  <outline>
    <contour>
      <point x="114" y="0" type="line"/>
      <point x="114" y="485" type="line"/>
      <point x="45" y="485" type="line"/>
      <point x="45" y="0" type="line"/>
    </contour>
    <component base="macron" xOffset="-120"/>
  </outline>
</glyph>
<glyph name="Kcommaaccent" format="1">
  <advance width="345"/>
  <unicode hex="0136"/>
  <outline>
    <contour>
      <point x="130" y="308" type="line"/>
      <point x="259" y="0" type="line"/>
      <point x="333" y="0" type="line"/>
      <point x="201" y="308" type="line"/>
    </contour>
    <contour>
      <point x="201" y="308" type="line"/>
      <point x="335" y="622" type="line"/>
      <point x="261" y="622" type="line"/>
      <point x="130" y="308" type="line"/>
    </contour>
    <contour>
      <point x="55" y="622" type="line"/>
      <point x="55" y="0" type="line"/>
      <point x="123" y="0" type="line"/>
      <point x="123" y="622" type="line"/>
    </contour>
    <contour>
      <point x="141" y="-51" type="line"/>
      <point x="141" y="-211" type="line"/>
      <point x="168" y="-211" type="line"/>
      <point x="221" y="-90" type="line"/>
      <point x="221" y="-51" type="line"/>
    </contour>
  </outline>
</glyph>
<glyph name="Lcommaaccent" format="1">
  <advance width="271"/>
  <unicode hex="013B"/>
  <outline>
    <contour>
      <point x="55" y="622" type="line"/>
      <point x="55" y="0" type="line"/>
      <point x="123" y="0" type="line"/>
      <point x="123" y="622" type="line"/>
    </contour>
    <contour>
      <point x="96" y="0" type="line"/>
      <point x="266" y="0" type="line"/>
      <point x="266" y="59" type="line"/>
      <point x="96" y="59" type="line"/>
    </contour>
    <contour>
      <point x="119" y="-51" type="line"/>
      <point x="119" y="-211" type="line"/>
      <point x="146" y="-211" type="line"/>
      <point x="199" y="-90" type="line"/>
      <point x="199" y="-51" type="line"/>
    </contour>
  </outline>
</glyph>
<glyph name="lcommaaccent" format="1">
  <advance width="159"/>
  <unicode hex="013C"/>
  <outline>
    <contour>
      <point x="114" y="0" type="line"/>
      <point x="114" y="669" type="line"/>
      <point x="45" y="669" type="line"/>
      <point x="45" y="0" type="line"/>
    </contour>
    <contour>
      <point x="40" y="-51" type="line"/>
      <point x="40" y="-211" type="line"/>
      <point x="67" y="-211" type="line"/>
      <point x="120" y="-90" type="line"/>
      <point x="120" y="-51" type="line"/>
    </contour>
  </outline>
</glyph>
<glyph name="lcaron" format="1">
  <advance width="186"/>
  <unicode hex="013E"/>
  <outline>
    <contour>
      <point x="159" y="669" type="line"/>
      <point x="159" y="509" type="line"/>
      <point x="186" y="509" type="line"/>
      <point x="221" y="630" type="line"/>
      <point x="221" y="669" type="line"/>
    </contour>
    <component base="l"/>
  </outline>
</glyph>
<glyph name="oe" format="1">
  <advance width="518"/>
  <unicode hex="0153"/>
  <outline>
    <contour>
      <point x="124" y="0" type="curve" smooth="yes"/>
      <point x="195" y="0" type="line" smooth="yes"/>
      <point x="227" y="0"/>
      <point x="247" y="20"/>
      <point x="252" y="38" type="curve"/>
      <point x="257" y="20"/>
      <point x="278" y="0"/>
      <point x="307" y="0" type="curve" smooth="yes"/>
      <point x="387" y="0" type="line" smooth="yes"/>
      <point x="440" y="0"/>
      <point x="466" y="26"/>
      <point x="466" y="79" type="curve" smooth="yes"/>
      <point x="466" y="134" type="line"/>
      <point x="397" y="134" type="line"/>
      <point x="397" y="90" type="line" smooth="yes"/>
      <point x="397" y="64"/>
      <point x="392" y="59"/>
      <point x="366" y="59" type="curve" smooth="yes"/>
      <point x="319" y="59" type="line" smooth="yes"/>
      <point x="293" y="59"/>
      <point x="288" y="64"/>
      <point x="288" y="90" type="curve" smooth="yes"/>
      <point x="288" y="395" type="line" smooth="yes"/>
      <point x="288" y="421"/>
      <point x="293" y="426"/>
      <point x="319" y="426" type="curve" smooth="yes"/>
      <point x="369" y="426" type="line" smooth="yes"/>
      <point x="395" y="426"/>
      <point x="400" y="421"/>
      <point x="400" y="395" type="curve" smooth="yes"/>
      <point x="400" y="219" type="line"/>
      <point x="469" y="219" type="line"/>
      <point x="469" y="406" type="line" smooth="yes"/>
      <point x="469" y="459"/>
      <point x="443" y="485"/>
      <point x="390" y="485" type="curve" smooth="yes"/>
      <point x="307" y="485" type="line" smooth="yes"/>
      <point x="278" y="485"/>
      <point x="257" y="465"/>
      <point x="252" y="447" type="curve"/>
      <point x="247" y="465"/>
      <point x="227" y="485"/>
      <point x="195" y="485" type="curve" smooth="yes"/>
      <point x="124" y="485" type="line" smooth="yes"/>
      <point x="71" y="485"/>
      <point x="45" y="459"/>
      <point x="45" y="406" type="curve" smooth="yes"/>
      <point x="45" y="79" type="line" smooth="yes"/>
      <point x="45" y="26"/>
      <point x="71" y="0"/>
    </contour>
    <contour>
      <point x="114" y="395" type="line"/>
      <point x="114" y="421"/>
      <point x="119" y="426"/>
      <point x="145" y="426" type="curve" smooth="yes"/>
      <point x="185" y="426" type="line" smooth="yes"/>
      <point x="207" y="426"/>
      <point x="217" y="418"/>
      <point x="219" y="396" type="curve"/>
      <point x="219" y="89" type="line"/>
      <point x="217" y="66"/>
      <point x="207" y="59"/>
      <point x="185" y="59" type="curve" smooth="yes"/>
      <point x="145" y="59" type="line" smooth="yes"/>
      <point x="119" y="59"/>
      <point x="114" y="64"/>
      <point x="114" y="90" type="curve" smooth="yes"/>
    </contour>
    <contour>
      <point x="469" y="278" type="line"/>
      <point x="249" y="278" type="line"/>
      <point x="249" y="219" type="line"/>
      <point x="469" y="219" type="line"/>
    </contour>
  </outline>
</glyph>
<glyph name="scedilla" format="1">
  <advance width="297"/>
  <unicode hex="015F"/>
  <outline>
    <contour>
      <point x="194" y="89" type="line"/>
      <point x="194" y="63"/>
      <point x="189" y="58"/>
      <point x="163" y="58" type="curve"/>
      <point x="136" y="58" type="line" smooth="yes"/>
      <point x="110" y="58"/>
      <point x="105" y="63"/>
      <point x="105" y="89" type="curve" smooth="yes"/>
      <point x="105" y="128" type="line"/>
      <point x="37" y="128" type="line"/>
      <point x="37" y="79" type="line" smooth="yes"/>
      <point x="37" y="26"/>
      <point x="63" y="0"/>
      <point x="116" y="0" type="curve" smooth="yes"/>
      <point x="183" y="0" type="line" smooth="yes"/>
      <point x="236" y="0"/>
      <point x="262" y="26"/>
      <point x="262" y="79" type="curve" smooth="yes"/>
      <point x="262" y="191" type="line" smooth="yes"/>
      <point x="262" y="244"/>
      <point x="236" y="270"/>
      <point x="183" y="270" type="curve" smooth="yes"/>
      <point x="134" y="270" type="line" smooth="yes"/>
      <point x="108" y="270"/>
      <point x="103" y="275"/>
      <point x="103" y="301" type="curve" smooth="yes"/>
      <point x="103" y="396" type="line" smooth="yes"/>
      <point x="103" y="422"/>
      <point x="108" y="427"/>
      <point x="134" y="427" type="curve" smooth="yes"/>
      <point x="162" y="427" type="line" smooth="yes"/>
      <point x="188" y="427"/>
      <point x="193" y="422"/>
      <point x="193" y="396" type="curve" smooth="yes"/>
      <point x="193" y="357" type="line"/>
      <point x="261" y="357" type="line"/>
      <point x="261" y="406" type="line" smooth="yes"/>
      <point x="261" y="459"/>
      <point x="235" y="485"/>
      <point x="182" y="485" type="curve" smooth="yes"/>
      <point x="114" y="485" type="line" smooth="yes"/>
      <point x="61" y="485"/>
      <point x="35" y="459"/>
      <point x="35" y="406" type="curve" smooth="yes"/>
      <point x="35" y="291" type="line" smooth="yes"/>
      <point x="35" y="238"/>
      <point x="61" y="212"/>
      <point x="114" y="212" type="curve" smooth="yes"/>
      <point x="163" y="212" type="line" smooth="yes"/>
      <point x="189" y="212"/>
      <point x="194" y="207"/>
      <point x="194" y="181" type="curve" smooth="yes"/>
    </contour>
    <contour>
      <point x="108" y="-51" type="line"/>
      <point x="108" y="-211" type="line"/>
      <point x="135" y="-211" type="line"/>
      <point x="188" y="-90" type="line"/>
      <point x="188" y="-51" type="line"/>
    </contour>
  </outline>
</glyph>
<glyph name="florin" format="1">
  <advance width="328"/>
  <unicode hex="0192"/>
  <outline>
    <contour>
      <point x="202" y="574" type="line"/>
      <point x="205" y="600"/>
      <point x="207" y="605"/>
      <point x="233" y="605" type="curve" smooth="yes"/>
      <point x="279" y="605" type="line"/>
      <point x="279" y="669" type="line"/>
      <point x="212" y="669" type="line" smooth="yes"/>
      <point x="159" y="669"/>
      <point x="139" y="643"/>
      <point x="133" y="590" type="curve" smooth="yes"/>
      <point x="53" y="-46" type="line" smooth="yes"/>
      <point x="50" y="-72"/>
      <point x="48" y="-77"/>
      <point x="22" y="-77" type="curve" smooth="yes"/>
      <point x="-24" y="-77" type="line"/>
      <point x="-24" y="-141" type="line"/>
      <point x="43" y="-141" type="line" smooth="yes"/>
      <point x="96" y="-141"/>
      <point x="115" y="-115"/>
      <point x="122" y="-62" type="curve" smooth="yes"/>
    </contour>
    <contour>
      <point x="279" y="485" type="line"/>
      <point x="47" y="485" type="line"/>
      <point x="47" y="426" type="line"/>
      <point x="279" y="426" type="line"/>
    </contour>
  </outline>
</glyph>
<glyph name="Tcommaaccent" format="1">
  <advance width="278"/>
  <unicode hex="021A"/>
  <outline>
    <contour>
      <point x="105" y="622" type="line"/>
      <point x="105" y="0" type="line"/>
      <point x="173" y="0" type="line"/>
      <point x="173" y="622" type="line"/>
    </contour>
    <contour>
      <point x="273" y="622" type="line"/>
      <point x="5" y="622" type="line"/>
      <point x="5" y="563" type="line"/>
      <point x="273" y="563" type="line"/>
    </contour>
    <contour>
      <point x="101" y="-51" type="line"/>
      <point x="101" y="-211" type="line"/>
      <point x="128" y="-211" type="line"/>
      <point x="181" y="-90" type="line"/>
      <point x="181" y="-51" type="line"/>
    </contour>
  </outline>
</glyph>
<glyph name="tcommaaccent" format="1">
  <advance width="197"/>
  <unicode hex="021B"/>
  <outline>
    <contour>
      <point x="118" y="564" type="line"/>
      <point x="49" y="564" type="line"/>
      <point x="49" y="79" type="line" smooth="yes"/>
      <point x="49" y="26"/>
      <point x="75" y="0"/>
      <point x="128" y="0" type="curve" smooth="yes"/>
      <point x="187" y="0" type="line"/>
      <point x="187" y="64" type="line"/>
      <point x="149" y="64" type="line" smooth="yes"/>
      <point x="123" y="64"/>
      <point x="118" y="69"/>
      <point x="118" y="95" type="curve" smooth="yes"/>
    </contour>
    <contour>
      <point x="187" y="485" type="line"/>
      <point x="5" y="485" type="line"/>
      <point x="5" y="426" type="line"/>
      <point x="187" y="426" type="line"/>
    </contour>
    <contour>
      <point x="78" y="-51" type="line"/>
      <point x="78" y="-211" type="line"/>
      <point x="105" y="-211" type="line"/>
      <point x="158" y="-90" type="line"/>
      <point x="158" y="-51" type="line"/>
    </contour>
  </outline>
</glyph>
<glyph name="circumflex" format="1">
  <advance width="400"/>
  <unicode hex="02C6"/>
  <outline>
    <contour>
      <point x="71" y="516" type="line"/>
      <point x="147" y="516" type="line"/>
      <point x="199" y="600" type="line"/>
      <point x="252" y="516" type="line"/>
      <point x="328" y="516" type="line"/>
      <point x="243" y="643" type="line"/>
      <point x="156" y="643" type="line"/>
    </contour>
  </outline>
</glyph>
<glyph name="breve" format="1">
  <advance width="400"/>
  <unicode hex="02D8"/>
  <outline>
    <contour>
      <point x="264" y="643" type="line"/>
      <point x="264" y="603" type="line" smooth="yes"/>
      <point x="264" y="577"/>
      <point x="259" y="572"/>
      <point x="233" y="572" type="curve" smooth="yes"/>
      <point x="195" y="572" type="line"/>
      <point x="195" y="516" type="line"/>
      <point x="251" y="516" type="line" smooth="yes"/>
      <point x="304" y="516"/>
      <point x="330" y="542"/>
      <point x="330" y="595" type="curve" smooth="yes"/>
      <point x="330" y="643" type="line"/>
    </contour>
    <contour>
      <point x="70" y="643" type="line"/>
      <point x="70" y="595" type="line" smooth="yes"/>
      <point x="70" y="542"/>
      <point x="96" y="516"/>
      <point x="149" y="516" type="curve" smooth="yes"/>
      <point x="205" y="516" type="line"/>
      <point x="205" y="572" type="line"/>
      <point x="167" y="572" type="line" smooth="yes"/>
      <point x="141" y="572"/>
      <point x="136" y="577"/>
      <point x="136" y="603" type="curve" smooth="yes"/>
      <point x="136" y="643" type="line"/>
    </contour>
  </outline>
</glyph>
<glyph name="dotaccent" format="1">
  <advance width="400"/>
  <unicode hex="02D9"/>
  <outline>
    <contour>
      <point x="154" y="536" type="line"/>
      <point x="246" y="536" type="line"/>
      <point x="246" y="622" type="line"/>
      <point x="154" y="622" type="line"/>
    </contour>
  </outline>
</glyph>
<glyph name="ring" format="1">
  <advance width="400"/>
  <unicode hex="02DA"/>
  <outline>
    <contour>
      <point x="295" y="588" type="line"/>
      <point x="295" y="633"/>
      <point x="274" y="653"/>
      <point x="230" y="653" type="curve" smooth="yes"/>
      <point x="170" y="653" type="line" smooth="yes"/>
      <point x="126" y="653"/>
      <point x="105" y="633"/>
      <point x="105" y="588" type="curve" smooth="yes"/>
      <point x="105" y="571" type="line" smooth="yes"/>
      <point x="105" y="526"/>
      <point x="126" y="506"/>
      <point x="170" y="506" type="curve" smooth="yes"/>
      <point x="230" y="506" type="line" smooth="yes"/>
      <point x="274" y="506"/>
      <point x="295" y="526"/>
      <point x="295" y="571" type="curve"/>
    </contour>
    <contour>
      <point x="244" y="577" type="line"/>
      <point x="244" y="555"/>
      <point x="241" y="550"/>
      <point x="216" y="550" type="curve" smooth="yes"/>
      <point x="184" y="550" type="line" smooth="yes"/>
      <point x="159" y="550"/>
      <point x="156" y="555"/>
      <point x="156" y="577" type="curve" smooth="yes"/>
      <point x="156" y="582" type="line" smooth="yes"/>
      <point x="156" y="604"/>
      <point x="159" y="609"/>
      <point x="184" y="609" type="curve" smooth="yes"/>
      <point x="216" y="609" type="line" smooth="yes"/>
      <point x="241" y="609"/>
      <point x="244" y="604"/>
      <point x="244" y="582" type="curve"/>
    </contour>
  </outline>
</glyph>
<glyph name="ogonek" format="1">
  <advance width="400"/>
  <unicode hex="02DB"/>
  <outline>
    <contour>
      <point x="113" y="-104" type="curve" smooth="yes"/>
      <point x="113" y="-133" type="line" smooth="yes"/>
      <point x="113" y="-186"/>
      <point x="139" y="-212"/>
      <point x="192" y="-212" type="curve" smooth="yes"/>
      <point x="284" y="-212" type="line"/>
      <point x="284" y="-158" type="line"/>
      <point x="206" y="-158" type="line" smooth="yes"/>
      <point x="180" y="-158"/>
      <point x="174" y="-154"/>
      <point x="174" y="-128" type="curve" smooth="yes"/>
      <point x="174" y="-108" type="line"/>
      <point x="174" y="-82"/>
      <point x="180" y="-78"/>
      <point x="206" y="-78" type="curve" smooth="yes"/>
      <point x="266" y="-78" type="line"/>
      <point x="266" y="-25" type="line"/>
      <point x="192" y="-25" type="line" smooth="yes"/>
      <point x="139" y="-25"/>
      <point x="113" y="-51"/>
    </contour>
    <contour>
      <point x="266" y="-28" type="line"/>
      <point x="266" y="10" type="line"/>
      <point x="200" y="10" type="line"/>
      <point x="200" y="-28" type="line"/>
    </contour>
  </outline>
</glyph>
<glyph name="tilde" format="1">
  <advance width="400"/>
  <unicode hex="02DC"/>
  <outline>
    <contour>
      <point x="249" y="534" type="curve" smooth="yes"/>
      <point x="254" y="534" type="line" smooth="yes"/>
      <point x="310" y="534"/>
      <point x="325" y="564"/>
      <point x="325" y="610" type="curve" smooth="yes"/>
      <point x="325" y="624" type="line"/>
      <point x="263" y="624" type="line"/>
      <point x="263" y="614" type="line" smooth="yes"/>
      <point x="263" y="593"/>
      <point x="258" y="589"/>
      <point x="244" y="589" type="curve" smooth="yes"/>
      <point x="220" y="589"/>
      <point x="195" y="624"/>
      <point x="153" y="624" type="curve" smooth="yes"/>
      <point x="147" y="624" type="line" smooth="yes"/>
      <point x="92" y="624"/>
      <point x="75" y="595"/>
      <point x="75" y="548" type="curve" smooth="yes"/>
      <point x="75" y="534" type="line"/>
      <point x="137" y="534" type="line"/>
      <point x="137" y="545" type="line" smooth="yes"/>
      <point x="137" y="561"/>
      <point x="142" y="569"/>
      <point x="154" y="569" type="curve" smooth="yes"/>
      <point x="179" y="569"/>
      <point x="206" y="534"/>
    </contour>
  </outline>
</glyph>
<glyph name="pi" format="1">
  <advance width="400"/>
  <unicode hex="03C0"/>
  <outline>
    <contour>
      <point x="67" y="95" type="line"/>
      <point x="67" y="69"/>
      <point x="62" y="64"/>
      <point x="36" y="64" type="curve" smooth="yes"/>
      <point x="0" y="64" type="line"/>
      <point x="0" y="0" type="line"/>
      <point x="57" y="0" type="line" smooth="yes"/>
      <point x="110" y="0"/>
      <point x="136" y="26"/>
      <point x="136" y="79" type="curve" smooth="yes"/>
      <point x="136" y="455" type="line"/>
      <point x="67" y="455" type="line"/>
    </contour>
    <contour>
      <point x="262" y="455" type="line"/>
      <point x="262" y="0" type="line"/>
      <point x="330" y="0" type="line"/>
      <point x="330" y="455" type="line"/>
    </contour>
    <contour>
      <point x="400" y="485" type="line"/>
      <point x="67" y="485" type="line"/>
      <point x="67" y="426" type="line"/>
      <point x="400" y="426" type="line"/>
    </contour>
  </outline>
</glyph>
<glyph name="endash" format="1">
  <advance width="370"/>
  <unicode hex="2013"/>
  <outline>
    <contour>
      <point x="20" y="263" type="line"/>
      <point x="350" y="263" type="line"/>
      <point x="350" y="321" type="line"/>
      <point x="20" y="321" type="line"/>
    </contour>
  </outline>
</glyph>
<glyph name="emdash" format="1">
  <advance width="479"/>
  <unicode hex="2014"/>
  <outline>
    <contour>
      <point x="0" y="263" type="line"/>
      <point x="479" y="263" type="line"/>
      <point x="479" y="321" type="line"/>
      <point x="0" y="321" type="line"/>
    </contour>
  </outline>
</glyph>
<glyph name="quoteleft" format="1">
  <advance width="142"/>
  <unicode hex="2018"/>
  <outline>
    <contour>
      <point x="112" y="373" type="line"/>
      <point x="112" y="622" type="line"/>
      <point x="85" y="622" type="line"/>
      <point x="30" y="431" type="line"/>
      <point x="30" y="373" type="line"/>
    </contour>
  </outline>
</glyph>
<glyph name="quotedblleft" format="1">
  <advance width="274"/>
  <unicode hex="201C"/>
  <outline>
    <contour>
      <point x="244" y="373" type="line"/>
      <point x="244" y="622" type="line"/>
      <point x="217" y="622" type="line"/>
      <point x="162" y="431" type="line"/>
      <point x="162" y="373" type="line"/>
    </contour>
    <contour>
      <point x="112" y="373" type="line"/>
      <point x="112" y="622" type="line"/>
      <point x="85" y="622" type="line"/>
      <point x="30" y="431" type="line"/>
      <point x="30" y="373" type="line"/>
    </contour>
  </outline>
</glyph>
<glyph name="dagger" format="1">
  <advance width="338"/>
  <unicode hex="2020"/>
  <outline>
    <contour>
      <point x="135" y="622" type="line"/>
      <point x="135" y="-110" type="line"/>
      <point x="203" y="-110" type="line"/>
      <point x="203" y="622" type="line"/>
    </contour>
    <contour>
      <point x="333" y="458" type="line"/>
      <point x="5" y="458" type="line"/>
      <point x="5" y="399" type="line"/>
      <point x="333" y="399" type="line"/>
    </contour>
  </outline>
</glyph>
<glyph name="bullet" format="1">
  <advance width="396"/>
  <unicode hex="2022"/>
  <outline>
    <contour>
      <point x="71" y="321" type="curve" smooth="yes"/>
      <point x="71" y="251"/>
      <point x="128" y="194"/>
      <point x="198" y="194" type="curve" smooth="yes"/>
      <point x="268" y="194"/>
      <point x="325" y="251"/>
      <point x="325" y="321" type="curve" smooth="yes"/>
      <point x="325" y="391"/>
      <point x="268" y="448"/>
      <point x="198" y="448" type="curve" smooth="yes"/>
      <point x="128" y="448"/>
      <point x="71" y="391"/>
    </contour>
  </outline>
</glyph>
<glyph name="Euro" format="1">
  <advance width="368"/>
  <unicode hex="20AC"/>
  <outline>
    <contour>
      <point x="142" y="532" type="line"/>
      <point x="142" y="558"/>
      <point x="147" y="563"/>
      <point x="173" y="563" type="curve" smooth="yes"/>
      <point x="209" y="563" type="line"/>
      <point x="209" y="622" type="line"/>
      <point x="152" y="622" type="line" smooth="yes"/>
      <point x="99" y="622"/>
      <point x="73" y="596"/>
      <point x="73" y="543" type="curve" smooth="yes"/>
      <point x="73" y="78" type="line" smooth="yes"/>
      <point x="73" y="25"/>
      <point x="99" y="-1"/>
      <point x="152" y="-1" type="curve"/>
      <point x="202" y="-1" type="line"/>
      <point x="202" y="58" type="line"/>
      <point x="173" y="58" type="line" smooth="yes"/>
      <point x="147" y="58"/>
      <point x="142" y="63"/>
      <point x="142" y="89" type="curve" smooth="yes"/>
    </contour>
    <contour>
      <point x="259" y="438" type="line"/>
      <point x="328" y="438" type="line"/>
      <point x="328" y="543" type="line" smooth="yes"/>
      <point x="328" y="596"/>
      <point x="302" y="622"/>
      <point x="249" y="622" type="curve" smooth="yes"/>
      <point x="194" y="622" type="line"/>
      <point x="194" y="563" type="line"/>
      <point x="228" y="563" type="line" smooth="yes"/>
      <point x="254" y="563"/>
      <point x="259" y="558"/>
      <point x="259" y="532" type="curve" smooth="yes"/>
    </contour>
    <contour>
      <point x="259" y="89" type="line"/>
      <point x="259" y="63"/>
      <point x="254" y="58"/>
      <point x="228" y="58" type="curve" smooth="yes"/>
      <point x="194" y="58" type="line"/>
      <point x="194" y="-1" type="line"/>
      <point x="249" y="-1" type="line" smooth="yes"/>
      <point x="302" y="-1"/>
      <point x="328" y="25"/>
      <point x="328" y="78" type="curve" smooth="yes"/>
      <point x="328" y="183" type="line"/>
      <point x="259" y="183" type="line"/>
    </contour>
    <contour>
      <point x="237" y="283" type="line"/>
      <point x="25" y="283" type="line"/>
      <point x="25" y="224" type="line"/>
      <point x="237" y="224" type="line"/>
    </contour>
    <contour>
      <point x="237" y="398" type="line"/>
      <point x="25" y="398" type="line"/>
      <point x="25" y="340" type="line"/>
      <point x="237" y="340" type="line"/>
    </contour>
  </outline>
</glyph>
<glyph name="trademark" format="1">
  <advance width="598"/>
  <unicode hex="2122"/>
  <outline>
    <contour>
      <point x="85" y="622" type="line"/>
      <point x="85" y="300" type="line"/>
      <point x="153" y="300" type="line"/>
      <point x="153" y="622" type="line"/>
    </contour>
    <contour>
      <point x="233" y="622" type="line"/>
      <point x="5" y="622" type="line"/>
      <point x="5" y="563" type="line"/>
      <point x="233" y="563" type="line"/>
    </contour>
    <contour>
      <point x="271" y="622" type="line"/>
      <point x="271" y="300" type="line"/>
      <point x="334" y="300" type="line"/>
      <point x="334" y="522" type="line"/>
      <point x="388" y="358" type="line"/>
      <point x="453" y="358" type="line"/>
      <point x="505" y="521" type="line"/>
      <point x="505" y="300" type="line"/>
      <point x="568" y="300" type="line"/>
      <point x="568" y="622" type="line"/>
      <point x="480" y="622" type="line"/>
      <point x="420" y="436" type="line"/>
      <point x="358" y="622" type="line"/>
    </contour>
  </outline>
</glyph>
<glyph name="Omega.math" format="1">
  <advance width="370"/>
  <unicode hex="2126"/>
  <outline>
    <contour>
      <point x="247" y="141" type="line"/>
      <point x="315" y="141" type="line"/>
      <point x="315" y="543" type="line" smooth="yes"/>
      <point x="315" y="596"/>
      <point x="289" y="622"/>
      <point x="236" y="622" type="curve" smooth="yes"/>
      <point x="182" y="622" type="line"/>
      <point x="182" y="563" type="line"/>
      <point x="216" y="563" type="line" smooth="yes"/>
      <point x="242" y="563"/>
      <point x="247" y="558"/>
      <point x="247" y="532" type="curve" smooth="yes"/>
    </contour>
    <contour>
      <point x="247" y="90" type="line"/>
      <point x="247" y="64"/>
      <point x="242" y="59"/>
      <point x="216" y="59" type="curve" smooth="yes"/>
      <point x="205" y="59" type="line"/>
      <point x="205" y="50" type="line"/>
      <point x="236" y="50" type="line" smooth="yes"/>
      <point x="289" y="50"/>
      <point x="315" y="56"/>
      <point x="315" y="109" type="curve" smooth="yes"/>
      <point x="315" y="191" type="line"/>
      <point x="247" y="191" type="line"/>
    </contour>
    <contour>
      <point x="123" y="532" type="line"/>
      <point x="123" y="558"/>
      <point x="128" y="563"/>
      <point x="154" y="563" type="curve" smooth="yes"/>
      <point x="188" y="563" type="line"/>
      <point x="188" y="622" type="line"/>
      <point x="134" y="622" type="line" smooth="yes"/>
      <point x="81" y="622"/>
      <point x="55" y="596"/>
      <point x="55" y="543" type="curve" smooth="yes"/>
      <point x="55" y="140" type="line"/>
      <point x="123" y="140" type="line"/>
    </contour>
    <contour>
      <point x="123" y="199" type="line"/>
      <point x="55" y="199" type="line"/>
      <point x="55" y="109" type="line" smooth="yes"/>
      <point x="55" y="56"/>
      <point x="81" y="50"/>
      <point x="134" y="50" type="curve" smooth="yes"/>
      <point x="165" y="50" type="line"/>
      <point x="165" y="59" type="line"/>
      <point x="154" y="59" type="line" smooth="yes"/>
      <point x="128" y="59"/>
      <point x="123" y="64"/>
      <point x="123" y="90" type="curve" smooth="yes"/>
    </contour>
    <contour>
      <point x="360" y="59" type="line"/>
      <point x="202" y="59" type="line"/>
      <point x="202" y="0" type="line"/>
      <point x="360" y="0" type="line"/>
    </contour>
    <contour>
      <point x="168" y="59" type="line"/>
      <point x="10" y="59" type="line"/>
      <point x="10" y="0" type="line"/>
      <point x="168" y="0" type="line"/>
    </contour>
  </outline>
</glyph>
<glyph name="product" format="1">
  <advance width="408"/>
  <unicode hex="220F"/>
  <outline>
    <contour>
      <point x="70" y="95" type="line"/>
      <point x="70" y="69"/>
      <point x="65" y="64"/>
      <point x="39" y="64" type="curve" smooth="yes"/>
      <point x="10" y="64" type="line"/>
      <point x="10" y="0" type="line"/>
      <point x="60" y="0" type="line" smooth="yes"/>
      <point x="113" y="0"/>
      <point x="139" y="26"/>
      <point x="139" y="79" type="curve" smooth="yes"/>
      <point x="139" y="592" type="line"/>
      <point x="70" y="592" type="line"/>
    </contour>
    <contour>
      <point x="285" y="592" type="line"/>
      <point x="285" y="0" type="line"/>
      <point x="353" y="0" type="line"/>
      <point x="353" y="592" type="line"/>
    </contour>
    <contour>
      <point x="353" y="622" type="line"/>
      <point x="70" y="622" type="line"/>
      <point x="70" y="563" type="line"/>
      <point x="353" y="563" type="line"/>
    </contour>
  </outline>
</glyph>
<glyph name="radical" format="1">
  <advance width="645"/>
  <unicode hex="221A"/>
  <outline>
    <contour>
      <point x="135" y="250" type="line"/>
      <point x="258" y="-136" type="line"/>
      <point x="326" y="-136" type="line"/>
      <point x="590" y="699" type="line"/>
      <point x="522" y="699" type="line"/>
      <point x="292" y="-59" type="line"/>
      <point x="203" y="250" type="line"/>
    </contour>
    <contour>
      <point x="178" y="250" type="line"/>
      <point x="75" y="250" type="line"/>
      <point x="75" y="191" type="line"/>
      <point x="178" y="191" type="line"/>
    </contour>
  </outline>
</glyph>
<glyph name="approxequal" format="1">
  <advance width="472"/>
  <unicode hex="2248"/>
  <outline>
    <contour>
      <point x="317" y="386" type="curve" smooth="yes"/>
      <point x="343" y="386" type="line"/>
      <point x="399" y="386"/>
      <point x="421" y="416"/>
      <point x="421" y="462" type="curve" smooth="yes"/>
      <point x="421" y="522" type="line"/>
      <point x="357" y="522" type="line"/>
      <point x="357" y="476" type="line" smooth="yes"/>
      <point x="357" y="453"/>
      <point x="354" y="441"/>
      <point x="330" y="441" type="curve" smooth="yes"/>
      <point x="251" y="441"/>
      <point x="238" y="523"/>
      <point x="157" y="523" type="curve" smooth="yes"/>
      <point x="128" y="523" type="line" smooth="yes"/>
      <point x="73" y="523"/>
      <point x="51" y="494"/>
      <point x="51" y="447" type="curve" smooth="yes"/>
      <point x="51" y="387" type="line"/>
      <point x="115" y="387" type="line"/>
      <point x="115" y="434" type="line" smooth="yes"/>
      <point x="115" y="455"/>
      <point x="120" y="468"/>
      <point x="145" y="468" type="curve" smooth="yes"/>
      <point x="215" y="468"/>
      <point x="222" y="386"/>
    </contour>
    <contour>
      <point x="317" y="216" type="curve" smooth="yes"/>
      <point x="343" y="216" type="line"/>
      <point x="399" y="216"/>
      <point x="421" y="246"/>
      <point x="421" y="292" type="curve"/>
      <point x="421" y="352" type="line"/>
      <point x="357" y="352" type="line"/>
      <point x="357" y="306" type="line"/>
      <point x="357" y="283"/>
      <point x="354" y="271"/>
      <point x="330" y="271" type="curve" smooth="yes"/>
      <point x="251" y="271"/>
      <point x="238" y="353"/>
      <point x="157" y="353" type="curve" smooth="yes"/>
      <point x="128" y="353" type="line"/>
      <point x="73" y="353"/>
      <point x="51" y="324"/>
      <point x="51" y="277" type="curve"/>
      <point x="51" y="217" type="line"/>
      <point x="115" y="217" type="line"/>
      <point x="115" y="264" type="line"/>
      <point x="115" y="285"/>
      <point x="120" y="298"/>
      <point x="145" y="298" type="curve" smooth="yes"/>
      <point x="215" y="298"/>
      <point x="222" y="216"/>
    </contour>
  </outline>
</glyph>
<glyph name="notequal" format="1">
  <advance width="474"/>
  <unicode hex="2260"/>
  <outline>
    <contour>
      <point x="50" y="208" type="line"/>
      <point x="424" y="208" type="line"/>
      <point x="424" y="266" type="line"/>
      <point x="50" y="266" type="line"/>
    </contour>
    <contour>
      <point x="50" y="364" type="line"/>
      <point x="424" y="364" type="line"/>
      <point x="424" y="422" type="line"/>
      <point x="50" y="422" type="line"/>
    </contour>
    <contour>
      <point x="304" y="516" type="line"/>
      <point x="115" y="108" type="line"/>
      <point x="170" y="108" type="line"/>
      <point x="359" y="516" type="line"/>
    </contour>
  </outline>
</glyph>
<glyph name="greaterequal" format="1">
  <advance width="434"/>
  <unicode hex="2265"/>
  <outline>
    <contour>
      <point x="302" y="356" type="line"/>
      <point x="50" y="266" type="line"/>
      <point x="50" y="201" type="line"/>
      <point x="384" y="333" type="line"/>
      <point x="384" y="383" type="line"/>
      <point x="50" y="508" type="line"/>
      <point x="50" y="444" type="line"/>
    </contour>
    <contour>
      <point x="50" y="108" type="line"/>
      <point x="384" y="108" type="line"/>
      <point x="384" y="165" type="line"/>
      <point x="50" y="165" type="line"/>
    </contour>
  </outline>
</glyph>
<glyph name="lozenge" format="1">
  <advance width="446"/>
  <unicode hex="25CA"/>
  <outline>
    <contour>
      <point x="415" y="311" type="line"/>
      <point x="260" y="622" type="line"/>
      <point x="203" y="622" type="line"/>
      <point x="48" y="311" type="line"/>
      <point x="120" y="311" type="line"/>
      <point x="232" y="553" type="line"/>
      <point x="343" y="311" type="line"/>
    </contour>
    <contour>
      <point x="343" y="311" type="line"/>
      <point x="232" y="70" type="line"/>
      <point x="120" y="311" type="line"/>
      <point x="48" y="311" type="line"/>
      <point x="203" y="0" type="line"/>
      <point x="260" y="0" type="line"/>
      <point x="415" y="311" type="line"/>
    </contour>
  </outline>
</glyph>
<glyph name="Delta.math" format="1">
  <advance width="462"/>
  <outline>
    <contour>
      <point x="22" y="64" type="line"/>
      <point x="174" y="622" type="line"/>
      <point x="285" y="622" type="line"/>
      <point x="428" y="67" type="line"/>
      <point x="428" y="0" type="line"/>
      <point x="22" y="0" type="line"/>
    </contour>
    <contour>
      <point x="226" y="543" type="line"/>
      <point x="214" y="472"/>
      <point x="189" y="374"/>
      <point x="166" y="294" type="curve" smooth="yes"/>
      <point x="97" y="59" type="line"/>
      <point x="342" y="59" type="line"/>
      <point x="285" y="292" type="line" smooth="yes"/>
      <point x="265" y="374"/>
      <point x="238" y="479"/>
      <point x="227" y="543" type="curve"/>
    </contour>
  </outline>
</glyph>
<glyph name="Lcaron" format="1">
  <advance width="271"/>
  <outline>
    <contour>
      <point x="159" y="621" type="line"/>
      <point x="159" y="461" type="line"/>
      <point x="186" y="461" type="line"/>
      <point x="221" y="582" type="line"/>
      <point x="221" y="621" type="line"/>
    </contour>
    <contour>
      <point x="55" y="622" type="line"/>
      <point x="55" y="0" type="line"/>
      <point x="123" y="0" type="line"/>
      <point x="123" y="622" type="line"/>
    </contour>
    <contour>
      <point x="96" y="0" type="line"/>
      <point x="266" y="0" type="line"/>
      <point x="266" y="59" type="line"/>
      <point x="96" y="59" type="line"/>
    </contour>
  </outline>
</glyph>
<glyph name="dvA" format="1">
  <advance width="500"/>
  <outline>
    <contour>
      <point x="411" y="622" type="move" name="topmiddle"/>
    </contour>
    <contour>
      <point x="377" y="622" type="line"/>
      <point x="377" y="0" type="line"/>
      <point x="445" y="0" type="line"/>
      <point x="445" y="622" type="line"/>
    </contour>
    <contour>
      <point x="189" y="347" type="line"/>
      <point x="230" y="289" type="line"/>
      <point x="424" y="289" type="line"/>
      <point x="424" y="347" type="line"/>
    </contour>
    <contour>
      <point x="399" y="622" type="line"/>
      <point x="399" y="563" type="line"/>
      <point x="520" y="563" type="line"/>
      <point x="520" y="622" type="line"/>
    </contour>
    <contour>
      <point x="192" y="622" type="curve"/>
      <point x="109" y="622" type="line" smooth="yes"/>
      <point x="56" y="622"/>
      <point x="30" y="596"/>
      <point x="30" y="543" type="curve" smooth="yes"/>
      <point x="30" y="447" type="line"/>
      <point x="99" y="447" type="line"/>
      <point x="99" y="532" type="line" smooth="yes"/>
      <point x="99" y="558"/>
      <point x="104" y="563"/>
      <point x="130" y="563" type="curve" smooth="yes"/>
      <point x="171" y="563" type="line" smooth="yes"/>
      <point x="197" y="563"/>
      <point x="202" y="558"/>
      <point x="202" y="532" type="curve" smooth="yes"/>
      <point x="202" y="411" type="line" smooth="yes"/>
      <point x="202" y="385"/>
      <point x="194" y="377"/>
      <point x="168" y="377" type="curve" smooth="yes"/>
      <point x="100" y="377" type="line"/>
      <point x="100" y="318" type="line"/>
      <point x="168" y="318" type="line" smooth="yes"/>
      <point x="194" y="318"/>
      <point x="202" y="310"/>
      <point x="202" y="284" type="curve" smooth="yes"/>
      <point x="202" y="168" type="line" smooth="yes"/>
      <point x="202" y="142"/>
      <point x="197" y="137"/>
      <point x="171" y="137" type="curve" smooth="yes"/>
      <point x="130" y="137" type="line" smooth="yes"/>
      <point x="104" y="137"/>
      <point x="99" y="142"/>
      <point x="99" y="168" type="curve" smooth="yes"/>
      <point x="99" y="253" type="line"/>
      <point x="30" y="253" type="line"/>
      <point x="30" y="157" type="line" smooth="yes"/>
      <point x="30" y="104"/>
      <point x="56" y="78"/>
      <point x="109" y="78" type="curve" smooth="yes"/>
      <point x="192" y="78" type="line" smooth="yes"/>
      <point x="245" y="78"/>
      <point x="271" y="104"/>
      <point x="271" y="157" type="curve" smooth="yes"/>
      <point x="271" y="301" type="line"/>
      <point x="271" y="330"/>
      <point x="257" y="345"/>
      <point x="234" y="347" type="curve"/>
      <point x="234" y="349" type="line"/>
      <point x="257" y="351"/>
      <point x="271" y="367"/>
      <point x="271" y="396" type="curve" smooth="yes"/>
      <point x="271" y="543" type="line" smooth="yes"/>
      <point x="271" y="596"/>
      <point x="245" y="622"/>
    </contour>
  </outline>
</glyph>
<glyph name="dvBA" format="1">
  <advance width="384"/>
  <outline>
    <contour>
      <point x="-20" y="622" type="line"/>
      <point x="-20" y="563" type="line"/>
      <point x="404" y="563" type="line"/>
      <point x="404" y="622" type="line"/>
    </contour>
    <contour>
      <point x="220" y="485" type="line"/>
      <point x="129" y="485" type="line" smooth="yes"/>
      <point x="76" y="485"/>
      <point x="50" y="459"/>
      <point x="50" y="406" type="curve" smooth="yes"/>
      <point x="50" y="157" type="line" smooth="yes"/>
      <point x="50" y="104"/>
      <point x="76" y="78"/>
      <point x="129" y="78" type="curve" smooth="yes"/>
      <point x="228" y="78" type="line" smooth="yes"/>
      <point x="258" y="78"/>
      <point x="271" y="89"/>
      <point x="271" y="125" type="curve"/>
      <point x="260" y="171" type="line"/>
      <point x="260" y="145"/>
      <point x="252" y="137"/>
      <point x="226" y="137" type="curve" smooth="yes"/>
      <point x="150" y="137" type="line" smooth="yes"/>
      <point x="124" y="137"/>
      <point x="119" y="142"/>
      <point x="119" y="168" type="curve" smooth="yes"/>
      <point x="119" y="395" type="line"/>
      <point x="119" y="395"/>
      <point x="134" y="356"/>
      <point x="170" y="288" type="curve" smooth="yes"/>
      <point x="265" y="110" type="line"/>
      <point x="260" y="98" type="line"/>
      <point x="260" y="0" type="line"/>
      <point x="329" y="0" type="line"/>
      <point x="329" y="594" type="line"/>
      <point x="260" y="594" type="line"/>
      <point x="260" y="325" type="line" smooth="yes"/>
      <point x="260" y="236"/>
      <point x="266" y="190"/>
      <point x="266" y="190" type="curve"/>
      <point x="266" y="190"/>
      <point x="246" y="239"/>
      <point x="220" y="286" type="curve" smooth="yes"/>
      <point x="144" y="426" type="line"/>
      <point x="220" y="426" type="line"/>
    </contour>
  </outline>
</glyph>
<glyph name="dvBH_R_YA" format="1">
  <advance width="798"/>
  <outline>
    <contour>
      <point x="335" y="622" type="line"/>
      <point x="335" y="563" type="line"/>
      <point x="818" y="563" type="line"/>
      <point x="818" y="622" type="line"/>
    </contour>
    <contour>
      <point x="674" y="592" type="line"/>
      <point x="674" y="0" type="line"/>
      <point x="743" y="0" type="line"/>
      <point x="743" y="592" type="line"/>
    </contour>
    <contour>
      <point x="585" y="421" type="curve"/>
      <point x="585" y="536" type="line" smooth="yes"/>
      <point x="585" y="564"/>
      <point x="572" y="571"/>
      <point x="550" y="571" type="curve"/>
      <point x="470" y="563" type="line"/>
      <point x="514" y="563"/>
      <point x="516" y="559"/>
      <point x="516" y="531" type="curve" smooth="yes"/>
      <point x="516" y="432" type="line" smooth="yes"/>
      <point x="516" y="406"/>
      <point x="511" y="401"/>
      <point x="485" y="401" type="curve" smooth="yes"/>
      <point x="405" y="401" type="line"/>
      <point x="405" y="157" type="line" smooth="yes"/>
      <point x="405" y="104"/>
      <point x="431" y="78"/>
      <point x="484" y="78" type="curve" smooth="yes"/>
      <point x="642" y="78" type="line" smooth="yes"/>
      <point x="672" y="78"/>
      <point x="685" y="89"/>
      <point x="685" y="125" type="curve"/>
      <point x="674" y="171" type="line"/>
      <point x="674" y="145"/>
      <point x="666" y="137"/>
      <point x="640" y="137" type="curve" smooth="yes"/>
      <point x="505" y="137" type="line" smooth="yes"/>
      <point x="479" y="137"/>
      <point x="474" y="142"/>
      <point x="474" y="168" type="curve" smooth="yes"/>
      <point x="474" y="342" type="line"/>
      <point x="506" y="342" type="line" smooth="yes"/>
      <point x="559" y="342"/>
      <point x="585" y="368"/>
    </contour>
    <contour>
      <point x="408" y="242" type="line"/>
      <point x="143" y="-50" type="line"/>
      <point x="228" y="-50" type="line"/>
      <point x="424" y="166" type="line"/>
    </contour>
    <contour>
      <point x="213" y="622" type="curve"/>
      <point x="132" y="622" type="line" smooth="yes"/>
      <point x="79" y="622"/>
      <point x="53" y="596"/>
      <point x="53" y="543" type="curve" smooth="yes"/>
      <point x="53" y="476" type="line"/>
      <point x="122" y="476" type="line"/>
      <point x="122" y="532" type="line" smooth="yes"/>
      <point x="122" y="558"/>
      <point x="127" y="563"/>
      <point x="153" y="563" type="curve" smooth="yes"/>
      <point x="192" y="563" type="line" smooth="yes"/>
      <point x="218" y="563"/>
      <point x="223" y="558"/>
      <point x="223" y="532" type="curve" smooth="yes"/>
      <point x="223" y="218" type="line" smooth="yes"/>
      <point x="223" y="192"/>
      <point x="218" y="187"/>
      <point x="192" y="187" type="curve" smooth="yes"/>
      <point x="145" y="187" type="line" smooth="yes"/>
      <point x="119" y="187"/>
      <point x="114" y="192"/>
      <point x="114" y="218" type="curve" smooth="yes"/>
      <point x="114" y="311" type="line" smooth="yes"/>
      <point x="114" y="337"/>
      <point x="119" y="342"/>
      <point x="145" y="342" type="curve" smooth="yes"/>
      <point x="426" y="342" type="line"/>
      <point x="426" y="401" type="line"/>
      <point x="124" y="401" type="line" smooth="yes"/>
      <point x="71" y="401"/>
      <point x="45" y="375"/>
      <point x="45" y="322" type="curve" smooth="yes"/>
      <point x="45" y="207" type="line" smooth="yes"/>
      <point x="45" y="154"/>
      <point x="71" y="128"/>
      <point x="124" y="128" type="curve" smooth="yes"/>
      <point x="213" y="128" type="line" smooth="yes"/>
      <point x="266" y="128"/>
      <point x="292" y="154"/>
      <point x="292" y="207" type="curve" smooth="yes"/>
      <point x="292" y="543" type="line" smooth="yes"/>
      <point x="292" y="596"/>
      <point x="266" y="622"/>
    </contour>
  </outline>
</glyph>
<glyph name="dvBH_VA" format="1">
  <advance width="695"/>
  <outline>
    <contour>
      <point x="213" y="622" type="curve"/>
      <point x="132" y="622" type="line" smooth="yes"/>
      <point x="79" y="622"/>
      <point x="53" y="596"/>
      <point x="53" y="543" type="curve" smooth="yes"/>
      <point x="53" y="476" type="line"/>
      <point x="122" y="476" type="line"/>
      <point x="122" y="532" type="line" smooth="yes"/>
      <point x="122" y="558"/>
      <point x="127" y="563"/>
      <point x="153" y="563" type="curve" smooth="yes"/>
      <point x="192" y="563" type="line" smooth="yes"/>
      <point x="218" y="563"/>
      <point x="223" y="558"/>
      <point x="223" y="532" type="curve" smooth="yes"/>
      <point x="223" y="168" type="line" smooth="yes"/>
      <point x="223" y="142"/>
      <point x="218" y="137"/>
      <point x="192" y="137" type="curve" smooth="yes"/>
      <point x="145" y="137" type="line" smooth="yes"/>
      <point x="119" y="137"/>
      <point x="114" y="142"/>
      <point x="114" y="168" type="curve" smooth="yes"/>
      <point x="114" y="311" type="line" smooth="yes"/>
      <point x="114" y="337"/>
      <point x="119" y="342"/>
      <point x="145" y="342" type="curve" smooth="yes"/>
      <point x="405" y="342" type="line"/>
      <point x="405" y="401" type="line"/>
      <point x="124" y="401" type="line" smooth="yes"/>
      <point x="71" y="401"/>
      <point x="45" y="375"/>
      <point x="45" y="322" type="curve" smooth="yes"/>
      <point x="45" y="157" type="line" smooth="yes"/>
      <point x="45" y="104"/>
      <point x="71" y="78"/>
      <point x="124" y="78" type="curve" smooth="yes"/>
      <point x="213" y="78" type="line" smooth="yes"/>
      <point x="266" y="78"/>
      <point x="292" y="104"/>
      <point x="292" y="157" type="curve" smooth="yes"/>
      <point x="292" y="543" type="line" smooth="yes"/>
      <point x="292" y="596"/>
      <point x="266" y="622"/>
    </contour>
    <contour>
      <point x="337" y="622" type="line"/>
      <point x="337" y="563" type="line"/>
      <point x="715" y="563" type="line"/>
      <point x="715" y="622" type="line"/>
    </contour>
    <contour>
      <point x="571" y="594" type="line"/>
      <point x="571" y="0" type="line"/>
      <point x="640" y="0" type="line"/>
      <point x="640" y="594" type="line"/>
    </contour>
    <contour>
      <point x="531" y="485" type="line"/>
      <point x="476" y="485" type="line" smooth="yes"/>
      <point x="423" y="485"/>
      <point x="397" y="459"/>
      <point x="397" y="406" type="curve" smooth="yes"/>
      <point x="397" y="157" type="line" smooth="yes"/>
      <point x="397" y="104"/>
      <point x="423" y="78"/>
      <point x="476" y="78" type="curve" smooth="yes"/>
      <point x="539" y="78" type="line" smooth="yes"/>
      <point x="569" y="78"/>
      <point x="582" y="89"/>
      <point x="582" y="125" type="curve"/>
      <point x="571" y="171" type="line"/>
      <point x="571" y="145"/>
      <point x="563" y="137"/>
      <point x="537" y="137" type="curve" smooth="yes"/>
      <point x="497" y="137" type="line" smooth="yes"/>
      <point x="471" y="137"/>
      <point x="466" y="142"/>
      <point x="466" y="168" type="curve" smooth="yes"/>
      <point x="466" y="395" type="line" smooth="yes"/>
      <point x="466" y="421"/>
      <point x="471" y="426"/>
      <point x="497" y="426" type="curve" smooth="yes"/>
      <point x="531" y="426" type="line"/>
    </contour>
  </outline>
</glyph>
<glyph name="dvBH_YA" format="1">
  <advance width="773"/>
  <outline>
    <contour>
      <point x="213" y="622" type="curve"/>
      <point x="132" y="622" type="line" smooth="yes"/>
      <point x="79" y="622"/>
      <point x="53" y="596"/>
      <point x="53" y="543" type="curve" smooth="yes"/>
      <point x="53" y="476" type="line"/>
      <point x="122" y="476" type="line"/>
      <point x="122" y="532" type="line" smooth="yes"/>
      <point x="122" y="558"/>
      <point x="127" y="563"/>
      <point x="153" y="563" type="curve" smooth="yes"/>
      <point x="192" y="563" type="line" smooth="yes"/>
      <point x="218" y="563"/>
      <point x="223" y="558"/>
      <point x="223" y="532" type="curve" smooth="yes"/>
      <point x="223" y="168" type="line" smooth="yes"/>
      <point x="223" y="142"/>
      <point x="218" y="137"/>
      <point x="192" y="137" type="curve" smooth="yes"/>
      <point x="145" y="137" type="line" smooth="yes"/>
      <point x="119" y="137"/>
      <point x="114" y="142"/>
      <point x="114" y="168" type="curve" smooth="yes"/>
      <point x="114" y="311" type="line" smooth="yes"/>
      <point x="114" y="337"/>
      <point x="119" y="342"/>
      <point x="145" y="342" type="curve" smooth="yes"/>
      <point x="425" y="342" type="line"/>
      <point x="425" y="401" type="line"/>
      <point x="124" y="401" type="line" smooth="yes"/>
      <point x="71" y="401"/>
      <point x="45" y="375"/>
      <point x="45" y="322" type="curve" smooth="yes"/>
      <point x="45" y="157" type="line" smooth="yes"/>
      <point x="45" y="104"/>
      <point x="71" y="78"/>
      <point x="124" y="78" type="curve" smooth="yes"/>
      <point x="213" y="78" type="line" smooth="yes"/>
      <point x="266" y="78"/>
      <point x="292" y="104"/>
      <point x="292" y="157" type="curve" smooth="yes"/>
      <point x="292" y="543" type="line" smooth="yes"/>
      <point x="292" y="596"/>
      <point x="266" y="622"/>
    </contour>
    <contour>
      <point x="380" y="622" type="line"/>
      <point x="380" y="563" type="line"/>
      <point x="793" y="563" type="line"/>
      <point x="793" y="622" type="line"/>
    </contour>
    <contour>
      <point x="649" y="592" type="line"/>
      <point x="649" y="0" type="line"/>
      <point x="718" y="0" type="line"/>
      <point x="718" y="592" type="line"/>
    </contour>
    <contour>
      <point x="560" y="421" type="curve"/>
      <point x="560" y="536" type="line" smooth="yes"/>
      <point x="560" y="564"/>
      <point x="547" y="571"/>
      <point x="525" y="571" type="curve"/>
      <point x="445" y="563" type="line"/>
      <point x="489" y="563"/>
      <point x="491" y="559"/>
      <point x="491" y="531" type="curve" smooth="yes"/>
      <point x="491" y="432" type="line" smooth="yes"/>
      <point x="491" y="406"/>
      <point x="486" y="401"/>
      <point x="460" y="401" type="curve" smooth="yes"/>
      <point x="380" y="401" type="line"/>
      <point x="380" y="157" type="line" smooth="yes"/>
      <point x="380" y="104"/>
      <point x="406" y="78"/>
      <point x="459" y="78" type="curve" smooth="yes"/>
      <point x="617" y="78" type="line" smooth="yes"/>
      <point x="647" y="78"/>
      <point x="660" y="89"/>
      <point x="660" y="125" type="curve"/>
      <point x="649" y="171" type="line"/>
      <point x="649" y="145"/>
      <point x="641" y="137"/>
      <point x="615" y="137" type="curve" smooth="yes"/>
      <point x="480" y="137" type="line" smooth="yes"/>
      <point x="454" y="137"/>
      <point x="449" y="142"/>
      <point x="449" y="168" type="curve" smooth="yes"/>
      <point x="449" y="342" type="line"/>
      <point x="481" y="342" type="line" smooth="yes"/>
      <point x="534" y="342"/>
      <point x="560" y="368"/>
    </contour>
  </outline>
</glyph>
<glyph name="dvB_BA" format="1">
  <advance width="599"/>
  <outline>
    <contour>
      <point x="-20" y="622" type="line"/>
      <point x="-20" y="563" type="line"/>
      <point x="619" y="563" type="line"/>
      <point x="619" y="622" type="line"/>
    </contour>
    <contour>
      <point x="225" y="485" type="line"/>
      <point x="134" y="485" type="line" smooth="yes"/>
      <point x="81" y="485"/>
      <point x="55" y="459"/>
      <point x="55" y="406" type="curve" smooth="yes"/>
      <point x="55" y="157" type="line" smooth="yes"/>
      <point x="55" y="104"/>
      <point x="81" y="78"/>
      <point x="134" y="78" type="curve" smooth="yes"/>
      <point x="236" y="78" type="line" smooth="yes"/>
      <point x="274" y="78"/>
      <point x="290" y="90"/>
      <point x="294" y="125" type="curve"/>
      <point x="265" y="171" type="line"/>
      <point x="265" y="145"/>
      <point x="257" y="137"/>
      <point x="231" y="137" type="curve" smooth="yes"/>
      <point x="155" y="137" type="line" smooth="yes"/>
      <point x="129" y="137"/>
      <point x="124" y="142"/>
      <point x="124" y="168" type="curve" smooth="yes"/>
      <point x="124" y="395" type="line"/>
      <point x="124" y="395"/>
      <point x="139" y="356"/>
      <point x="175" y="288" type="curve" smooth="yes"/>
      <point x="258" y="132" type="line"/>
      <point x="269" y="125" type="line"/>
      <point x="278" y="94"/>
      <point x="303" y="78"/>
      <point x="344" y="78" type="curve" smooth="yes"/>
      <point x="443" y="78" type="line" smooth="yes"/>
      <point x="473" y="78"/>
      <point x="486" y="89"/>
      <point x="486" y="125" type="curve"/>
      <point x="475" y="171" type="line"/>
      <point x="475" y="145"/>
      <point x="467" y="137"/>
      <point x="441" y="137" type="curve" smooth="yes"/>
      <point x="365" y="137" type="line" smooth="yes"/>
      <point x="339" y="137"/>
      <point x="334" y="142"/>
      <point x="334" y="168" type="curve" smooth="yes"/>
      <point x="334" y="395" type="line"/>
      <point x="334" y="395"/>
      <point x="349" y="356"/>
      <point x="385" y="288" type="curve" smooth="yes"/>
      <point x="480" y="110" type="line"/>
      <point x="475" y="98" type="line"/>
      <point x="475" y="0" type="line"/>
      <point x="544" y="0" type="line"/>
      <point x="544" y="594" type="line"/>
      <point x="475" y="594" type="line"/>
      <point x="475" y="325" type="line" smooth="yes"/>
      <point x="475" y="236"/>
      <point x="481" y="190"/>
      <point x="481" y="190" type="curve"/>
      <point x="481" y="190"/>
      <point x="461" y="239"/>
      <point x="435" y="286" type="curve" smooth="yes"/>
      <point x="359" y="426" type="line"/>
      <point x="435" y="426" type="line"/>
      <point x="435" y="485" type="line"/>
      <point x="344" y="485" type="line" smooth="yes"/>
      <point x="291" y="485"/>
      <point x="265" y="459"/>
      <point x="265" y="406" type="curve"/>
      <point x="265" y="271" type="line" smooth="yes"/>
      <point x="265" y="213"/>
      <point x="271" y="190"/>
      <point x="271" y="190" type="curve"/>
      <point x="271" y="190"/>
      <point x="251" y="239"/>
      <point x="225" y="286" type="curve" smooth="yes"/>
      <point x="149" y="426" type="line"/>
      <point x="225" y="426" type="line"/>
    </contour>
  </outline>
</glyph>
<glyph name="dvB_BHA" format="1">
  <advance width="749"/>
  <outline>
    <contour>
      <point x="-20" y="622" type="line"/>
      <point x="-20" y="563" type="line"/>
      <point x="225" y="563" type="line"/>
      <point x="225" y="622" type="line"/>
    </contour>
    <contour>
      <point x="258" y="132" type="line"/>
      <point x="270" y="121" type="line"/>
      <point x="280" y="92"/>
      <point x="305" y="78"/>
      <point x="344" y="78" type="curve" smooth="yes"/>
      <point x="433" y="78" type="line" smooth="yes"/>
      <point x="486" y="78"/>
      <point x="512" y="104"/>
      <point x="512" y="157" type="curve" smooth="yes"/>
      <point x="512" y="543" type="line" smooth="yes"/>
      <point x="512" y="596"/>
      <point x="486" y="622"/>
      <point x="433" y="622" type="curve" smooth="yes"/>
      <point x="352" y="622" type="line" smooth="yes"/>
      <point x="299" y="622"/>
      <point x="273" y="596"/>
      <point x="273" y="543" type="curve" smooth="yes"/>
      <point x="273" y="476" type="line"/>
      <point x="342" y="476" type="line"/>
      <point x="342" y="532" type="line" smooth="yes"/>
      <point x="342" y="558"/>
      <point x="347" y="563"/>
      <point x="373" y="563" type="curve" smooth="yes"/>
      <point x="412" y="563" type="line" smooth="yes"/>
      <point x="438" y="563"/>
      <point x="443" y="558"/>
      <point x="443" y="532" type="curve" smooth="yes"/>
      <point x="443" y="168" type="line" smooth="yes"/>
      <point x="443" y="142"/>
      <point x="438" y="137"/>
      <point x="412" y="137" type="curve" smooth="yes"/>
      <point x="365" y="137" type="line" smooth="yes"/>
      <point x="339" y="137"/>
      <point x="334" y="142"/>
      <point x="334" y="168" type="curve" smooth="yes"/>
      <point x="334" y="311" type="line" smooth="yes"/>
      <point x="334" y="337"/>
      <point x="339" y="342"/>
      <point x="365" y="342" type="curve" smooth="yes"/>
      <point x="646" y="342" type="line"/>
      <point x="646" y="401" type="line"/>
      <point x="344" y="401" type="line" smooth="yes"/>
      <point x="291" y="401"/>
      <point x="265" y="375"/>
      <point x="265" y="322" type="curve" smooth="yes"/>
      <point x="265" y="271" type="line" smooth="yes"/>
      <point x="265" y="213"/>
      <point x="271" y="190"/>
      <point x="271" y="190" type="curve"/>
      <point x="271" y="190"/>
      <point x="251" y="239"/>
      <point x="225" y="286" type="curve" smooth="yes"/>
      <point x="149" y="426" type="line"/>
      <point x="225" y="426" type="line"/>
      <point x="225" y="485" type="line"/>
      <point x="134" y="485" type="line" smooth="yes"/>
      <point x="81" y="485"/>
      <point x="55" y="459"/>
      <point x="55" y="406" type="curve" smooth="yes"/>
      <point x="55" y="157" type="line" smooth="yes"/>
      <point x="55" y="104"/>
      <point x="81" y="78"/>
      <point x="134" y="78" type="curve" smooth="yes"/>
      <point x="236" y="78" type="line" smooth="yes"/>
      <point x="274" y="78"/>
      <point x="290" y="90"/>
      <point x="294" y="125" type="curve"/>
      <point x="265" y="171" type="line"/>
      <point x="265" y="145"/>
      <point x="257" y="137"/>
      <point x="231" y="137" type="curve" smooth="yes"/>
      <point x="155" y="137" type="line" smooth="yes"/>
      <point x="129" y="137"/>
      <point x="124" y="142"/>
      <point x="124" y="168" type="curve" smooth="yes"/>
      <point x="124" y="395" type="line"/>
      <point x="124" y="395"/>
      <point x="139" y="356"/>
      <point x="175" y="288" type="curve" smooth="yes"/>
    </contour>
    <contour>
      <point x="625" y="597" type="line"/>
      <point x="625" y="0" type="line"/>
      <point x="694" y="0" type="line"/>
      <point x="694" y="597" type="line"/>
    </contour>
    <contour>
      <point x="625" y="622" type="line"/>
      <point x="625" y="563" type="line"/>
      <point x="769" y="563" type="line"/>
      <point x="769" y="622" type="line"/>
    </contour>
  </outline>
</glyph>
<glyph name="dvB_BH_RA" format="1">
  <advance width="744"/>
  <outline>
    <contour>
      <point x="220" y="485" type="line"/>
      <point x="129" y="485" type="line" smooth="yes"/>
      <point x="76" y="485"/>
      <point x="50" y="459"/>
      <point x="50" y="406" type="curve" smooth="yes"/>
      <point x="50" y="157" type="line" smooth="yes"/>
      <point x="50" y="104"/>
      <point x="76" y="78"/>
      <point x="129" y="78" type="curve" smooth="yes"/>
      <point x="234" y="78" type="line" smooth="yes"/>
      <point x="285" y="78"/>
      <point x="308" y="102"/>
      <point x="315" y="145" type="curve"/>
      <point x="260" y="171" type="line"/>
      <point x="260" y="145"/>
      <point x="252" y="137"/>
      <point x="226" y="137" type="curve" smooth="yes"/>
      <point x="150" y="137" type="line" smooth="yes"/>
      <point x="124" y="137"/>
      <point x="119" y="142"/>
      <point x="119" y="168" type="curve" smooth="yes"/>
      <point x="119" y="395" type="line"/>
      <point x="119" y="395"/>
      <point x="134" y="356"/>
      <point x="170" y="288" type="curve" smooth="yes"/>
      <point x="253" y="132" type="line"/>
      <point x="278" y="149" type="line"/>
      <point x="291" y="135"/>
      <point x="312" y="128"/>
      <point x="339" y="128" type="curve" smooth="yes"/>
      <point x="428" y="128" type="line" smooth="yes"/>
      <point x="481" y="128"/>
      <point x="507" y="154"/>
      <point x="507" y="207" type="curve" smooth="yes"/>
      <point x="507" y="543" type="line" smooth="yes"/>
      <point x="507" y="596"/>
      <point x="481" y="622"/>
      <point x="428" y="622" type="curve" smooth="yes"/>
      <point x="347" y="622" type="line" smooth="yes"/>
      <point x="294" y="622"/>
      <point x="268" y="596"/>
      <point x="268" y="543" type="curve" smooth="yes"/>
      <point x="268" y="476" type="line"/>
      <point x="337" y="476" type="line"/>
      <point x="337" y="532" type="line" smooth="yes"/>
      <point x="337" y="558"/>
      <point x="342" y="563"/>
      <point x="368" y="563" type="curve" smooth="yes"/>
      <point x="407" y="563" type="line" smooth="yes"/>
      <point x="433" y="563"/>
      <point x="438" y="558"/>
      <point x="438" y="532" type="curve" smooth="yes"/>
      <point x="438" y="218" type="line" smooth="yes"/>
      <point x="438" y="192"/>
      <point x="433" y="187"/>
      <point x="407" y="187" type="curve" smooth="yes"/>
      <point x="360" y="187" type="line" smooth="yes"/>
      <point x="334" y="187"/>
      <point x="329" y="192"/>
      <point x="329" y="218" type="curve" smooth="yes"/>
      <point x="329" y="311" type="line" smooth="yes"/>
      <point x="329" y="337"/>
      <point x="334" y="342"/>
      <point x="360" y="342" type="curve" smooth="yes"/>
      <point x="641" y="342" type="line"/>
      <point x="641" y="401" type="line"/>
      <point x="339" y="401" type="line" smooth="yes"/>
      <point x="286" y="401"/>
      <point x="260" y="375"/>
      <point x="260" y="322" type="curve" smooth="yes"/>
      <point x="260" y="271" type="line" smooth="yes"/>
      <point x="260" y="213"/>
      <point x="266" y="190"/>
      <point x="266" y="190" type="curve"/>
      <point x="266" y="190"/>
      <point x="246" y="239"/>
      <point x="220" y="286" type="curve" smooth="yes"/>
      <point x="144" y="426" type="line"/>
      <point x="220" y="426" type="line"/>
    </contour>
    <contour>
      <point x="620" y="622" type="line"/>
      <point x="620" y="563" type="line"/>
      <point x="764" y="563" type="line"/>
      <point x="764" y="622" type="line"/>
    </contour>
    <contour>
      <point x="620" y="599" type="line"/>
      <point x="620" y="239" type="line"/>
      <point x="358" y="-50" type="line"/>
      <point x="443" y="-50" type="line"/>
      <point x="620" y="147" type="line"/>
      <point x="620" y="0" type="line"/>
      <point x="689" y="0" type="line"/>
      <point x="689" y="599" type="line"/>
    </contour>
    <contour>
      <point x="-20" y="622" type="line"/>
      <point x="-20" y="563" type="line"/>
      <point x="225" y="563" type="line"/>
      <point x="225" y="622" type="line"/>
    </contour>
  </outline>
</glyph>
<glyph name="dvB_DA" format="1">
  <advance width="544"/>
  <outline>
    <contour>
      <point x="537" y="0" type="move" name="blwm.u"/>
    </contour>
    <contour>
      <point x="498" y="-10" type="move" name="blwm.uu"/>
    </contour>
    <contour>
      <point x="503" y="-20" type="move" name="blwm.virama"/>
    </contour>
    <contour>
      <point x="491" y="632" type="move" name="abvm.e"/>
    </contour>
    <contour>
      <point x="491" y="622" type="move" name="abvm.bindu"/>
    </contour>
    <contour>
      <point x="496" y="-20" type="move" name="blwm.vr"/>
    </contour>
    <contour>
      <point x="-20" y="622" type="line"/>
      <point x="-20" y="563" type="line"/>
      <point x="564" y="563" type="line"/>
      <point x="564" y="622" type="line"/>
    </contour>
    <contour>
      <point x="427" y="266" type="line"/>
      <point x="427" y="0" type="line"/>
      <point x="496" y="0" type="line"/>
      <point x="496" y="266" type="line"/>
    </contour>
    <contour>
      <point x="212" y="485" type="line"/>
      <point x="121" y="485" type="line" smooth="yes"/>
      <point x="68" y="485"/>
      <point x="42" y="459"/>
      <point x="42" y="406" type="curve" smooth="yes"/>
      <point x="42" y="157" type="line" smooth="yes"/>
      <point x="42" y="104"/>
      <point x="68" y="78"/>
      <point x="121" y="78" type="curve" smooth="yes"/>
      <point x="223" y="78" type="line" smooth="yes"/>
      <point x="261" y="78"/>
      <point x="277" y="90"/>
      <point x="281" y="125" type="curve"/>
      <point x="252" y="171" type="line"/>
      <point x="252" y="145"/>
      <point x="244" y="137"/>
      <point x="218" y="137" type="curve" smooth="yes"/>
      <point x="142" y="137" type="line" smooth="yes"/>
      <point x="116" y="137"/>
      <point x="111" y="142"/>
      <point x="111" y="168" type="curve" smooth="yes"/>
      <point x="111" y="395" type="line"/>
      <point x="111" y="395"/>
      <point x="126" y="356"/>
      <point x="162" y="288" type="curve" smooth="yes"/>
      <point x="245" y="132" type="line"/>
      <point x="255" y="130" type="line"/>
      <point x="263" y="95"/>
      <point x="288" y="78"/>
      <point x="331" y="78" type="curve" smooth="yes"/>
      <point x="395" y="78" type="line" smooth="yes"/>
      <point x="425" y="78"/>
      <point x="438" y="89"/>
      <point x="438" y="125" type="curve"/>
      <point x="427" y="171" type="line"/>
      <point x="427" y="145"/>
      <point x="419" y="137"/>
      <point x="393" y="137" type="curve" smooth="yes"/>
      <point x="352" y="137" type="line" smooth="yes"/>
      <point x="326" y="137"/>
      <point x="321" y="142"/>
      <point x="321" y="168" type="curve" smooth="yes"/>
      <point x="321" y="395" type="line" smooth="yes"/>
      <point x="321" y="421"/>
      <point x="326" y="426"/>
      <point x="352" y="426" type="curve" smooth="yes"/>
      <point x="489" y="426" type="line"/>
      <point x="489" y="580" type="line"/>
      <point x="420" y="580" type="line"/>
      <point x="420" y="485" type="line"/>
      <point x="331" y="485" type="line" smooth="yes"/>
      <point x="278" y="485"/>
      <point x="252" y="459"/>
      <point x="252" y="406" type="curve" smooth="yes"/>
      <point x="252" y="325" type="line" smooth="yes"/>
      <point x="252" y="236"/>
      <point x="258" y="190"/>
      <point x="258" y="190" type="curve"/>
      <point x="258" y="190"/>
      <point x="238" y="239"/>
      <point x="212" y="286" type="curve" smooth="yes"/>
      <point x="136" y="426" type="line"/>
      <point x="212" y="426" type="line"/>
    </contour>
  </outline>
</glyph>
<glyph name="dvB_DHA" format="1">
  <advance width="637"/>
  <outline>
    <contour>
      <point x="-20" y="622" type="line"/>
      <point x="-20" y="563" type="line"/>
      <point x="225" y="563" type="line"/>
      <point x="225" y="622" type="line"/>
    </contour>
    <contour>
      <point x="225" y="485" type="line"/>
      <point x="134" y="485" type="line" smooth="yes"/>
      <point x="81" y="485"/>
      <point x="55" y="459"/>
      <point x="55" y="406" type="curve" smooth="yes"/>
      <point x="55" y="157" type="line" smooth="yes"/>
      <point x="55" y="104"/>
      <point x="81" y="78"/>
      <point x="134" y="78" type="curve" smooth="yes"/>
      <point x="236" y="78" type="line" smooth="yes"/>
      <point x="274" y="78"/>
      <point x="290" y="90"/>
      <point x="294" y="125" type="curve"/>
      <point x="265" y="171" type="line"/>
      <point x="265" y="145"/>
      <point x="257" y="137"/>
      <point x="231" y="137" type="curve" smooth="yes"/>
      <point x="155" y="137" type="line" smooth="yes"/>
      <point x="129" y="137"/>
      <point x="124" y="142"/>
      <point x="124" y="168" type="curve" smooth="yes"/>
      <point x="124" y="395" type="line"/>
      <point x="124" y="395"/>
      <point x="139" y="356"/>
      <point x="175" y="288" type="curve" smooth="yes"/>
      <point x="258" y="132" type="line"/>
      <point x="268" y="130" type="line"/>
      <point x="276" y="95"/>
      <point x="301" y="78"/>
      <point x="344" y="78" type="curve" smooth="yes"/>
      <point x="481" y="78" type="line" smooth="yes"/>
      <point x="511" y="78"/>
      <point x="524" y="89"/>
      <point x="524" y="125" type="curve"/>
      <point x="513" y="171" type="line"/>
      <point x="513" y="145"/>
      <point x="505" y="137"/>
      <point x="479" y="137" type="curve" smooth="yes"/>
      <point x="365" y="137" type="line" smooth="yes"/>
      <point x="339" y="137"/>
      <point x="334" y="142"/>
      <point x="334" y="168" type="curve" smooth="yes"/>
      <point x="334" y="283" type="line" smooth="yes"/>
      <point x="334" y="309"/>
      <point x="339" y="314"/>
      <point x="365" y="314" type="curve" smooth="yes"/>
      <point x="433" y="314" type="line"/>
      <point x="433" y="373" type="line"/>
      <point x="365" y="373" type="line" smooth="yes"/>
      <point x="339" y="373"/>
      <point x="334" y="378"/>
      <point x="334" y="404" type="curve" smooth="yes"/>
      <point x="334" y="537" type="line" smooth="yes"/>
      <point x="334" y="563"/>
      <point x="339" y="568"/>
      <point x="365" y="568" type="curve" smooth="yes"/>
      <point x="375" y="568" type="line" smooth="yes"/>
      <point x="401" y="568"/>
      <point x="406" y="563"/>
      <point x="406" y="537" type="curve" smooth="yes"/>
      <point x="406" y="492" type="line"/>
      <point x="458" y="492" type="line"/>
      <point x="458" y="548" type="line" smooth="yes"/>
      <point x="458" y="601"/>
      <point x="432" y="627"/>
      <point x="379" y="627" type="curve" smooth="yes"/>
      <point x="344" y="627" type="line" smooth="yes"/>
      <point x="291" y="627"/>
      <point x="265" y="601"/>
      <point x="265" y="548" type="curve" smooth="yes"/>
      <point x="265" y="390" type="line" smooth="yes"/>
      <point x="265" y="361"/>
      <point x="279" y="345"/>
      <point x="302" y="343" type="curve"/>
      <point x="302" y="341" type="line"/>
      <point x="279" y="339"/>
      <point x="265" y="324"/>
      <point x="265" y="295" type="curve"/>
      <point x="265" y="271" type="line" smooth="yes"/>
      <point x="265" y="213"/>
      <point x="271" y="190"/>
      <point x="271" y="190" type="curve"/>
      <point x="271" y="190"/>
      <point x="251" y="239"/>
      <point x="225" y="286" type="curve" smooth="yes"/>
      <point x="149" y="426" type="line"/>
      <point x="225" y="426" type="line"/>
    </contour>
    <contour>
      <point x="513" y="622" type="line"/>
      <point x="513" y="563" type="line"/>
      <point x="657" y="563" type="line"/>
      <point x="657" y="622" type="line"/>
    </contour>
    <contour>
      <point x="513" y="592" type="line"/>
      <point x="513" y="0" type="line"/>
      <point x="582" y="0" type="line"/>
      <point x="582" y="592" type="line"/>
    </contour>
  </outline>
</glyph>
<glyph name="dvB_DH_VA" format="1">
  <advance width="811"/>
  <outline>
    <contour>
      <point x="-20" y="622" type="line"/>
      <point x="-20" y="563" type="line"/>
      <point x="225" y="563" type="line"/>
      <point x="225" y="622" type="line"/>
    </contour>
    <contour>
      <point x="344" y="78" type="curve"/>
      <point x="484" y="78" type="line" smooth="yes"/>
      <point x="522" y="78"/>
      <point x="538" y="90"/>
      <point x="542" y="125" type="curve"/>
      <point x="513" y="171" type="line"/>
      <point x="513" y="145"/>
      <point x="505" y="137"/>
      <point x="479" y="137" type="curve" smooth="yes"/>
      <point x="365" y="137" type="line" smooth="yes"/>
      <point x="339" y="137"/>
      <point x="334" y="142"/>
      <point x="334" y="168" type="curve" smooth="yes"/>
      <point x="334" y="283" type="line" smooth="yes"/>
      <point x="334" y="309"/>
      <point x="339" y="314"/>
      <point x="365" y="314" type="curve" smooth="yes"/>
      <point x="433" y="314" type="line"/>
      <point x="433" y="373" type="line"/>
      <point x="365" y="373" type="line" smooth="yes"/>
      <point x="339" y="373"/>
      <point x="334" y="378"/>
      <point x="334" y="404" type="curve" smooth="yes"/>
      <point x="334" y="537" type="line" smooth="yes"/>
      <point x="334" y="563"/>
      <point x="339" y="568"/>
      <point x="365" y="568" type="curve" smooth="yes"/>
      <point x="375" y="568" type="line" smooth="yes"/>
      <point x="401" y="568"/>
      <point x="406" y="563"/>
      <point x="406" y="537" type="curve" smooth="yes"/>
      <point x="406" y="492" type="line"/>
      <point x="458" y="492" type="line"/>
      <point x="458" y="548" type="line" smooth="yes"/>
      <point x="458" y="601"/>
      <point x="432" y="627"/>
      <point x="379" y="627" type="curve" smooth="yes"/>
      <point x="344" y="627" type="line" smooth="yes"/>
      <point x="291" y="627"/>
      <point x="265" y="601"/>
      <point x="265" y="548" type="curve" smooth="yes"/>
      <point x="265" y="390" type="line" smooth="yes"/>
      <point x="265" y="361"/>
      <point x="279" y="345"/>
      <point x="302" y="343" type="curve"/>
      <point x="302" y="341" type="line"/>
      <point x="279" y="339"/>
      <point x="265" y="324"/>
      <point x="265" y="295" type="curve" smooth="yes"/>
      <point x="265" y="271" type="line" smooth="yes"/>
      <point x="265" y="213"/>
      <point x="271" y="190"/>
      <point x="271" y="190" type="curve"/>
      <point x="271" y="190"/>
      <point x="251" y="239"/>
      <point x="225" y="286" type="curve" smooth="yes"/>
      <point x="149" y="426" type="line"/>
      <point x="225" y="426" type="line"/>
      <point x="225" y="485" type="line"/>
      <point x="134" y="485" type="line" smooth="yes"/>
      <point x="81" y="485"/>
      <point x="55" y="459"/>
      <point x="55" y="406" type="curve" smooth="yes"/>
      <point x="55" y="157" type="line" smooth="yes"/>
      <point x="55" y="104"/>
      <point x="81" y="78"/>
      <point x="134" y="78" type="curve" smooth="yes"/>
      <point x="236" y="78" type="line" smooth="yes"/>
      <point x="274" y="78"/>
      <point x="290" y="90"/>
      <point x="294" y="125" type="curve"/>
      <point x="265" y="171" type="line"/>
      <point x="265" y="145"/>
      <point x="257" y="137"/>
      <point x="231" y="137" type="curve" smooth="yes"/>
      <point x="155" y="137" type="line" smooth="yes"/>
      <point x="129" y="137"/>
      <point x="124" y="142"/>
      <point x="124" y="168" type="curve" smooth="yes"/>
      <point x="124" y="395" type="line"/>
      <point x="124" y="395"/>
      <point x="139" y="356"/>
      <point x="175" y="288" type="curve" smooth="yes"/>
      <point x="258" y="132" type="line"/>
      <point x="268" y="130" type="line"/>
      <point x="276" y="95"/>
      <point x="301" y="78"/>
    </contour>
    <contour>
      <point x="496" y="622" type="line"/>
      <point x="496" y="563" type="line"/>
      <point x="831" y="563" type="line"/>
      <point x="831" y="622" type="line"/>
    </contour>
    <contour>
      <point x="687" y="594" type="line"/>
      <point x="687" y="0" type="line"/>
      <point x="756" y="0" type="line"/>
      <point x="756" y="594" type="line"/>
    </contour>
    <contour>
      <point x="647" y="485" type="line"/>
      <point x="592" y="485" type="line" smooth="yes"/>
      <point x="539" y="485"/>
      <point x="513" y="459"/>
      <point x="513" y="406" type="curve" smooth="yes"/>
      <point x="513" y="157" type="line" smooth="yes"/>
      <point x="513" y="104"/>
      <point x="539" y="78"/>
      <point x="592" y="78" type="curve" smooth="yes"/>
      <point x="655" y="78" type="line" smooth="yes"/>
      <point x="685" y="78"/>
      <point x="698" y="89"/>
      <point x="698" y="125" type="curve"/>
      <point x="687" y="171" type="line"/>
      <point x="687" y="145"/>
      <point x="679" y="137"/>
      <point x="653" y="137" type="curve" smooth="yes"/>
      <point x="613" y="137" type="line" smooth="yes"/>
      <point x="587" y="137"/>
      <point x="582" y="142"/>
      <point x="582" y="168" type="curve" smooth="yes"/>
      <point x="582" y="395" type="line" smooth="yes"/>
      <point x="582" y="421"/>
      <point x="587" y="426"/>
      <point x="613" y="426" type="curve" smooth="yes"/>
      <point x="647" y="426" type="line"/>
    </contour>
  </outline>
</glyph>
<glyph name="dvB_JA" format="1">
  <advance width="692"/>
  <outline>
    <contour>
      <point x="573" y="592" type="line"/>
      <point x="573" y="0" type="line"/>
      <point x="642" y="0" type="line"/>
      <point x="642" y="592" type="line"/>
    </contour>
    <contour>
      <point x="-20" y="622" type="line"/>
      <point x="-20" y="563" type="line"/>
      <point x="717" y="563" type="line"/>
      <point x="717" y="622" type="line"/>
    </contour>
    <contour>
      <point x="111" y="168" type="curve"/>
      <point x="111" y="395" type="line"/>
      <point x="111" y="395"/>
      <point x="126" y="356"/>
      <point x="162" y="288" type="curve" smooth="yes"/>
      <point x="240" y="141" type="line"/>
      <point x="235" y="138"/>
      <point x="228" y="137"/>
      <point x="218" y="137" type="curve" smooth="yes"/>
      <point x="142" y="137" type="line" smooth="yes"/>
      <point x="116" y="137"/>
      <point x="111" y="142"/>
    </contour>
    <contour>
      <point x="212" y="485" type="line"/>
      <point x="121" y="485" type="line" smooth="yes"/>
      <point x="68" y="485"/>
      <point x="42" y="459"/>
      <point x="42" y="406" type="curve" smooth="yes"/>
      <point x="42" y="157" type="line" smooth="yes"/>
      <point x="42" y="104"/>
      <point x="68" y="78"/>
      <point x="121" y="78" type="curve" smooth="yes"/>
      <point x="234" y="78" type="line" smooth="yes"/>
      <point x="264" y="78"/>
      <point x="277" y="89"/>
      <point x="277" y="125" type="curve"/>
      <point x="257" y="121" type="line"/>
      <point x="267" y="92"/>
      <point x="292" y="78"/>
      <point x="331" y="78" type="curve"/>
      <point x="407" y="78" type="line" smooth="yes"/>
      <point x="460" y="78"/>
      <point x="486" y="104"/>
      <point x="486" y="157" type="curve" smooth="yes"/>
      <point x="486" y="426" type="line"/>
      <point x="611" y="426" type="line"/>
      <point x="611" y="485" type="line"/>
      <point x="417" y="485" type="line"/>
      <point x="417" y="168" type="line" smooth="yes"/>
      <point x="417" y="142"/>
      <point x="412" y="137"/>
      <point x="386" y="137" type="curve" smooth="yes"/>
      <point x="352" y="137" type="line" smooth="yes"/>
      <point x="326" y="137"/>
      <point x="321" y="142"/>
      <point x="321" y="168" type="curve" smooth="yes"/>
      <point x="321" y="485" type="line"/>
      <point x="252" y="485" type="line"/>
      <point x="252" y="325" type="line" smooth="yes"/>
      <point x="252" y="236"/>
      <point x="258" y="190"/>
      <point x="258" y="190" type="curve" smooth="yes"/>
      <point x="258" y="190"/>
      <point x="238" y="239"/>
      <point x="212" y="286" type="curve" smooth="yes"/>
      <point x="136" y="426" type="line"/>
      <point x="212" y="426" type="line"/>
    </contour>
  </outline>
</glyph>
<glyph name="dvB_J_YA" format="1">
  <advance width="954"/>
  <outline>
    <contour>
      <point x="111" y="168" type="curve"/>
      <point x="111" y="395" type="line"/>
      <point x="111" y="395"/>
      <point x="126" y="356"/>
      <point x="162" y="288" type="curve" smooth="yes"/>
      <point x="240" y="141" type="line"/>
      <point x="235" y="138"/>
      <point x="228" y="137"/>
      <point x="218" y="137" type="curve" smooth="yes"/>
      <point x="142" y="137" type="line" smooth="yes"/>
      <point x="116" y="137"/>
      <point x="111" y="142"/>
    </contour>
    <contour>
      <point x="212" y="485" type="line"/>
      <point x="121" y="485" type="line" smooth="yes"/>
      <point x="68" y="485"/>
      <point x="42" y="459"/>
      <point x="42" y="406" type="curve" smooth="yes"/>
      <point x="42" y="157" type="line" smooth="yes"/>
      <point x="42" y="104"/>
      <point x="68" y="78"/>
      <point x="121" y="78" type="curve" smooth="yes"/>
      <point x="234" y="78" type="line" smooth="yes"/>
      <point x="264" y="78"/>
      <point x="277" y="89"/>
      <point x="277" y="125" type="curve"/>
      <point x="257" y="121" type="line"/>
      <point x="267" y="92"/>
      <point x="292" y="78"/>
      <point x="331" y="78" type="curve"/>
      <point x="407" y="78" type="line" smooth="yes"/>
      <point x="460" y="78"/>
      <point x="486" y="104"/>
      <point x="486" y="157" type="curve" smooth="yes"/>
      <point x="486" y="345" type="line"/>
      <point x="611" y="345" type="line"/>
      <point x="611" y="404" type="line"/>
      <point x="417" y="404" type="line"/>
      <point x="417" y="168" type="line" smooth="yes"/>
      <point x="417" y="142"/>
      <point x="412" y="137"/>
      <point x="386" y="137" type="curve" smooth="yes"/>
      <point x="352" y="137" type="line" smooth="yes"/>
      <point x="326" y="137"/>
      <point x="321" y="142"/>
      <point x="321" y="168" type="curve" smooth="yes"/>
      <point x="321" y="485" type="line"/>
      <point x="252" y="485" type="line"/>
      <point x="252" y="325" type="line" smooth="yes"/>
      <point x="252" y="236"/>
      <point x="258" y="190"/>
      <point x="258" y="190" type="curve" smooth="yes"/>
      <point x="258" y="190"/>
      <point x="238" y="239"/>
      <point x="212" y="286" type="curve" smooth="yes"/>
      <point x="136" y="426" type="line"/>
      <point x="212" y="426" type="line"/>
    </contour>
    <contour>
      <point x="-20" y="622" type="line"/>
      <point x="-20" y="563" type="line"/>
      <point x="986" y="563" type="line"/>
      <point x="986" y="622" type="line"/>
    </contour>
    <contour>
      <point x="842" y="592" type="line"/>
      <point x="842" y="0" type="line"/>
      <point x="911" y="0" type="line"/>
      <point x="911" y="592" type="line"/>
    </contour>
    <contour>
      <point x="753" y="424" type="curve"/>
      <point x="753" y="536" type="line" smooth="yes"/>
      <point x="753" y="564"/>
      <point x="740" y="571"/>
      <point x="718" y="571" type="curve"/>
      <point x="638" y="563" type="line"/>
      <point x="682" y="563"/>
      <point x="684" y="559"/>
      <point x="684" y="531" type="curve" smooth="yes"/>
      <point x="684" y="435" type="line" smooth="yes"/>
      <point x="684" y="409"/>
      <point x="679" y="404"/>
      <point x="653" y="404" type="curve" smooth="yes"/>
      <point x="573" y="404" type="line"/>
      <point x="573" y="157" type="line" smooth="yes"/>
      <point x="573" y="104"/>
      <point x="599" y="78"/>
      <point x="652" y="78" type="curve" smooth="yes"/>
      <point x="810" y="78" type="line" smooth="yes"/>
      <point x="840" y="78"/>
      <point x="853" y="89"/>
      <point x="853" y="125" type="curve"/>
      <point x="842" y="171" type="line"/>
      <point x="842" y="145"/>
      <point x="834" y="137"/>
      <point x="808" y="137" type="curve" smooth="yes"/>
      <point x="673" y="137" type="line" smooth="yes"/>
      <point x="647" y="137"/>
      <point x="642" y="142"/>
      <point x="642" y="168" type="curve" smooth="yes"/>
      <point x="642" y="345" type="line"/>
      <point x="674" y="345" type="line" smooth="yes"/>
      <point x="727" y="345"/>
      <point x="753" y="371"/>
    </contour>
  </outline>
</glyph>
<glyph name="dvB_LA" format="1">
  <advance width="708"/>
  <outline>
    <contour>
      <point x="-20" y="622" type="line"/>
      <point x="-20" y="563" type="line"/>
      <point x="728" y="563" type="line"/>
      <point x="728" y="622" type="line"/>
    </contour>
    <contour>
      <point x="265" y="406" type="curve"/>
      <point x="265" y="325" type="line" smooth="yes"/>
      <point x="265" y="236"/>
      <point x="271" y="190"/>
      <point x="271" y="190" type="curve"/>
      <point x="271" y="190"/>
      <point x="251" y="239"/>
      <point x="225" y="286" type="curve" smooth="yes"/>
      <point x="149" y="426" type="line"/>
      <point x="225" y="426" type="line"/>
      <point x="225" y="485" type="line"/>
      <point x="134" y="485" type="line" smooth="yes"/>
      <point x="81" y="485"/>
      <point x="55" y="459"/>
      <point x="55" y="406" type="curve" smooth="yes"/>
      <point x="55" y="157" type="line" smooth="yes"/>
      <point x="55" y="104"/>
      <point x="81" y="78"/>
      <point x="134" y="78" type="curve" smooth="yes"/>
      <point x="233" y="78" type="line" smooth="yes"/>
      <point x="263" y="78"/>
      <point x="276" y="89"/>
      <point x="276" y="125" type="curve"/>
      <point x="265" y="171" type="line"/>
      <point x="265" y="145"/>
      <point x="257" y="137"/>
      <point x="231" y="137" type="curve" smooth="yes"/>
      <point x="155" y="137" type="line" smooth="yes"/>
      <point x="129" y="137"/>
      <point x="124" y="142"/>
      <point x="124" y="168" type="curve" smooth="yes"/>
      <point x="124" y="395" type="line"/>
      <point x="124" y="395"/>
      <point x="139" y="356"/>
      <point x="175" y="288" type="curve" smooth="yes"/>
      <point x="270" y="110" type="line"/>
      <point x="265" y="98" type="line"/>
      <point x="265" y="79" type="line"/>
      <point x="265" y="26"/>
      <point x="291" y="0"/>
      <point x="344" y="0" type="curve" smooth="yes"/>
      <point x="426" y="0" type="line"/>
      <point x="426" y="62" type="line"/>
      <point x="365" y="62" type="line" smooth="yes"/>
      <point x="339" y="62"/>
      <point x="334" y="67"/>
      <point x="334" y="93" type="curve" smooth="yes"/>
      <point x="334" y="395" type="line" smooth="yes"/>
      <point x="334" y="421"/>
      <point x="339" y="426"/>
      <point x="365" y="426" type="curve" smooth="yes"/>
      <point x="397" y="426" type="line" smooth="yes"/>
      <point x="423" y="426"/>
      <point x="428" y="421"/>
      <point x="428" y="395" type="curve" smooth="yes"/>
      <point x="428" y="189" type="line"/>
      <point x="497" y="189" type="line"/>
      <point x="497" y="395" type="line" smooth="yes"/>
      <point x="497" y="421"/>
      <point x="502" y="426"/>
      <point x="528" y="426" type="curve" smooth="yes"/>
      <point x="623" y="426" type="line"/>
      <point x="623" y="485" type="line"/>
      <point x="511" y="485" type="line" smooth="yes"/>
      <point x="482" y="485"/>
      <point x="467" y="471"/>
      <point x="465" y="448" type="curve"/>
      <point x="463" y="448" type="line"/>
      <point x="461" y="471"/>
      <point x="445" y="485"/>
      <point x="416" y="485" type="curve" smooth="yes"/>
      <point x="344" y="485" type="line" smooth="yes"/>
      <point x="291" y="485"/>
      <point x="265" y="459"/>
    </contour>
    <contour>
      <point x="660" y="0" type="line"/>
      <point x="660" y="592" type="line"/>
      <point x="591" y="592" type="line"/>
      <point x="591" y="0" type="line"/>
    </contour>
  </outline>
</glyph>
<glyph name="dvB_NA" format="1">
  <advance width="706"/>
  <outline>
    <contour>
      <point x="582" y="597" type="line"/>
      <point x="582" y="0" type="line"/>
      <point x="651" y="0" type="line"/>
      <point x="651" y="597" type="line"/>
    </contour>
    <contour>
      <point x="-20" y="622" type="line"/>
      <point x="-20" y="563" type="line"/>
      <point x="726" y="563" type="line"/>
      <point x="726" y="622" type="line"/>
    </contour>
    <contour>
      <point x="225" y="485" type="line"/>
      <point x="134" y="485" type="line" smooth="yes"/>
      <point x="81" y="485"/>
      <point x="55" y="459"/>
      <point x="55" y="406" type="curve" smooth="yes"/>
      <point x="55" y="157" type="line" smooth="yes"/>
      <point x="55" y="104"/>
      <point x="81" y="78"/>
      <point x="134" y="78" type="curve" smooth="yes"/>
      <point x="236" y="78" type="line" smooth="yes"/>
      <point x="274" y="78"/>
      <point x="290" y="90"/>
      <point x="294" y="125" type="curve"/>
      <point x="265" y="171" type="line"/>
      <point x="265" y="145"/>
      <point x="257" y="137"/>
      <point x="231" y="137" type="curve" smooth="yes"/>
      <point x="155" y="137" type="line" smooth="yes"/>
      <point x="129" y="137"/>
      <point x="124" y="142"/>
      <point x="124" y="168" type="curve" smooth="yes"/>
      <point x="124" y="395" type="line"/>
      <point x="124" y="395"/>
      <point x="139" y="356"/>
      <point x="175" y="288" type="curve" smooth="yes"/>
      <point x="258" y="132" type="line"/>
      <point x="272" y="116" type="line"/>
      <point x="283" y="91"/>
      <point x="307" y="78"/>
      <point x="344" y="78" type="curve" smooth="yes"/>
      <point x="415" y="78" type="line" smooth="yes"/>
      <point x="468" y="78"/>
      <point x="494" y="104"/>
      <point x="494" y="157" type="curve" smooth="yes"/>
      <point x="494" y="444" type="line"/>
      <point x="425" y="444" type="line"/>
      <point x="425" y="168" type="line" smooth="yes"/>
      <point x="425" y="142"/>
      <point x="420" y="137"/>
      <point x="394" y="137" type="curve" smooth="yes"/>
      <point x="365" y="137" type="line" smooth="yes"/>
      <point x="339" y="137"/>
      <point x="334" y="142"/>
      <point x="334" y="168" type="curve" smooth="yes"/>
      <point x="334" y="395" type="line" smooth="yes"/>
      <point x="334" y="421"/>
      <point x="339" y="426"/>
      <point x="365" y="426" type="curve" smooth="yes"/>
      <point x="603" y="426" type="line"/>
      <point x="603" y="485" type="line"/>
      <point x="344" y="485" type="line" smooth="yes"/>
      <point x="291" y="485"/>
      <point x="265" y="459"/>
      <point x="265" y="406" type="curve" smooth="yes"/>
      <point x="265" y="271" type="line" smooth="yes"/>
      <point x="265" y="213"/>
      <point x="271" y="190"/>
      <point x="271" y="190" type="curve"/>
      <point x="271" y="190"/>
      <point x="251" y="239"/>
      <point x="225" y="286" type="curve" smooth="yes"/>
      <point x="149" y="426" type="line"/>
      <point x="225" y="426" type="line"/>
    </contour>
  </outline>
</glyph>
<glyph name="dvB_RA" format="1">
  <advance width="384"/>
  <outline>
    <contour>
      <point x="-20" y="622" type="line"/>
      <point x="-20" y="563" type="line"/>
      <point x="404" y="563" type="line"/>
      <point x="404" y="622" type="line"/>
    </contour>
    <contour>
      <point x="220" y="485" type="line"/>
      <point x="129" y="485" type="line" smooth="yes"/>
      <point x="76" y="485"/>
      <point x="50" y="459"/>
      <point x="50" y="406" type="curve" smooth="yes"/>
      <point x="50" y="187" type="line" smooth="yes"/>
      <point x="50" y="134"/>
      <point x="76" y="108"/>
      <point x="129" y="108" type="curve" smooth="yes"/>
      <point x="181" y="108" type="line"/>
      <point x="73" y="-50" type="line"/>
      <point x="149" y="-50" type="line"/>
      <point x="260" y="117" type="line"/>
      <point x="260" y="0" type="line"/>
      <point x="329" y="0" type="line"/>
      <point x="329" y="594" type="line"/>
      <point x="260" y="594" type="line"/>
      <point x="260" y="351" type="line" smooth="yes"/>
      <point x="260" y="262"/>
      <point x="266" y="216"/>
      <point x="266" y="216" type="curve" smooth="yes"/>
      <point x="266" y="216"/>
      <point x="248" y="256"/>
      <point x="220" y="302" type="curve" smooth="yes"/>
      <point x="144" y="426" type="line"/>
      <point x="220" y="426" type="line"/>
    </contour>
    <contour>
      <point x="119" y="198" type="curve"/>
      <point x="119" y="392" type="line"/>
      <point x="119" y="392"/>
      <point x="131" y="369"/>
      <point x="170" y="302" type="curve" smooth="yes"/>
      <point x="247" y="170" type="line"/>
      <point x="242" y="168"/>
      <point x="235" y="167"/>
      <point x="226" y="167" type="curve" smooth="yes"/>
      <point x="150" y="167" type="line" smooth="yes"/>
      <point x="124" y="167"/>
      <point x="119" y="172"/>
    </contour>
  </outline>
</glyph>
<glyph name="dvB_SA" format="1">
  <advance width="728"/>
  <outline>
    <contour>
      <point x="-20" y="622" type="line"/>
      <point x="-20" y="563" type="line"/>
      <point x="411" y="563" type="line" smooth="yes"/>
      <point x="437" y="563"/>
      <point x="442" y="558"/>
      <point x="442" y="532" type="curve" smooth="yes"/>
      <point x="442" y="375" type="line" smooth="yes"/>
      <point x="442" y="349"/>
      <point x="437" y="344"/>
      <point x="411" y="344" type="curve" smooth="yes"/>
      <point x="312" y="344" type="line"/>
      <point x="312" y="285" type="line"/>
      <point x="618" y="285" type="line"/>
      <point x="618" y="344" type="line"/>
      <point x="454" y="344" type="line"/>
      <point x="478" y="332" type="line"/>
      <point x="507" y="339"/>
      <point x="511" y="363"/>
      <point x="511" y="404" type="curve" smooth="yes"/>
      <point x="511" y="537" type="line" smooth="yes"/>
      <point x="511" y="565"/>
      <point x="498" y="570"/>
      <point x="476" y="570" type="curve"/>
      <point x="476" y="563" type="line"/>
      <point x="748" y="563" type="line"/>
      <point x="748" y="622" type="line"/>
    </contour>
    <contour>
      <point x="605" y="582" type="line"/>
      <point x="605" y="0" type="line"/>
      <point x="673" y="0" type="line"/>
      <point x="673" y="582" type="line"/>
    </contour>
    <contour>
      <point x="265" y="446" type="line"/>
      <point x="265" y="325" type="line" smooth="yes"/>
      <point x="265" y="236"/>
      <point x="271" y="190"/>
      <point x="271" y="190" type="curve"/>
      <point x="271" y="190"/>
      <point x="251" y="239"/>
      <point x="225" y="286" type="curve" smooth="yes"/>
      <point x="149" y="426" type="line"/>
      <point x="225" y="426" type="line"/>
      <point x="225" y="485" type="line"/>
      <point x="134" y="485" type="line" smooth="yes"/>
      <point x="81" y="485"/>
      <point x="55" y="459"/>
      <point x="55" y="406" type="curve" smooth="yes"/>
      <point x="55" y="157" type="line" smooth="yes"/>
      <point x="55" y="104"/>
      <point x="81" y="78"/>
      <point x="134" y="78" type="curve" smooth="yes"/>
      <point x="233" y="78" type="line" smooth="yes"/>
      <point x="263" y="78"/>
      <point x="276" y="89"/>
      <point x="276" y="125" type="curve"/>
      <point x="265" y="171" type="line"/>
      <point x="265" y="145"/>
      <point x="257" y="137"/>
      <point x="231" y="137" type="curve" smooth="yes"/>
      <point x="155" y="137" type="line" smooth="yes"/>
      <point x="129" y="137"/>
      <point x="124" y="142"/>
      <point x="124" y="168" type="curve" smooth="yes"/>
      <point x="124" y="395" type="line"/>
      <point x="124" y="395"/>
      <point x="139" y="356"/>
      <point x="175" y="288" type="curve" smooth="yes"/>
      <point x="270" y="110" type="line"/>
      <point x="265" y="98" type="line"/>
      <point x="265" y="79" type="line" smooth="yes"/>
      <point x="265" y="26"/>
      <point x="291" y="0"/>
      <point x="344" y="0" type="curve" smooth="yes"/>
      <point x="430" y="0" type="line" smooth="yes"/>
      <point x="483" y="0"/>
      <point x="509" y="26"/>
      <point x="509" y="79" type="curve" smooth="yes"/>
      <point x="509" y="211" type="line"/>
      <point x="440" y="211" type="line"/>
      <point x="440" y="90" type="line" smooth="yes"/>
      <point x="440" y="64"/>
      <point x="435" y="59"/>
      <point x="409" y="59" type="curve" smooth="yes"/>
      <point x="365" y="59" type="line" smooth="yes"/>
      <point x="339" y="59"/>
      <point x="334" y="64"/>
      <point x="334" y="90" type="curve" smooth="yes"/>
      <point x="334" y="446" type="line"/>
    </contour>
  </outline>
</glyph>
<glyph name="dvB_YA" format="1">
  <advance width="658"/>
  <outline>
    <contour>
      <point x="-20" y="622" type="line"/>
      <point x="-20" y="563" type="line"/>
      <point x="678" y="563" type="line"/>
      <point x="678" y="622" type="line"/>
    </contour>
    <contour>
      <point x="534" y="592" type="line"/>
      <point x="534" y="0" type="line"/>
      <point x="603" y="0" type="line"/>
      <point x="603" y="592" type="line"/>
    </contour>
    <contour>
      <point x="225" y="485" type="line"/>
      <point x="134" y="485" type="line" smooth="yes"/>
      <point x="81" y="485"/>
      <point x="55" y="459"/>
      <point x="55" y="406" type="curve" smooth="yes"/>
      <point x="55" y="157" type="line" smooth="yes"/>
      <point x="55" y="104"/>
      <point x="81" y="78"/>
      <point x="134" y="78" type="curve" smooth="yes"/>
      <point x="236" y="78" type="line" smooth="yes"/>
      <point x="274" y="78"/>
      <point x="290" y="90"/>
      <point x="294" y="125" type="curve"/>
      <point x="265" y="171" type="line"/>
      <point x="265" y="145"/>
      <point x="257" y="137"/>
      <point x="231" y="137" type="curve" smooth="yes"/>
      <point x="155" y="137" type="line" smooth="yes"/>
      <point x="129" y="137"/>
      <point x="124" y="142"/>
      <point x="124" y="168" type="curve" smooth="yes"/>
      <point x="124" y="395" type="line"/>
      <point x="124" y="395"/>
      <point x="139" y="356"/>
      <point x="175" y="288" type="curve" smooth="yes"/>
      <point x="258" y="132" type="line"/>
      <point x="270" y="121" type="line"/>
      <point x="280" y="92"/>
      <point x="305" y="78"/>
      <point x="344" y="78" type="curve" smooth="yes"/>
      <point x="502" y="78" type="line" smooth="yes"/>
      <point x="532" y="78"/>
      <point x="545" y="89"/>
      <point x="545" y="125" type="curve"/>
      <point x="534" y="171" type="line"/>
      <point x="534" y="145"/>
      <point x="526" y="137"/>
      <point x="500" y="137" type="curve" smooth="yes"/>
      <point x="365" y="137" type="line" smooth="yes"/>
      <point x="339" y="137"/>
      <point x="334" y="142"/>
      <point x="334" y="168" type="curve"/>
      <point x="334" y="315" type="line"/>
      <point x="366" y="315" type="line" smooth="yes"/>
      <point x="419" y="315"/>
      <point x="445" y="341"/>
      <point x="445" y="394" type="curve" smooth="yes"/>
      <point x="445" y="536" type="line" smooth="yes"/>
      <point x="445" y="564"/>
      <point x="432" y="571"/>
      <point x="410" y="571" type="curve"/>
      <point x="330" y="563" type="line"/>
      <point x="374" y="563"/>
      <point x="376" y="559"/>
      <point x="376" y="531" type="curve" smooth="yes"/>
      <point x="376" y="405" type="line" smooth="yes"/>
      <point x="376" y="379"/>
      <point x="371" y="374"/>
      <point x="345" y="374" type="curve" smooth="yes"/>
      <point x="265" y="374" type="line"/>
      <point x="265" y="271" type="line" smooth="yes"/>
      <point x="265" y="213"/>
      <point x="271" y="190"/>
      <point x="271" y="190" type="curve"/>
      <point x="271" y="190"/>
      <point x="251" y="239"/>
      <point x="225" y="286" type="curve" smooth="yes"/>
      <point x="149" y="426" type="line"/>
      <point x="225" y="426" type="line"/>
    </contour>
  </outline>
</glyph>
<glyph name="dvCHA" format="1">
  <advance width="501"/>
  <outline>
    <contour>
      <point x="254" y="-30" type="move" name="blwm.u"/>
    </contour>
    <contour>
      <point x="299" y="-40" type="move" name="blwm.uu"/>
    </contour>
    <contour>
      <point x="316" y="-20" type="move" name="blwm.virama"/>
    </contour>
    <contour>
      <point x="381" y="632" type="move" name="abvm.e"/>
    </contour>
    <contour>
      <point x="381" y="622" type="move" name="abvm.bindu"/>
    </contour>
    <contour>
      <point x="330" y="-60" type="move" name="blwm.vr"/>
    </contour>
    <contour>
      <point x="-20" y="622" type="line"/>
      <point x="-20" y="563" type="line"/>
      <point x="521" y="563" type="line"/>
      <point x="521" y="622" type="line"/>
    </contour>
    <contour>
      <point x="318" y="591" type="line"/>
      <point x="318" y="465" type="line"/>
      <point x="382" y="465" type="line"/>
      <point x="382" y="591" type="line"/>
    </contour>
    <contour>
      <point x="55" y="537" type="curve"/>
      <point x="55" y="355" type="line" smooth="yes"/>
      <point x="55" y="326"/>
      <point x="69" y="310"/>
      <point x="92" y="308" type="curve"/>
      <point x="92" y="306" type="line"/>
      <point x="69" y="304"/>
      <point x="55" y="289"/>
      <point x="55" y="260" type="curve" smooth="yes"/>
      <point x="55" y="79" type="line" smooth="yes"/>
      <point x="55" y="26"/>
      <point x="81" y="0"/>
      <point x="134" y="0" type="curve" smooth="yes"/>
      <point x="374" y="0" type="line" smooth="yes"/>
      <point x="427" y="0"/>
      <point x="453" y="26"/>
      <point x="453" y="79" type="curve" smooth="yes"/>
      <point x="453" y="406" type="line" smooth="yes"/>
      <point x="453" y="459"/>
      <point x="427" y="485"/>
      <point x="374" y="485" type="curve" smooth="yes"/>
      <point x="322" y="485" type="line" smooth="yes"/>
      <point x="269" y="485"/>
      <point x="243" y="459"/>
      <point x="243" y="406" type="curve" smooth="yes"/>
      <point x="243" y="252" type="line" smooth="yes"/>
      <point x="243" y="199"/>
      <point x="269" y="173"/>
      <point x="322" y="173" type="curve" smooth="yes"/>
      <point x="358" y="173" type="line"/>
      <point x="358" y="232" type="line"/>
      <point x="338" y="232" type="line" smooth="yes"/>
      <point x="312" y="232"/>
      <point x="307" y="237"/>
      <point x="307" y="263" type="curve" smooth="yes"/>
      <point x="307" y="395" type="line" smooth="yes"/>
      <point x="307" y="421"/>
      <point x="312" y="426"/>
      <point x="338" y="426" type="curve" smooth="yes"/>
      <point x="358" y="426" type="line" smooth="yes"/>
      <point x="384" y="426"/>
      <point x="389" y="421"/>
      <point x="389" y="395" type="curve" smooth="yes"/>
      <point x="389" y="90" type="line" smooth="yes"/>
      <point x="389" y="64"/>
      <point x="384" y="59"/>
      <point x="358" y="59" type="curve" smooth="yes"/>
      <point x="155" y="59" type="line" smooth="yes"/>
      <point x="129" y="59"/>
      <point x="124" y="64"/>
      <point x="124" y="90" type="curve" smooth="yes"/>
      <point x="124" y="248" type="line" smooth="yes"/>
      <point x="124" y="274"/>
      <point x="129" y="279"/>
      <point x="155" y="279" type="curve" smooth="yes"/>
      <point x="192" y="279" type="line"/>
      <point x="192" y="338" type="line"/>
      <point x="155" y="338" type="line" smooth="yes"/>
      <point x="129" y="338"/>
      <point x="124" y="343"/>
      <point x="124" y="369" type="curve" smooth="yes"/>
      <point x="124" y="532" type="line" smooth="yes"/>
      <point x="124" y="566"/>
      <point x="132" y="564"/>
      <point x="185" y="562" type="curve"/>
      <point x="111" y="569" type="line"/>
      <point x="76" y="571"/>
      <point x="55" y="573"/>
    </contour>
  </outline>
</glyph>
<glyph name="dvCH_R" format="1">
  <advance width="501"/>
  <outline>
    <contour>
      <point x="521" y="563" type="line"/>
      <point x="521" y="622" type="line"/>
      <point x="-20" y="622" type="line"/>
      <point x="-20" y="563" type="line"/>
    </contour>
    <contour>
      <point x="358" y="173" type="line"/>
      <point x="358" y="232" type="line"/>
      <point x="338" y="232" type="line" smooth="yes"/>
      <point x="312" y="232"/>
      <point x="307" y="237"/>
      <point x="307" y="263" type="curve" smooth="yes"/>
      <point x="307" y="395" type="line" smooth="yes"/>
      <point x="307" y="421"/>
      <point x="312" y="426"/>
      <point x="338" y="426" type="curve" smooth="yes"/>
      <point x="358" y="426" type="line" smooth="yes"/>
      <point x="384" y="426"/>
      <point x="389" y="421"/>
      <point x="389" y="395" type="curve" smooth="yes"/>
      <point x="389" y="90" type="line" smooth="yes"/>
      <point x="389" y="64"/>
      <point x="384" y="59"/>
      <point x="358" y="59" type="curve" smooth="yes"/>
      <point x="155" y="59" type="line" smooth="yes"/>
      <point x="129" y="59"/>
      <point x="124" y="64"/>
      <point x="124" y="90" type="curve" smooth="yes"/>
      <point x="124" y="248" type="line" smooth="yes"/>
      <point x="124" y="274"/>
      <point x="129" y="279"/>
      <point x="155" y="279" type="curve" smooth="yes"/>
      <point x="192" y="279" type="line"/>
      <point x="192" y="338" type="line"/>
      <point x="155" y="338" type="line" smooth="yes"/>
      <point x="129" y="338"/>
      <point x="124" y="343"/>
      <point x="124" y="369" type="curve" smooth="yes"/>
      <point x="124" y="532" type="line" smooth="yes"/>
      <point x="124" y="566"/>
      <point x="132" y="564"/>
      <point x="185" y="562" type="curve"/>
      <point x="111" y="569" type="line"/>
      <point x="76" y="571"/>
      <point x="55" y="573"/>
      <point x="55" y="537" type="curve"/>
      <point x="55" y="355" type="line" smooth="yes"/>
      <point x="55" y="326"/>
      <point x="69" y="310"/>
      <point x="92" y="308" type="curve"/>
      <point x="92" y="306" type="line"/>
      <point x="69" y="304"/>
      <point x="55" y="289"/>
      <point x="55" y="260" type="curve" smooth="yes"/>
      <point x="55" y="79" type="line" smooth="yes"/>
      <point x="55" y="26"/>
      <point x="81" y="0"/>
      <point x="134" y="0" type="curve" smooth="yes"/>
      <point x="374" y="0" type="line" smooth="yes"/>
      <point x="427" y="0"/>
      <point x="453" y="26"/>
      <point x="453" y="79" type="curve" smooth="yes"/>
      <point x="453" y="406" type="line" smooth="yes"/>
      <point x="453" y="459"/>
      <point x="427" y="485"/>
      <point x="374" y="485" type="curve" smooth="yes"/>
      <point x="322" y="485" type="line" smooth="yes"/>
      <point x="269" y="485"/>
      <point x="243" y="459"/>
      <point x="243" y="406" type="curve" smooth="yes"/>
      <point x="243" y="252" type="line" smooth="yes"/>
      <point x="243" y="199"/>
      <point x="269" y="173"/>
      <point x="322" y="173" type="curve" smooth="yes"/>
    </contour>
    <contour>
      <point x="206" y="24" type="line"/>
      <point x="119" y="-140" type="line"/>
      <point x="191" y="-140" type="line"/>
      <point x="256" y="-10" type="line"/>
      <point x="319" y="-140" type="line"/>
      <point x="391" y="-140" type="line"/>
      <point x="305" y="24" type="line"/>
    </contour>
  </outline>
</glyph>
